<svg xmlns="http://www.w3.org/2000/svg" xmlns:xlink="http://www.w3.org/1999/xlink" width="500" zoomAndPan="magnify" viewBox="0 0 375 374.999991" height="500" preserveAspectRatio="xMidYMid meet" version="1.0"><defs><clipPath id="1e30366278"><path d="M 77.710938 15.5 L 310.210938 15.5 L 310.210938 365.75 L 77.710938 365.75 Z M 77.710938 15.5 " clip-rule="nonzero"/></clipPath><clipPath id="c0d1d2bb74"><path d="M 110 169 L 264 169 L 264 322.871094 L 110 322.871094 Z M 110 169 " clip-rule="nonzero"/></clipPath></defs><rect x="-37.5" width="450" fill="#ffffff" y="-37.499999" height="449.999989" fill-opacity="1"/><rect x="-37.5" width="450" fill="#786ba3" y="-37.499999" height="449.999989" fill-opacity="1"/><g clip-path="url(#1e30366278)"><path fill="#ffffff" d="M 193.933594 25.753906 C 177.742188 49.925781 83.355469 193.320312 83.355469 249.414062 C 83.355469 310.382812 132.960938 359.988281 193.933594 359.988281 C 254.90625 359.988281 304.507812 310.382812 304.507812 249.414062 C 304.507812 193.3125 210.121094 49.925781 193.933594 25.753906 Z M 193.933594 365.65625 C 129.839844 365.65625 77.6875 313.511719 77.6875 249.414062 C 77.6875 186.625 186.945312 25.894531 191.59375 19.085938 L 193.933594 15.65625 L 196.273438 19.085938 C 200.925781 25.894531 310.175781 186.625 310.175781 249.414062 C 310.175781 313.511719 258.03125 365.65625 193.933594 365.65625 " fill-opacity="1" fill-rule="nonzero"/></g><g clip-path="url(#c0d1d2bb74)"><path fill="#ffffff" d="M 145.660156 169.695312 C 126.1875 169.695312 110.332031 185.582031 110.332031 205.027344 L 110.332031 287.460938 C 110.332031 306.9375 126.1875 322.792969 145.660156 322.792969 L 228.097656 322.792969 C 247.570312 322.792969 263.425781 306.9375 263.425781 287.460938 L 263.425781 252.132812 C 263.425781 248.882812 260.789062 246.246094 257.539062 246.246094 C 254.289062 246.246094 251.648438 248.882812 251.648438 252.132812 L 251.648438 287.460938 C 251.648438 300.617188 241.253906 311.015625 228.097656 311.015625 L 145.660156 311.015625 C 132.535156 311.015625 122.109375 300.617188 122.109375 287.460938 L 122.109375 205.027344 C 122.109375 191.902344 132.535156 181.472656 145.660156 181.472656 L 180.992188 181.472656 C 184.242188 181.472656 186.878906 178.835938 186.878906 175.585938 C 186.878906 172.335938 184.242188 169.695312 180.992188 169.695312 Z M 145.660156 169.695312 " fill-opacity="1" fill-rule="nonzero"/></g><path fill="#ffffff" d="M 230 165.648438 L 161.667969 233.976562 C 160.75 234.898438 160.167969 236.09375 160.015625 237.351562 L 155.535156 270.226562 C 155.015625 274.03125 158.203125 277.28125 162.039062 276.882812 L 195.621094 273.140625 C 196.96875 272.988281 198.195312 272.402344 199.144531 271.453125 L 267.472656 203.15625 C 277.777344 192.820312 277.777344 175.984375 267.472656 165.648438 C 257.355469 155.097656 239.902344 156.050781 230 165.648438 Z M 259.132812 173.992188 C 264.960938 179.816406 264.960938 188.957031 259.132812 194.8125 L 252.875 201.070312 L 232.082031 180.246094 L 238.308594 173.992188 C 245.148438 167.152344 253.582031 168.4375 259.132812 173.992188 Z M 223.742188 188.558594 L 244.566406 209.382812 L 192.277344 261.671875 L 168.234375 264.339844 L 171.390625 240.90625 Z M 223.742188 188.558594 " fill-opacity="1" fill-rule="nonzero"/></svg>