<svg xmlns="http://www.w3.org/2000/svg" xmlns:xlink="http://www.w3.org/1999/xlink" width="500" zoomAndPan="magnify" viewBox="0 0 375 374.999991" height="500" preserveAspectRatio="xMidYMid meet" version="1.0"><defs><clipPath id="7ec33dbf57"><path d="M 13.089844 18.21875 L 361.839844 18.21875 L 361.839844 366.96875 L 13.089844 366.96875 Z M 13.089844 18.21875 " clip-rule="nonzero"/></clipPath><clipPath id="369976024a"><path d="M 46 83 L 306 83 L 306 342.707031 L 46 342.707031 Z M 46 83 " clip-rule="nonzero"/></clipPath></defs><g clip-path="url(#7ec33dbf57)"><path fill="#02972f" d="M 99.472656 18.21875 L 275.519531 18.21875 C 276.933594 18.21875 278.347656 18.25 279.757812 18.320312 C 281.171875 18.390625 282.578125 18.496094 283.988281 18.632812 C 285.394531 18.773438 286.796875 18.945312 288.195312 19.152344 C 289.59375 19.359375 290.984375 19.601562 292.371094 19.875 C 293.757812 20.152344 295.136719 20.460938 296.507812 20.804688 C 297.878906 21.148438 299.242188 21.527344 300.59375 21.9375 C 301.949219 22.347656 303.289062 22.789062 304.621094 23.265625 C 305.953125 23.742188 307.269531 24.25 308.574219 24.792969 C 309.882812 25.332031 311.175781 25.90625 312.453125 26.511719 C 313.730469 27.113281 314.992188 27.75 316.238281 28.417969 C 317.484375 29.082031 318.714844 29.78125 319.929688 30.507812 C 321.140625 31.234375 322.335938 31.988281 323.511719 32.773438 C 324.683594 33.558594 325.839844 34.375 326.976562 35.214844 C 328.113281 36.058594 329.226562 36.925781 330.320312 37.824219 C 331.410156 38.722656 332.480469 39.644531 333.527344 40.59375 C 334.578125 41.542969 335.601562 42.519531 336.601562 43.515625 C 337.597656 44.515625 338.574219 45.539062 339.523438 46.585938 C 340.472656 47.636719 341.394531 48.707031 342.292969 49.796875 C 343.1875 50.890625 344.058594 52.003906 344.902344 53.140625 C 345.742188 54.277344 346.558594 55.429688 347.34375 56.605469 C 348.128906 57.78125 348.882812 58.976562 349.609375 60.1875 C 350.335938 61.402344 351.035156 62.632812 351.699219 63.878906 C 352.367188 65.125 353.003906 66.386719 353.605469 67.664062 C 354.210938 68.941406 354.785156 70.234375 355.324219 71.539062 C 355.867188 72.847656 356.375 74.164062 356.851562 75.496094 C 357.328125 76.828125 357.769531 78.167969 358.179688 79.523438 C 358.589844 80.875 358.96875 82.238281 359.3125 83.609375 C 359.65625 84.980469 359.964844 86.359375 360.238281 87.746094 C 360.515625 89.132812 360.757812 90.523438 360.964844 91.921875 C 361.171875 93.320312 361.34375 94.722656 361.484375 96.128906 C 361.621094 97.539062 361.726562 98.945312 361.796875 100.359375 C 361.867188 101.769531 361.898438 103.183594 361.898438 104.597656 L 361.898438 280.644531 C 361.898438 282.058594 361.867188 283.472656 361.796875 284.882812 C 361.726562 286.296875 361.621094 287.707031 361.484375 289.113281 C 361.34375 290.519531 361.171875 291.921875 360.964844 293.320312 C 360.757812 294.71875 360.515625 296.109375 360.242188 297.496094 C 359.964844 298.882812 359.65625 300.261719 359.3125 301.632812 C 358.96875 303.003906 358.589844 304.367188 358.179688 305.71875 C 357.769531 307.074219 357.328125 308.414062 356.851562 309.746094 C 356.375 311.078125 355.867188 312.394531 355.324219 313.703125 C 354.785156 315.007812 354.210938 316.300781 353.605469 317.578125 C 353.003906 318.855469 352.367188 320.117188 351.699219 321.363281 C 351.035156 322.613281 350.335938 323.839844 349.609375 325.054688 C 348.882812 326.265625 348.128906 327.460938 347.34375 328.636719 C 346.558594 329.8125 345.742188 330.964844 344.902344 332.101562 C 344.058594 333.238281 343.1875 334.351562 342.292969 335.445312 C 341.394531 336.539062 340.472656 337.605469 339.523438 338.65625 C 338.574219 339.703125 337.597656 340.726562 336.601562 341.726562 C 335.601562 342.726562 334.578125 343.699219 333.527344 344.648438 C 332.480469 345.597656 331.410156 346.519531 330.320312 347.417969 C 329.226562 348.316406 328.113281 349.183594 326.976562 350.027344 C 325.839844 350.867188 324.683594 351.683594 323.511719 352.46875 C 322.335938 353.253906 321.140625 354.007812 319.929688 354.734375 C 318.714844 355.460938 317.484375 356.160156 316.238281 356.824219 C 314.992188 357.492188 313.730469 358.128906 312.453125 358.730469 C 311.175781 359.335938 309.882812 359.910156 308.574219 360.449219 C 307.269531 360.992188 305.953125 361.5 304.621094 361.976562 C 303.289062 362.453125 301.949219 362.894531 300.59375 363.304688 C 299.242188 363.714844 297.878906 364.09375 296.507812 364.4375 C 295.136719 364.78125 293.757812 365.089844 292.371094 365.367188 C 290.984375 365.640625 289.59375 365.882812 288.195312 366.089844 C 286.796875 366.296875 285.394531 366.472656 283.988281 366.609375 C 282.578125 366.75 281.171875 366.851562 279.757812 366.921875 C 278.347656 366.992188 276.933594 367.027344 275.519531 367.027344 L 99.472656 367.027344 C 98.058594 367.027344 96.644531 366.992188 95.234375 366.921875 C 93.820312 366.851562 92.410156 366.75 91.003906 366.609375 C 89.597656 366.472656 88.195312 366.296875 86.796875 366.089844 C 85.398438 365.882812 84.007812 365.640625 82.621094 365.367188 C 81.234375 365.089844 79.855469 364.78125 78.484375 364.4375 C 77.113281 364.09375 75.75 363.714844 74.398438 363.304688 C 73.042969 362.894531 71.703125 362.453125 70.371094 361.976562 C 69.039062 361.5 67.722656 360.992188 66.414062 360.449219 C 65.109375 359.910156 63.816406 359.335938 62.539062 358.730469 C 61.261719 358.128906 60 357.492188 58.753906 356.824219 C 57.503906 356.160156 56.277344 355.460938 55.0625 354.734375 C 53.851562 354.007812 52.65625 353.253906 51.480469 352.46875 C 50.304688 351.683594 49.152344 350.867188 48.015625 350.027344 C 46.878906 349.183594 45.765625 348.316406 44.671875 347.417969 C 43.578125 346.519531 42.507812 345.597656 41.460938 344.648438 C 40.414062 343.699219 39.390625 342.726562 38.390625 341.726562 C 37.390625 340.726562 36.417969 339.703125 35.46875 338.65625 C 34.519531 337.605469 33.59375 336.539062 32.699219 335.445312 C 31.800781 334.351562 30.933594 333.238281 30.089844 332.101562 C 29.25 330.964844 28.433594 329.8125 27.648438 328.636719 C 26.863281 327.460938 26.109375 326.265625 25.382812 325.054688 C 24.652344 323.839844 23.957031 322.613281 23.292969 321.363281 C 22.625 320.117188 21.988281 318.855469 21.386719 317.578125 C 20.78125 316.300781 20.207031 315.007812 19.667969 313.703125 C 19.125 312.394531 18.617188 311.078125 18.140625 309.746094 C 17.664062 308.414062 17.222656 307.074219 16.8125 305.71875 C 16.402344 304.367188 16.023438 303.003906 15.679688 301.632812 C 15.335938 300.261719 15.027344 298.882812 14.75 297.496094 C 14.476562 296.109375 14.234375 294.71875 14.027344 293.320312 C 13.820312 291.921875 13.644531 290.519531 13.507812 289.113281 C 13.367188 287.707031 13.265625 286.296875 13.195312 284.882812 C 13.125 283.472656 13.089844 282.058594 13.089844 280.644531 L 13.089844 104.597656 C 13.089844 103.183594 13.125 101.769531 13.195312 100.359375 C 13.265625 98.945312 13.367188 97.539062 13.507812 96.128906 C 13.644531 94.722656 13.820312 93.320312 14.027344 91.921875 C 14.234375 90.523438 14.476562 89.132812 14.75 87.746094 C 15.027344 86.359375 15.335938 84.980469 15.679688 83.609375 C 16.023438 82.238281 16.402344 80.875 16.8125 79.523438 C 17.222656 78.167969 17.664062 76.828125 18.140625 75.496094 C 18.617188 74.164062 19.125 72.847656 19.667969 71.539062 C 20.207031 70.234375 20.78125 68.941406 21.386719 67.664062 C 21.988281 66.386719 22.625 65.125 23.292969 63.878906 C 23.957031 62.632812 24.652344 61.402344 25.382812 60.1875 C 26.109375 58.976562 26.863281 57.78125 27.648438 56.605469 C 28.433594 55.429688 29.25 54.277344 30.089844 53.140625 C 30.933594 52.003906 31.800781 50.890625 32.699219 49.796875 C 33.59375 48.707031 34.519531 47.636719 35.46875 46.585938 C 36.417969 45.539062 37.390625 44.515625 38.390625 43.515625 C 39.390625 42.515625 40.414062 41.542969 41.460938 40.59375 C 42.507812 39.644531 43.578125 38.722656 44.671875 37.824219 C 45.765625 36.925781 46.878906 36.058594 48.015625 35.214844 C 49.152344 34.375 50.304688 33.558594 51.480469 32.773438 C 52.65625 31.988281 53.851562 31.234375 55.0625 30.507812 C 56.277344 29.78125 57.503906 29.082031 58.753906 28.417969 C 60 27.75 61.261719 27.113281 62.539062 26.511719 C 63.816406 25.90625 65.109375 25.332031 66.414062 24.792969 C 67.722656 24.25 69.039062 23.742188 70.371094 23.265625 C 71.703125 22.789062 73.042969 22.347656 74.398438 21.9375 C 75.75 21.527344 77.113281 21.148438 78.484375 20.804688 C 79.855469 20.460938 81.234375 20.152344 82.621094 19.875 C 84.007812 19.601562 85.398438 19.359375 86.796875 19.152344 C 88.195312 18.945312 89.597656 18.773438 91.003906 18.632812 C 92.410156 18.496094 93.820312 18.390625 95.234375 18.320312 C 96.644531 18.25 98.058594 18.21875 99.472656 18.21875 Z M 99.472656 18.21875 " fill-opacity="1" fill-rule="nonzero"/></g><g clip-path="url(#369976024a)"><path fill="#ffffff" d="M 105.820312 83.535156 C 72.875 83.535156 46.054688 110.410156 46.054688 143.300781 L 46.054688 282.75 C 46.054688 315.695312 72.875 342.515625 105.820312 342.515625 L 245.269531 342.515625 C 278.214844 342.515625 305.035156 315.695312 305.035156 282.75 L 305.035156 222.988281 C 305.035156 217.488281 300.574219 213.027344 295.074219 213.027344 C 289.574219 213.027344 285.113281 217.488281 285.113281 222.988281 L 285.113281 282.75 C 285.113281 305.007812 267.527344 322.59375 245.269531 322.59375 L 105.820312 322.59375 C 83.613281 322.59375 65.976562 305.007812 65.976562 282.75 L 65.976562 143.300781 C 65.976562 121.097656 83.613281 103.457031 105.820312 103.457031 L 165.582031 103.457031 C 171.082031 103.457031 175.542969 98.996094 175.542969 93.496094 C 175.542969 87.996094 171.082031 83.535156 165.582031 83.535156 Z M 105.820312 83.535156 " fill-opacity="1" fill-rule="nonzero"/></g><path fill="#ffffff" d="M 248.488281 76.6875 L 132.898438 192.273438 C 131.34375 193.832031 130.359375 195.855469 130.097656 197.980469 L 122.523438 253.59375 C 121.640625 260.027344 127.039062 265.527344 133.523438 264.851562 L 190.332031 258.523438 C 192.613281 258.265625 194.6875 257.277344 196.296875 255.671875 L 311.882812 140.136719 C 329.3125 122.652344 329.3125 94.171875 311.882812 76.6875 C 294.761719 58.839844 265.242188 60.449219 248.488281 76.6875 Z M 297.773438 90.796875 C 307.628906 100.65625 307.628906 116.117188 297.773438 126.023438 L 287.1875 136.609375 L 252.015625 101.382812 L 262.546875 90.796875 C 274.113281 79.230469 288.382812 81.410156 297.773438 90.796875 Z M 237.902344 115.441406 L 273.128906 150.667969 L 184.675781 239.121094 L 144.003906 243.632812 L 149.34375 204 Z M 237.902344 115.441406 " fill-opacity="1" fill-rule="nonzero"/></svg>