<svg xmlns="http://www.w3.org/2000/svg" xmlns:xlink="http://www.w3.org/1999/xlink" width="500" zoomAndPan="magnify" viewBox="0 0 375 374.999991" height="500" preserveAspectRatio="xMidYMid meet" version="1.0"><defs><clipPath id="b2c0c0db3a"><path d="M 13.089844 18.21875 L 361.839844 18.21875 L 361.839844 366.96875 L 13.089844 366.96875 Z M 13.089844 18.21875 " clip-rule="nonzero"/></clipPath></defs><g clip-path="url(#b2c0c0db3a)"><path fill="#1b4ed6" d="M 99.472656 18.21875 L 275.519531 18.21875 C 276.933594 18.21875 278.347656 18.25 279.757812 18.320312 C 281.171875 18.390625 282.578125 18.496094 283.988281 18.632812 C 285.394531 18.773438 286.796875 18.945312 288.195312 19.152344 C 289.59375 19.359375 290.984375 19.601562 292.371094 19.875 C 293.757812 20.152344 295.136719 20.460938 296.507812 20.804688 C 297.878906 21.148438 299.242188 21.527344 300.59375 21.9375 C 301.949219 22.347656 303.289062 22.789062 304.621094 23.265625 C 305.953125 23.742188 307.269531 24.25 308.574219 24.792969 C 309.882812 25.332031 311.175781 25.90625 312.453125 26.511719 C 313.730469 27.113281 314.992188 27.75 316.238281 28.417969 C 317.484375 29.082031 318.714844 29.78125 319.929688 30.507812 C 321.140625 31.234375 322.335938 31.988281 323.511719 32.773438 C 324.683594 33.558594 325.839844 34.375 326.976562 35.214844 C 328.113281 36.058594 329.226562 36.925781 330.320312 37.824219 C 331.410156 38.722656 332.480469 39.644531 333.527344 40.59375 C 334.578125 41.542969 335.601562 42.519531 336.601562 43.515625 C 337.597656 44.515625 338.574219 45.539062 339.523438 46.585938 C 340.472656 47.636719 341.394531 48.707031 342.292969 49.796875 C 343.1875 50.890625 344.058594 52.003906 344.902344 53.140625 C 345.742188 54.277344 346.558594 55.429688 347.34375 56.605469 C 348.128906 57.78125 348.882812 58.976562 349.609375 60.1875 C 350.335938 61.402344 351.035156 62.632812 351.699219 63.878906 C 352.367188 65.125 353.003906 66.386719 353.605469 67.664062 C 354.210938 68.941406 354.785156 70.234375 355.324219 71.539062 C 355.867188 72.847656 356.375 74.164062 356.851562 75.496094 C 357.328125 76.828125 357.769531 78.167969 358.179688 79.523438 C 358.589844 80.875 358.96875 82.238281 359.3125 83.609375 C 359.65625 84.980469 359.964844 86.359375 360.238281 87.746094 C 360.515625 89.132812 360.757812 90.523438 360.964844 91.921875 C 361.171875 93.320312 361.34375 94.722656 361.484375 96.128906 C 361.621094 97.539062 361.726562 98.945312 361.796875 100.359375 C 361.867188 101.769531 361.898438 103.183594 361.898438 104.597656 L 361.898438 280.644531 C 361.898438 282.058594 361.867188 283.472656 361.796875 284.882812 C 361.726562 286.296875 361.621094 287.707031 361.484375 289.113281 C 361.34375 290.519531 361.171875 291.921875 360.964844 293.320312 C 360.757812 294.71875 360.515625 296.109375 360.242188 297.496094 C 359.964844 298.882812 359.65625 300.261719 359.3125 301.632812 C 358.96875 303.003906 358.589844 304.367188 358.179688 305.71875 C 357.769531 307.074219 357.328125 308.414062 356.851562 309.746094 C 356.375 311.078125 355.867188 312.394531 355.324219 313.703125 C 354.785156 315.007812 354.210938 316.300781 353.605469 317.578125 C 353.003906 318.855469 352.367188 320.117188 351.699219 321.363281 C 351.035156 322.613281 350.335938 323.839844 349.609375 325.054688 C 348.882812 326.265625 348.128906 327.460938 347.34375 328.636719 C 346.558594 329.8125 345.742188 330.964844 344.902344 332.101562 C 344.058594 333.238281 343.1875 334.351562 342.292969 335.445312 C 341.394531 336.539062 340.472656 337.605469 339.523438 338.65625 C 338.574219 339.703125 337.597656 340.726562 336.601562 341.726562 C 335.601562 342.726562 334.578125 343.699219 333.527344 344.648438 C 332.480469 345.597656 331.410156 346.519531 330.320312 347.417969 C 329.226562 348.316406 328.113281 349.183594 326.976562 350.027344 C 325.839844 350.867188 324.683594 351.683594 323.511719 352.46875 C 322.335938 353.253906 321.140625 354.007812 319.929688 354.734375 C 318.714844 355.460938 317.484375 356.160156 316.238281 356.824219 C 314.992188 357.492188 313.730469 358.128906 312.453125 358.730469 C 311.175781 359.335938 309.882812 359.910156 308.574219 360.449219 C 307.269531 360.992188 305.953125 361.5 304.621094 361.976562 C 303.289062 362.453125 301.949219 362.894531 300.59375 363.304688 C 299.242188 363.714844 297.878906 364.09375 296.507812 364.4375 C 295.136719 364.78125 293.757812 365.089844 292.371094 365.367188 C 290.984375 365.640625 289.59375 365.882812 288.195312 366.089844 C 286.796875 366.296875 285.394531 366.472656 283.988281 366.609375 C 282.578125 366.75 281.171875 366.851562 279.757812 366.921875 C 278.347656 366.992188 276.933594 367.027344 275.519531 367.027344 L 99.472656 367.027344 C 98.058594 367.027344 96.644531 366.992188 95.234375 366.921875 C 93.820312 366.851562 92.410156 366.75 91.003906 366.609375 C 89.597656 366.472656 88.195312 366.296875 86.796875 366.089844 C 85.398438 365.882812 84.007812 365.640625 82.621094 365.367188 C 81.234375 365.089844 79.855469 364.78125 78.484375 364.4375 C 77.113281 364.09375 75.75 363.714844 74.398438 363.304688 C 73.042969 362.894531 71.703125 362.453125 70.371094 361.976562 C 69.039062 361.5 67.722656 360.992188 66.414062 360.449219 C 65.109375 359.910156 63.816406 359.335938 62.539062 358.730469 C 61.261719 358.128906 60 357.492188 58.753906 356.824219 C 57.503906 356.160156 56.277344 355.460938 55.0625 354.734375 C 53.851562 354.007812 52.65625 353.253906 51.480469 352.46875 C 50.304688 351.683594 49.152344 350.867188 48.015625 350.027344 C 46.878906 349.183594 45.765625 348.316406 44.671875 347.417969 C 43.578125 346.519531 42.507812 345.597656 41.460938 344.648438 C 40.414062 343.699219 39.390625 342.726562 38.390625 341.726562 C 37.390625 340.726562 36.417969 339.703125 35.46875 338.65625 C 34.519531 337.605469 33.59375 336.539062 32.699219 335.445312 C 31.800781 334.351562 30.933594 333.238281 30.089844 332.101562 C 29.25 330.964844 28.433594 329.8125 27.648438 328.636719 C 26.863281 327.460938 26.109375 326.265625 25.382812 325.054688 C 24.652344 323.839844 23.957031 322.613281 23.292969 321.363281 C 22.625 320.117188 21.988281 318.855469 21.386719 317.578125 C 20.78125 316.300781 20.207031 315.007812 19.667969 313.703125 C 19.125 312.394531 18.617188 311.078125 18.140625 309.746094 C 17.664062 308.414062 17.222656 307.074219 16.8125 305.71875 C 16.402344 304.367188 16.023438 303.003906 15.679688 301.632812 C 15.335938 300.261719 15.027344 298.882812 14.75 297.496094 C 14.476562 296.109375 14.234375 294.71875 14.027344 293.320312 C 13.820312 291.921875 13.644531 290.519531 13.507812 289.113281 C 13.367188 287.707031 13.265625 286.296875 13.195312 284.882812 C 13.125 283.472656 13.089844 282.058594 13.089844 280.644531 L 13.089844 104.597656 C 13.089844 103.183594 13.125 101.769531 13.195312 100.359375 C 13.265625 98.945312 13.367188 97.539062 13.507812 96.128906 C 13.644531 94.722656 13.820312 93.320312 14.027344 91.921875 C 14.234375 90.523438 14.476562 89.132812 14.75 87.746094 C 15.027344 86.359375 15.335938 84.980469 15.679688 83.609375 C 16.023438 82.238281 16.402344 80.875 16.8125 79.523438 C 17.222656 78.167969 17.664062 76.828125 18.140625 75.496094 C 18.617188 74.164062 19.125 72.847656 19.667969 71.539062 C 20.207031 70.234375 20.78125 68.941406 21.386719 67.664062 C 21.988281 66.386719 22.625 65.125 23.292969 63.878906 C 23.957031 62.632812 24.652344 61.402344 25.382812 60.1875 C 26.109375 58.976562 26.863281 57.78125 27.648438 56.605469 C 28.433594 55.429688 29.25 54.277344 30.089844 53.140625 C 30.933594 52.003906 31.800781 50.890625 32.699219 49.796875 C 33.59375 48.707031 34.519531 47.636719 35.46875 46.585938 C 36.417969 45.539062 37.390625 44.515625 38.390625 43.515625 C 39.390625 42.515625 40.414062 41.542969 41.460938 40.59375 C 42.507812 39.644531 43.578125 38.722656 44.671875 37.824219 C 45.765625 36.925781 46.878906 36.058594 48.015625 35.214844 C 49.152344 34.375 50.304688 33.558594 51.480469 32.773438 C 52.65625 31.988281 53.851562 31.234375 55.0625 30.507812 C 56.277344 29.78125 57.503906 29.082031 58.753906 28.417969 C 60 27.75 61.261719 27.113281 62.539062 26.511719 C 63.816406 25.90625 65.109375 25.332031 66.414062 24.792969 C 67.722656 24.25 69.039062 23.742188 70.371094 23.265625 C 71.703125 22.789062 73.042969 22.347656 74.398438 21.9375 C 75.75 21.527344 77.113281 21.148438 78.484375 20.804688 C 79.855469 20.460938 81.234375 20.152344 82.621094 19.875 C 84.007812 19.601562 85.398438 19.359375 86.796875 19.152344 C 88.195312 18.945312 89.597656 18.773438 91.003906 18.632812 C 92.410156 18.496094 93.820312 18.390625 95.234375 18.320312 C 96.644531 18.25 98.058594 18.21875 99.472656 18.21875 Z M 99.472656 18.21875 " fill-opacity="1" fill-rule="nonzero"/></g><path stroke-linecap="round" transform="matrix(11.749999, 0, 0, 11.749999, 42.472286, 59.269131)" fill="none" stroke-linejoin="round" d="M 15.000033 19.128028 C 15.857413 19.377031 16.732413 19.501033 17.625033 19.500036 C 18.339129 19.501033 19.044249 19.421246 19.74006 19.260342 C 20.435871 19.09977 21.104754 18.86207 21.746044 18.547908 C 21.750698 18.436871 21.751031 18.325834 21.746709 18.214464 C 21.742387 18.103427 21.733411 17.992722 21.720446 17.88235 C 21.707148 17.771977 21.689528 17.66227 21.667254 17.553227 C 21.64498 17.444185 21.618717 17.336139 21.587799 17.229424 C 21.556882 17.122376 21.521975 17.01699 21.482414 16.912935 C 21.443185 16.808879 21.399635 16.706818 21.351762 16.606419 C 21.304222 16.505687 21.252693 16.407283 21.197174 16.311206 C 21.141323 16.214796 21.082148 16.120714 21.018651 16.029291 C 20.955486 15.937868 20.888664 15.849105 20.818518 15.763001 C 20.748039 15.676897 20.674236 15.593785 20.597108 15.513666 C 20.51998 15.433214 20.439861 15.356418 20.356416 15.282948 C 20.272972 15.209144 20.186869 15.138998 20.097773 15.072176 C 20.009009 15.005687 19.917254 14.942522 19.823172 14.883347 C 19.729089 14.824171 19.63268 14.768652 19.534275 14.717123 C 19.435539 14.665594 19.33514 14.618386 19.232746 14.574836 C 19.130352 14.531618 19.026297 14.492389 18.920579 14.457482 C 18.815193 14.422575 18.708145 14.39199 18.6001 14.365727 C 18.492055 14.339464 18.383344 14.317522 18.273305 14.299902 C 18.163597 14.282615 18.053225 14.269317 17.942187 14.261006 C 17.831483 14.252362 17.720445 14.248373 17.609076 14.248706 C 17.498038 14.249038 17.387001 14.254025 17.275964 14.263333 C 17.165259 14.272642 17.054887 14.286605 16.945179 14.304889 C 16.835472 14.323174 16.726762 14.346112 16.619049 14.373041 C 16.511004 14.400301 16.404621 14.431551 16.299235 14.467456 C 16.19385 14.503027 16.090126 14.542921 15.988065 14.587136 C 15.886004 14.631352 15.785937 14.679557 15.687533 14.731751 C 15.589461 14.783945 15.493384 14.840129 15.399966 14.899969 C 15.306216 14.960142 15.215126 15.023639 15.126695 15.091126 C 15.038264 15.15828 14.952493 15.229091 14.869714 15.303559 C 14.786935 15.377695 14.707147 15.455155 14.630684 15.53594 C 14.554222 15.616724 14.481083 15.700501 14.41127 15.786937 C 14.341788 15.873706 14.275631 15.963134 14.213131 16.054889 M 15.000033 19.128028 L 15.000033 19.125036 C 15.000033 18.012004 14.715126 16.965129 14.214129 16.054889 M 15.000033 19.128028 L 15.000033 19.234078 C 14.520977 19.52231 14.024966 19.776964 13.511336 19.998041 C 12.997706 20.218786 12.471442 20.403959 11.932878 20.553227 C 11.393982 20.702164 10.847772 20.814198 10.293583 20.889331 C 9.739727 20.964132 9.183211 21.001033 8.624035 21.000036 C 6.292918 21.000036 4.112066 20.355089 2.250032 19.234078 L 2.249034 19.125036 C 2.249034 18.949504 2.256016 18.774304 2.270311 18.599437 C 2.284606 18.424903 2.306215 18.250701 2.335138 18.077828 C 2.363729 17.904623 2.399633 17.733081 2.442518 17.562868 C 2.485404 17.392988 2.535271 17.22477 2.591787 17.058879 C 2.648636 16.892655 2.712133 16.729424 2.782612 16.56852 C 2.852758 16.407948 2.929553 16.250368 3.012665 16.09578 C 3.096109 15.941525 3.185537 15.790926 3.281282 15.643653 C 3.377027 15.496711 3.478423 15.353759 3.586136 15.215129 C 3.693516 15.076498 3.806548 14.942522 3.924899 14.8132 C 4.043582 14.683878 4.167253 14.559876 4.296242 14.44086 C 4.424899 14.321511 4.558543 14.208147 4.696508 14.100102 C 4.834806 13.991724 4.977093 13.889663 5.123702 13.793253 C 5.270311 13.697176 5.42091 13.607083 5.574833 13.522974 C 5.729088 13.439198 5.886335 13.361737 6.046575 13.290926 C 6.207146 13.219783 6.370045 13.15562 6.535936 13.098107 C 6.701827 13.040594 6.869713 12.990062 7.039593 12.946511 C 7.209474 12.902961 7.381016 12.866392 7.553889 12.837136 C 7.726761 12.807549 7.900631 12.785275 8.075498 12.770314 C 8.250032 12.755022 8.425232 12.747376 8.600764 12.746711 C 8.776296 12.746046 8.951163 12.752695 9.12603 12.766325 C 9.301229 12.780288 9.475099 12.801232 9.648304 12.82949 C 9.821509 12.857416 9.993051 12.892987 10.163264 12.935208 C 10.333477 12.977429 10.501695 13.026963 10.667918 13.083147 C 10.834142 13.13933 10.997705 13.202495 11.15861 13.271977 C 11.319514 13.341791 11.477426 13.418253 11.632014 13.501033 C 11.786934 13.583812 11.937865 13.672575 12.085139 13.767987 C 12.232413 13.863067 12.375698 13.964464 12.51466 14.071511 C 12.653623 14.178559 12.787932 14.290926 12.917586 14.409277 C 13.04724 14.527296 13.171908 14.650634 13.291256 14.778958 C 13.410937 14.907615 13.524966 15.040594 13.633344 15.178559 C 13.741722 15.316525 13.844448 15.45848 13.94119 15.604756 C 14.037932 15.751033 14.12869 15.901299 14.213131 16.054889 M 12.000033 6.375035 C 12.000033 6.485407 11.994714 6.595779 11.983743 6.705819 C 11.972772 6.815859 11.956815 6.924902 11.935206 7.033279 C 11.913596 7.141989 11.886668 7.249037 11.854753 7.354755 C 11.822506 7.460474 11.785272 7.564529 11.743051 7.666591 C 11.70083 7.768652 11.653623 7.868386 11.601429 7.966125 C 11.549235 8.063532 11.492719 8.158279 11.431216 8.250035 C 11.369713 8.34179 11.303889 8.430553 11.234075 8.515992 C 11.163929 8.601431 11.089793 8.683213 11.011336 8.761338 C 10.933211 8.839795 10.851429 8.913931 10.76599 8.983745 C 10.680551 9.053891 10.59212 9.119716 10.500033 9.181218 C 10.408277 9.242721 10.31353 9.299237 10.216123 9.351431 C 10.118384 9.403625 10.018649 9.450833 9.916588 9.493054 C 9.814527 9.535274 9.710471 9.572508 9.604753 9.604756 C 9.499035 9.636671 9.391987 9.663599 9.283277 9.685208 C 9.174899 9.706817 9.065857 9.722774 8.955817 9.733745 C 8.845777 9.744716 8.735405 9.750035 8.625032 9.750035 C 8.514328 9.750035 8.404288 9.744716 8.294248 9.733745 C 8.184208 9.722774 8.074833 9.706817 7.966455 9.685208 C 7.858077 9.663599 7.75103 9.636671 7.645312 9.604756 C 7.539593 9.572508 7.435538 9.535274 7.333476 9.493054 C 7.231415 9.450833 7.131681 9.403625 7.033942 9.351431 C 6.936535 9.299237 6.841787 9.242721 6.750032 9.181218 C 6.657944 9.119716 6.569514 9.053891 6.484075 8.983745 C 6.398636 8.913931 6.316521 8.839795 6.238396 8.761338 C 6.160271 8.683213 6.086136 8.601431 6.01599 8.515992 C 5.945843 8.430553 5.880351 8.34179 5.818849 8.250035 C 5.757346 8.158279 5.700497 8.063532 5.648636 7.966125 C 5.596442 7.868386 5.549234 7.768652 5.507013 7.666591 C 5.46446 7.564529 5.427559 7.460474 5.395311 7.354755 C 5.363396 7.249037 5.336468 7.141989 5.314859 7.033279 C 5.29325 6.924902 5.27696 6.815859 5.266322 6.705819 C 5.255351 6.595779 5.250032 6.485407 5.250032 6.375035 C 5.250032 6.26433 5.255351 6.15429 5.266322 6.04425 C 5.27696 5.93421 5.29325 5.824835 5.314859 5.716457 C 5.336468 5.60808 5.363396 5.501032 5.395311 5.395314 C 5.427559 5.289596 5.46446 5.18554 5.507013 5.083479 C 5.549234 4.981417 5.596442 4.881683 5.648636 4.783944 C 5.700497 4.686537 5.757346 4.59179 5.818849 4.500034 C 5.880351 4.407947 5.945843 4.319516 6.01599 4.234077 C 6.086136 4.148638 6.160271 4.066524 6.238396 3.988399 C 6.316521 3.910274 6.398636 3.836138 6.484075 3.765992 C 6.569514 3.695846 6.657944 3.630354 6.750032 3.568851 C 6.841787 3.507348 6.936535 3.4505 7.033942 3.398638 C 7.131681 3.346444 7.231415 3.299236 7.333476 3.257016 C 7.435538 3.214463 7.539593 3.177561 7.645312 3.145314 C 7.75103 3.113399 7.858077 3.08647 7.966455 3.064861 C 8.074833 3.043252 8.184208 3.026963 8.294248 3.016324 C 8.404288 3.005353 8.514328 3.000034 8.625032 3.000034 C 8.735405 3.000034 8.845777 3.005353 8.955817 3.016324 C 9.065857 3.026963 9.174899 3.043252 9.283277 3.064861 C 9.391987 3.08647 9.499035 3.113399 9.604753 3.145314 C 9.710471 3.177561 9.814527 3.214463 9.916588 3.257016 C 10.018649 3.299236 10.118384 3.346444 10.216123 3.398638 C 10.31353 3.4505 10.408277 3.507348 10.500033 3.568851 C 10.59212 3.630354 10.680551 3.695846 10.76599 3.765992 C 10.851429 3.836138 10.933211 3.910274 11.011336 3.988399 C 11.089793 4.066524 11.163929 4.148638 11.234075 4.234077 C 11.303889 4.319516 11.369713 4.407947 11.431216 4.500034 C 11.492719 4.59179 11.549235 4.686537 11.601429 4.783944 C 11.653623 4.881683 11.70083 4.981417 11.743051 5.083479 C 11.785272 5.18554 11.822506 5.289596 11.854753 5.395314 C 11.886668 5.501032 11.913596 5.60808 11.935206 5.716457 C 11.956815 5.824835 11.972772 5.93421 11.983743 6.04425 C 11.994714 6.15429 12.000033 6.26433 12.000033 6.375035 Z M 20.250033 8.625035 C 20.250033 8.711139 20.245712 8.796577 20.2374 8.882349 C 20.229089 8.967788 20.216456 9.052894 20.199501 9.137003 C 20.182879 9.221444 20.161935 9.304889 20.137001 9.387003 C 20.112068 9.469117 20.083145 9.550234 20.050233 9.629689 C 20.017321 9.708812 19.980419 9.786604 19.940193 9.862402 C 19.899634 9.9382 19.855419 10.012003 19.807547 10.083479 C 19.760007 10.154955 19.70881 10.223772 19.654289 10.290261 C 19.599767 10.35675 19.541922 10.420248 19.481084 10.481086 C 19.420246 10.541923 19.356749 10.599769 19.290259 10.65429 C 19.22377 10.708812 19.154954 10.760008 19.083477 10.807548 C 19.012001 10.855421 18.938198 10.899636 18.8624 10.940195 C 18.786602 10.980421 18.70881 11.017322 18.629688 11.050235 C 18.550233 11.083147 18.469116 11.11207 18.387001 11.137003 C 18.304887 11.161937 18.221443 11.182881 18.137001 11.199503 C 18.052892 11.216458 17.967786 11.229091 17.882347 11.237402 C 17.796576 11.245713 17.711137 11.250035 17.625033 11.250035 C 17.538929 11.250035 17.453158 11.245713 17.367719 11.237402 C 17.28228 11.229091 17.197174 11.216458 17.112733 11.199503 C 17.028624 11.182881 16.945179 11.161937 16.863065 11.137003 C 16.780618 11.11207 16.699834 11.083147 16.620379 11.050235 C 16.540924 11.017322 16.463464 10.980421 16.387666 10.940195 C 16.311868 10.899636 16.238065 10.855421 16.166589 10.807548 C 16.095113 10.760008 16.026296 10.708812 15.959807 10.65429 C 15.893318 10.599769 15.829488 10.541923 15.768982 10.481086 C 15.708145 10.420248 15.650299 10.35675 15.595778 10.290261 C 15.541256 10.223772 15.49006 10.154955 15.44252 10.083479 C 15.394647 10.012003 15.350432 9.9382 15.309873 9.862402 C 15.269315 9.786604 15.232746 9.708812 15.199833 9.629689 C 15.166921 9.550234 15.137998 9.469117 15.113065 9.387003 C 15.088131 9.304889 15.067187 9.221444 15.050565 9.137003 C 15.03361 9.052894 15.020977 8.967788 15.012666 8.882349 C 15.004355 8.796577 15.000033 8.711139 15.000033 8.625035 C 15.000033 8.538931 15.004355 8.45316 15.012666 8.367721 C 15.020977 8.282282 15.03361 8.197176 15.050565 8.112734 C 15.067187 8.028625 15.088131 7.945181 15.113065 7.863067 C 15.137998 7.78062 15.166921 7.699835 15.199833 7.62038 C 15.232746 7.540926 15.269315 7.463466 15.309873 7.387668 C 15.350432 7.31187 15.394647 7.238067 15.44252 7.166591 C 15.49006 7.095114 15.541256 7.026298 15.595778 6.959809 C 15.650299 6.893319 15.708145 6.829489 15.768982 6.768984 C 15.829488 6.708146 15.893318 6.650301 15.959807 6.595779 C 16.026296 6.541258 16.095113 6.490061 16.166589 6.442521 C 16.238065 6.394649 16.311868 6.350434 16.387666 6.309875 C 16.463464 6.269317 16.540924 6.232747 16.620379 6.199835 C 16.699834 6.166923 16.780618 6.138 16.863065 6.113067 C 16.945179 6.088133 17.028624 6.067189 17.112733 6.050567 C 17.197174 6.033612 17.28228 6.020979 17.367719 6.012668 C 17.453158 6.004356 17.538929 6.000035 17.625033 6.000035 C 17.711137 6.000035 17.796576 6.004356 17.882347 6.012668 C 17.967786 6.020979 18.052892 6.033612 18.137001 6.050567 C 18.221443 6.067189 18.304887 6.088133 18.387001 6.113067 C 18.469116 6.138 18.550233 6.166923 18.629688 6.199835 C 18.70881 6.232747 18.786602 6.269317 18.8624 6.309875 C 18.938198 6.350434 19.012001 6.394649 19.083477 6.442521 C 19.154954 6.490061 19.22377 6.541258 19.290259 6.595779 C 19.356749 6.650301 19.420246 6.708146 19.481084 6.768984 C 19.541922 6.829489 19.599767 6.893319 19.654289 6.959809 C 19.70881 7.026298 19.760007 7.095114 19.807547 7.166591 C 19.855419 7.238067 19.899634 7.31187 19.940193 7.387668 C 19.980419 7.463466 20.017321 7.540926 20.050233 7.62038 C 20.083145 7.699835 20.112068 7.78062 20.137001 7.863067 C 20.161935 7.945181 20.182879 8.028625 20.199501 8.112734 C 20.216456 8.197176 20.229089 8.282282 20.2374 8.367721 C 20.245712 8.45316 20.250033 8.538931 20.250033 8.625035 Z M 20.250033 8.625035 " stroke="#ffffff" stroke-width="1" stroke-opacity="1" stroke-miterlimit="4"/></svg>