<svg xmlns="http://www.w3.org/2000/svg" xmlns:xlink="http://www.w3.org/1999/xlink" width="500" zoomAndPan="magnify" viewBox="0 0 375 374.999991" height="500" preserveAspectRatio="xMidYMid meet" version="1.0"><defs><clipPath id="6192345531"><path d="M 38 79.007812 L 321 79.007812 L 321 372 L 38 372 Z M 38 79.007812 " clip-rule="nonzero"/></clipPath><clipPath id="3c4cf060f8"><path d="M 150.742188 114.421875 L 216.742188 114.421875 L 216.742188 230.671875 L 150.742188 230.671875 Z M 150.742188 114.421875 " clip-rule="nonzero"/></clipPath></defs><rect x="-37.5" width="450" fill="#ffffff" y="-37.499999" height="449.999989" fill-opacity="1"/><rect x="-37.5" width="450" fill="#fdd158" y="-37.499999" height="449.999989" fill-opacity="1"/><g clip-path="url(#6192345531)"><path fill="#6f22aa" d="M 317.847656 91.242188 C 313.773438 83.746094 306.035156 79.128906 297.519531 79.128906 L 61.847656 79.128906 C 53.390625 79.128906 45.59375 83.746094 41.519531 91.242188 C 37.5 98.738281 37.859375 107.796875 42.539062 114.871094 L 139.925781 263.652344 C 140.765625 264.910156 141.183594 266.351562 141.183594 267.847656 L 141.183594 348.6875 C 141.183594 361.398438 151.558594 371.773438 164.273438 371.773438 L 195.09375 371.773438 C 207.808594 371.773438 218.183594 361.398438 218.183594 348.6875 L 218.183594 267.847656 C 218.183594 266.351562 218.601562 264.910156 219.441406 263.652344 L 316.828125 114.929688 C 321.507812 107.796875 321.867188 98.738281 317.847656 91.242188 Z M 303.9375 106.476562 L 206.550781 255.195312 C 204.089844 258.972656 202.769531 263.351562 202.769531 267.847656 L 202.769531 348.6875 C 202.769531 352.941406 199.292969 356.363281 195.09375 356.363281 L 164.273438 356.363281 C 160.015625 356.363281 156.597656 352.882812 156.597656 348.6875 L 156.597656 267.847656 C 156.597656 263.351562 155.277344 258.972656 152.816406 255.195312 L 55.429688 106.476562 C 53.152344 102.996094 54.410156 99.820312 55.070312 98.621094 C 55.730469 97.421875 57.710938 94.601562 61.847656 94.601562 L 297.519531 94.601562 C 301.65625 94.601562 303.636719 97.421875 304.296875 98.621094 C 304.957031 99.757812 306.214844 102.996094 303.9375 106.476562 Z M 303.9375 106.476562 " fill-opacity="1" fill-rule="nonzero"/></g><g clip-path="url(#3c4cf060f8)"><path fill="#7622aa" d="M 154.492188 231.035156 C 154.070312 231.035156 153.648438 230.894531 153.226562 230.753906 C 151.960938 230.050781 151.398438 228.644531 151.960938 227.234375 C 157.730469 211.480469 163.496094 195.867188 169.261719 180.113281 L 169.96875 178.285156 L 153.789062 178.285156 C 152.804688 178.285156 151.960938 177.863281 151.398438 177.019531 C 150.835938 176.175781 150.835938 175.1875 151.257812 174.34375 L 178.265625 116.109375 C 178.6875 115.125 179.671875 114.421875 180.796875 114.421875 L 213.574219 114.421875 C 214.558594 114.421875 215.542969 114.984375 216.105469 115.96875 C 216.667969 116.953125 216.527344 118.078125 215.964844 118.921875 C 207.945312 130.738281 199.789062 142.414062 191.628906 154.230469 L 205.976562 154.230469 C 207.101562 154.230469 207.945312 154.792969 208.507812 155.777344 C 209.074219 156.761719 208.933594 157.886719 208.226562 158.730469 L 156.742188 229.769531 C 156.179688 230.613281 155.335938 231.035156 154.492188 231.035156 Z M 158.152344 172.65625 L 173.90625 172.65625 C 174.890625 172.65625 175.734375 173.078125 176.15625 173.921875 C 176.578125 174.765625 176.859375 175.609375 176.4375 176.457031 L 174.328125 182.082031 C 170.953125 191.367188 167.433594 200.648438 164.058594 209.933594 L 200.210938 159.855469 L 186.285156 159.855469 C 185.300781 159.855469 184.316406 159.292969 183.753906 158.308594 C 183.332031 157.324219 183.332031 156.199219 183.894531 155.355469 C 192.050781 143.539062 200.070312 131.863281 208.226562 120.046875 L 182.484375 120.046875 Z M 158.152344 172.65625 " fill-opacity="1" fill-rule="nonzero"/></g></svg>