<svg xmlns="http://www.w3.org/2000/svg" xmlns:xlink="http://www.w3.org/1999/xlink" width="500" zoomAndPan="magnify" viewBox="0 0 375 374.999991" height="500" preserveAspectRatio="xMidYMid meet" version="1.0"><defs><clipPath id="2d71906555"><path d="M 13.089844 18.21875 L 361.839844 18.21875 L 361.839844 366.96875 L 13.089844 366.96875 Z M 13.089844 18.21875 " clip-rule="nonzero"/></clipPath><clipPath id="002774a577"><path d="M 37.5 73 L 328.5 73 L 328.5 325.929688 L 37.5 325.929688 Z M 37.5 73 " clip-rule="nonzero"/></clipPath></defs><g clip-path="url(#2d71906555)"><path fill="#312bd3" d="M 99.472656 18.21875 L 275.519531 18.21875 C 276.933594 18.21875 278.347656 18.25 279.757812 18.320312 C 281.171875 18.390625 282.578125 18.496094 283.988281 18.632812 C 285.394531 18.773438 286.796875 18.945312 288.195312 19.152344 C 289.59375 19.359375 290.984375 19.601562 292.371094 19.875 C 293.757812 20.152344 295.136719 20.460938 296.507812 20.804688 C 297.878906 21.148438 299.242188 21.527344 300.59375 21.9375 C 301.949219 22.347656 303.289062 22.789062 304.621094 23.265625 C 305.953125 23.742188 307.269531 24.25 308.574219 24.792969 C 309.882812 25.332031 311.175781 25.90625 312.453125 26.511719 C 313.730469 27.113281 314.992188 27.75 316.238281 28.417969 C 317.484375 29.082031 318.714844 29.78125 319.929688 30.507812 C 321.140625 31.234375 322.335938 31.988281 323.511719 32.773438 C 324.683594 33.558594 325.839844 34.375 326.976562 35.214844 C 328.113281 36.058594 329.226562 36.925781 330.320312 37.824219 C 331.410156 38.722656 332.480469 39.644531 333.527344 40.59375 C 334.578125 41.542969 335.601562 42.519531 336.601562 43.515625 C 337.597656 44.515625 338.574219 45.539062 339.523438 46.585938 C 340.472656 47.636719 341.394531 48.707031 342.292969 49.796875 C 343.1875 50.890625 344.058594 52.003906 344.902344 53.140625 C 345.742188 54.277344 346.558594 55.429688 347.34375 56.605469 C 348.128906 57.78125 348.882812 58.976562 349.609375 60.1875 C 350.335938 61.402344 351.035156 62.632812 351.699219 63.878906 C 352.367188 65.125 353.003906 66.386719 353.605469 67.664062 C 354.210938 68.941406 354.785156 70.234375 355.324219 71.539062 C 355.867188 72.847656 356.375 74.164062 356.851562 75.496094 C 357.328125 76.828125 357.769531 78.167969 358.179688 79.523438 C 358.589844 80.875 358.96875 82.238281 359.3125 83.609375 C 359.65625 84.980469 359.964844 86.359375 360.238281 87.746094 C 360.515625 89.132812 360.757812 90.523438 360.964844 91.921875 C 361.171875 93.320312 361.34375 94.722656 361.484375 96.128906 C 361.621094 97.539062 361.726562 98.945312 361.796875 100.359375 C 361.867188 101.769531 361.898438 103.183594 361.898438 104.597656 L 361.898438 280.644531 C 361.898438 282.058594 361.867188 283.472656 361.796875 284.882812 C 361.726562 286.296875 361.621094 287.707031 361.484375 289.113281 C 361.34375 290.519531 361.171875 291.921875 360.964844 293.320312 C 360.757812 294.71875 360.515625 296.109375 360.242188 297.496094 C 359.964844 298.882812 359.65625 300.261719 359.3125 301.632812 C 358.96875 303.003906 358.589844 304.367188 358.179688 305.71875 C 357.769531 307.074219 357.328125 308.414062 356.851562 309.746094 C 356.375 311.078125 355.867188 312.394531 355.324219 313.703125 C 354.785156 315.007812 354.210938 316.300781 353.605469 317.578125 C 353.003906 318.855469 352.367188 320.117188 351.699219 321.363281 C 351.035156 322.613281 350.335938 323.839844 349.609375 325.054688 C 348.882812 326.265625 348.128906 327.460938 347.34375 328.636719 C 346.558594 329.8125 345.742188 330.964844 344.902344 332.101562 C 344.058594 333.238281 343.1875 334.351562 342.292969 335.445312 C 341.394531 336.539062 340.472656 337.605469 339.523438 338.65625 C 338.574219 339.703125 337.597656 340.726562 336.601562 341.726562 C 335.601562 342.726562 334.578125 343.699219 333.527344 344.648438 C 332.480469 345.597656 331.410156 346.519531 330.320312 347.417969 C 329.226562 348.316406 328.113281 349.183594 326.976562 350.027344 C 325.839844 350.867188 324.683594 351.683594 323.511719 352.46875 C 322.335938 353.253906 321.140625 354.007812 319.929688 354.734375 C 318.714844 355.460938 317.484375 356.160156 316.238281 356.824219 C 314.992188 357.492188 313.730469 358.128906 312.453125 358.730469 C 311.175781 359.335938 309.882812 359.910156 308.574219 360.449219 C 307.269531 360.992188 305.953125 361.5 304.621094 361.976562 C 303.289062 362.453125 301.949219 362.894531 300.59375 363.304688 C 299.242188 363.714844 297.878906 364.09375 296.507812 364.4375 C 295.136719 364.78125 293.757812 365.089844 292.371094 365.367188 C 290.984375 365.640625 289.59375 365.882812 288.195312 366.089844 C 286.796875 366.296875 285.394531 366.472656 283.988281 366.609375 C 282.578125 366.75 281.171875 366.851562 279.757812 366.921875 C 278.347656 366.992188 276.933594 367.027344 275.519531 367.027344 L 99.472656 367.027344 C 98.058594 367.027344 96.644531 366.992188 95.234375 366.921875 C 93.820312 366.851562 92.410156 366.75 91.003906 366.609375 C 89.597656 366.472656 88.195312 366.296875 86.796875 366.089844 C 85.398438 365.882812 84.007812 365.640625 82.621094 365.367188 C 81.234375 365.089844 79.855469 364.78125 78.484375 364.4375 C 77.113281 364.09375 75.75 363.714844 74.398438 363.304688 C 73.042969 362.894531 71.703125 362.453125 70.371094 361.976562 C 69.039062 361.5 67.722656 360.992188 66.414062 360.449219 C 65.109375 359.910156 63.816406 359.335938 62.539062 358.730469 C 61.261719 358.128906 60 357.492188 58.753906 356.824219 C 57.503906 356.160156 56.277344 355.460938 55.0625 354.734375 C 53.851562 354.007812 52.65625 353.253906 51.480469 352.46875 C 50.304688 351.683594 49.152344 350.867188 48.015625 350.027344 C 46.878906 349.183594 45.765625 348.316406 44.671875 347.417969 C 43.578125 346.519531 42.507812 345.597656 41.460938 344.648438 C 40.414062 343.699219 39.390625 342.726562 38.390625 341.726562 C 37.390625 340.726562 36.417969 339.703125 35.46875 338.65625 C 34.519531 337.605469 33.59375 336.539062 32.699219 335.445312 C 31.800781 334.351562 30.933594 333.238281 30.089844 332.101562 C 29.25 330.964844 28.433594 329.8125 27.648438 328.636719 C 26.863281 327.460938 26.109375 326.265625 25.382812 325.054688 C 24.652344 323.839844 23.957031 322.613281 23.292969 321.363281 C 22.625 320.117188 21.988281 318.855469 21.386719 317.578125 C 20.78125 316.300781 20.207031 315.007812 19.667969 313.703125 C 19.125 312.394531 18.617188 311.078125 18.140625 309.746094 C 17.664062 308.414062 17.222656 307.074219 16.8125 305.71875 C 16.402344 304.367188 16.023438 303.003906 15.679688 301.632812 C 15.335938 300.261719 15.027344 298.882812 14.75 297.496094 C 14.476562 296.109375 14.234375 294.71875 14.027344 293.320312 C 13.820312 291.921875 13.644531 290.519531 13.507812 289.113281 C 13.367188 287.707031 13.265625 286.296875 13.195312 284.882812 C 13.125 283.472656 13.089844 282.058594 13.089844 280.644531 L 13.089844 104.597656 C 13.089844 103.183594 13.125 101.769531 13.195312 100.359375 C 13.265625 98.945312 13.367188 97.539062 13.507812 96.128906 C 13.644531 94.722656 13.820312 93.320312 14.027344 91.921875 C 14.234375 90.523438 14.476562 89.132812 14.75 87.746094 C 15.027344 86.359375 15.335938 84.980469 15.679688 83.609375 C 16.023438 82.238281 16.402344 80.875 16.8125 79.523438 C 17.222656 78.167969 17.664062 76.828125 18.140625 75.496094 C 18.617188 74.164062 19.125 72.847656 19.667969 71.539062 C 20.207031 70.234375 20.78125 68.941406 21.386719 67.664062 C 21.988281 66.386719 22.625 65.125 23.292969 63.878906 C 23.957031 62.632812 24.652344 61.402344 25.382812 60.1875 C 26.109375 58.976562 26.863281 57.78125 27.648438 56.605469 C 28.433594 55.429688 29.25 54.277344 30.089844 53.140625 C 30.933594 52.003906 31.800781 50.890625 32.699219 49.796875 C 33.59375 48.707031 34.519531 47.636719 35.46875 46.585938 C 36.417969 45.539062 37.390625 44.515625 38.390625 43.515625 C 39.390625 42.515625 40.414062 41.542969 41.460938 40.59375 C 42.507812 39.644531 43.578125 38.722656 44.671875 37.824219 C 45.765625 36.925781 46.878906 36.058594 48.015625 35.214844 C 49.152344 34.375 50.304688 33.558594 51.480469 32.773438 C 52.65625 31.988281 53.851562 31.234375 55.0625 30.507812 C 56.277344 29.78125 57.503906 29.082031 58.753906 28.417969 C 60 27.75 61.261719 27.113281 62.539062 26.511719 C 63.816406 25.90625 65.109375 25.332031 66.414062 24.792969 C 67.722656 24.25 69.039062 23.742188 70.371094 23.265625 C 71.703125 22.789062 73.042969 22.347656 74.398438 21.9375 C 75.75 21.527344 77.113281 21.148438 78.484375 20.804688 C 79.855469 20.460938 81.234375 20.152344 82.621094 19.875 C 84.007812 19.601562 85.398438 19.359375 86.796875 19.152344 C 88.195312 18.945312 89.597656 18.773438 91.003906 18.632812 C 92.410156 18.496094 93.820312 18.390625 95.234375 18.320312 C 96.644531 18.25 98.058594 18.21875 99.472656 18.21875 Z M 99.472656 18.21875 " fill-opacity="1" fill-rule="nonzero"/></g><g clip-path="url(#002774a577)"><path fill="#ffffff" d="M 298.460938 158.78125 C 301.515625 196.460938 273.316406 232.601562 236.421875 239.226562 L 224.085938 223.082031 C 225.246094 221.621094 226.214844 219.988281 226.824219 218.132812 L 240.765625 175.8125 C 245.445312 161.585938 238.132812 146.3125 224.113281 141.042969 L 183.429688 125.757812 C 205.355469 118.347656 268.871094 98.238281 313.734375 97.742188 C 306.515625 108.367188 296.066406 129.234375 298.460938 158.78125 Z M 273.980469 310.34375 C 273.078125 313.035156 270.996094 315.019531 268.253906 315.773438 C 265.507812 316.550781 262.703125 315.914062 260.613281 314.117188 L 181.597656 243.679688 C 180.605469 242.785156 179.261719 242.296875 177.972656 242.46875 L 148.09375 245.046875 C 146.222656 245.207031 144.609375 246.445312 143.96875 248.210938 C 143.328125 249.980469 143.777344 251.960938 145.109375 253.285156 L 180.03125 287.917969 C 181.894531 289.773438 182.746094 292.429688 182.296875 295.019531 L 181.925781 297.171875 C 181.441406 299.964844 179.65625 302.183594 177.035156 303.257812 C 174.402344 304.324219 171.585938 303.992188 169.285156 302.339844 L 108.359375 258.636719 C 102.421875 254.371094 99.746094 246.777344 101.703125 239.734375 C 103.167969 234.457031 107.085938 230.117188 112.183594 228.125 L 148.074219 214.085938 C 149.445312 213.550781 150.496094 212.421875 150.933594 211.019531 C 151.367188 209.613281 151.136719 208.089844 150.3125 206.871094 L 121.621094 164.679688 C 121.40625 164.363281 121.152344 164.070312 120.871094 163.816406 L 50.527344 100.175781 C 48.394531 98.238281 47.234375 95.589844 47.269531 92.710938 C 47.300781 89.832031 48.515625 87.207031 50.695312 85.328125 C 53.996094 82.46875 58.707031 82.105469 62.414062 84.40625 L 108.152344 112.855469 L 108.152344 119.703125 C 108.152344 139.246094 124.050781 155.148438 143.59375 155.148438 C 158.289062 155.148438 170.910156 146.15625 176.277344 133.390625 L 220.71875 150.089844 C 229.867188 153.53125 234.644531 163.5 231.585938 172.792969 L 217.648438 215.113281 C 216.5625 218.414062 213.046875 220.34375 209.679688 219.511719 C 206.597656 218.746094 204.464844 215.882812 204.613281 212.703125 L 206.273438 177.339844 C 206.375 175.183594 205.03125 173.222656 202.992188 172.539062 L 174.570312 162.960938 C 172.0625 162.113281 169.308594 163.476562 168.453125 165.996094 C 167.597656 168.523438 168.960938 171.261719 171.488281 172.113281 L 196.453125 180.53125 L 194.960938 212.25 C 194.59375 220.011719 199.804688 227.007812 207.347656 228.886719 C 208.652344 229.207031 209.960938 229.363281 211.25 229.363281 C 212.925781 229.363281 214.566406 229.082031 216.132812 228.589844 L 272.683594 302.589844 C 274.375 304.804688 274.855469 307.707031 273.980469 310.34375 Z M 117.8125 110.171875 C 117.8125 95.957031 129.378906 84.390625 143.59375 84.390625 C 157.8125 84.390625 169.378906 95.957031 169.378906 110.171875 L 169.378906 119.703125 C 169.378906 133.921875 157.8125 145.484375 143.59375 145.484375 C 129.378906 145.484375 117.8125 133.921875 117.8125 119.703125 Z M 328.03125 91.414062 C 327.355469 89.648438 325.710938 88.433594 323.820312 88.316406 C 275.738281 85.410156 201.617188 109.289062 179.039062 117.03125 L 179.039062 110.171875 C 179.039062 90.628906 163.136719 74.726562 143.59375 74.726562 C 126.839844 74.726562 112.835938 86.453125 109.164062 102.105469 L 67.515625 76.199219 C 60.195312 71.652344 50.894531 72.382812 44.371094 78.015625 C 40.140625 81.6875 37.671875 87.003906 37.605469 92.597656 C 37.546875 98.203125 39.890625 103.578125 44.042969 107.335938 L 113.957031 170.589844 L 138.917969 207.296875 L 108.667969 219.128906 C 100.75 222.222656 94.667969 228.960938 92.394531 237.152344 C 89.355469 248.078125 93.507812 259.867188 102.730469 266.488281 L 163.652344 310.191406 C 168.636719 313.78125 175.015625 314.523438 180.691406 312.195312 C 186.371094 309.878906 190.390625 304.875 191.445312 298.824219 L 191.816406 296.667969 C 192.800781 290.964844 190.9375 285.125 186.832031 281.0625 L 159.316406 253.769531 L 176.726562 252.273438 L 254.253906 321.382812 C 257.570312 324.234375 261.746094 325.742188 266.003906 325.742188 C 267.613281 325.742188 269.234375 325.527344 270.828125 325.089844 C 276.636719 323.480469 281.238281 319.113281 283.148438 313.394531 C 285.03125 307.714844 283.996094 301.488281 280.363281 296.726562 L 242.964844 247.792969 C 282.179688 238.144531 311.398438 198.832031 308.09375 158 C 304.953125 119.277344 326.730469 96.765625 326.953125 96.542969 C 328.289062 95.191406 328.710938 93.191406 328.03125 91.414062 " fill-opacity="1" fill-rule="nonzero"/></g></svg>