<svg xmlns="http://www.w3.org/2000/svg" xmlns:xlink="http://www.w3.org/1999/xlink" width="500" zoomAndPan="magnify" viewBox="0 0 375 374.999991" height="500" preserveAspectRatio="xMidYMid meet" version="1.0"><defs><clipPath id="42a71f279e"><path d="M 114.277344 164 L 273.277344 164 L 273.277344 301.996094 L 114.277344 301.996094 Z M 114.277344 164 " clip-rule="nonzero"/></clipPath><clipPath id="6dc924eb1d"><path d="M 77.710938 22.09375 L 310.210938 22.09375 L 310.210938 372.34375 L 77.710938 372.34375 Z M 77.710938 22.09375 " clip-rule="nonzero"/></clipPath></defs><rect x="-37.5" width="450" fill="#ffffff" y="-37.499999" height="449.999989" fill-opacity="1"/><rect x="-37.5" width="450" fill="#ff7216" y="-37.499999" height="449.999989" fill-opacity="1"/><g clip-path="url(#42a71f279e)"><path fill="#ffffff" d="M 257.0625 210.90625 C 258.734375 231.523438 243.304688 251.296875 223.117188 254.921875 L 216.367188 246.089844 C 217.003906 245.289062 217.53125 244.394531 217.867188 243.378906 L 225.492188 220.222656 C 228.054688 212.4375 224.054688 204.082031 216.382812 201.199219 L 194.121094 192.835938 C 206.117188 188.78125 240.871094 177.777344 265.417969 177.507812 C 261.46875 183.320312 255.753906 194.738281 257.0625 210.90625 Z M 243.667969 293.832031 C 243.175781 295.304688 242.035156 296.390625 240.535156 296.804688 C 239.03125 297.230469 237.496094 296.882812 236.355469 295.898438 L 193.121094 257.359375 C 192.578125 256.871094 191.839844 256.601562 191.136719 256.695312 L 174.789062 258.105469 C 173.761719 258.195312 172.882812 258.871094 172.53125 259.839844 C 172.179688 260.804688 172.425781 261.890625 173.152344 262.613281 L 192.261719 281.5625 C 193.28125 282.578125 193.75 284.03125 193.503906 285.449219 L 193.296875 286.625 C 193.035156 288.15625 192.058594 289.367188 190.621094 289.957031 C 189.179688 290.539062 187.640625 290.359375 186.382812 289.457031 L 153.046875 265.542969 C 149.796875 263.207031 148.332031 259.054688 149.40625 255.199219 C 150.207031 252.3125 152.347656 249.9375 155.140625 248.847656 L 174.777344 241.167969 C 175.527344 240.871094 176.101562 240.257812 176.339844 239.488281 C 176.578125 238.71875 176.453125 237.882812 176 237.21875 L 160.304688 214.132812 C 160.1875 213.957031 160.046875 213.800781 159.890625 213.660156 L 121.402344 178.839844 C 120.234375 177.777344 119.601562 176.328125 119.621094 174.753906 C 119.636719 173.175781 120.304688 171.742188 121.492188 170.714844 C 123.300781 169.148438 125.878906 168.949219 127.90625 170.210938 L 152.933594 185.777344 L 152.933594 189.523438 C 152.933594 200.214844 161.632812 208.917969 172.324219 208.917969 C 180.363281 208.917969 187.273438 203.996094 190.207031 197.011719 L 214.523438 206.148438 C 219.53125 208.03125 222.144531 213.484375 220.472656 218.570312 L 212.84375 241.726562 C 212.25 243.535156 210.328125 244.589844 208.484375 244.132812 C 206.796875 243.714844 205.628906 242.148438 205.714844 240.410156 L 206.621094 221.058594 C 206.675781 219.878906 205.941406 218.808594 204.824219 218.433594 L 189.273438 213.191406 C 187.902344 212.726562 186.394531 213.472656 185.925781 214.851562 C 185.460938 216.234375 186.203125 217.734375 187.585938 218.199219 L 201.246094 222.804688 L 200.433594 240.160156 C 200.230469 244.410156 203.082031 248.238281 207.210938 249.265625 C 207.921875 249.441406 208.640625 249.523438 209.34375 249.523438 C 210.261719 249.523438 211.15625 249.371094 212.015625 249.101562 L 242.957031 289.589844 C 243.882812 290.804688 244.148438 292.390625 243.667969 293.832031 Z M 158.21875 184.308594 C 158.21875 176.527344 164.546875 170.199219 172.324219 170.199219 C 180.105469 170.199219 186.433594 176.527344 186.433594 184.308594 L 186.433594 189.523438 C 186.433594 197.300781 180.105469 203.628906 172.324219 203.628906 C 164.546875 203.628906 158.21875 197.300781 158.21875 189.523438 Z M 273.242188 174.046875 C 272.875 173.078125 271.972656 172.414062 270.9375 172.351562 C 244.628906 170.757812 204.074219 183.824219 191.71875 188.058594 L 191.71875 184.308594 C 191.71875 173.613281 183.019531 164.914062 172.324219 164.914062 C 163.15625 164.914062 155.496094 171.328125 153.488281 179.894531 L 130.699219 165.71875 C 126.691406 163.230469 121.601562 163.628906 118.035156 166.710938 C 115.71875 168.722656 114.367188 171.628906 114.332031 174.691406 C 114.300781 177.761719 115.582031 180.699219 117.855469 182.757812 L 156.109375 217.367188 L 169.765625 237.453125 L 153.214844 243.925781 C 148.882812 245.617188 145.554688 249.304688 144.308594 253.785156 C 142.648438 259.765625 144.921875 266.214844 149.964844 269.835938 L 183.300781 293.75 C 186.027344 295.714844 189.515625 296.121094 192.621094 294.847656 C 195.730469 293.578125 197.929688 290.84375 198.507812 287.53125 L 198.710938 286.351562 C 199.25 283.230469 198.230469 280.035156 195.984375 277.8125 L 180.925781 262.878906 L 190.453125 262.0625 L 232.875 299.875 C 234.6875 301.433594 236.972656 302.261719 239.304688 302.261719 C 240.183594 302.261719 241.070312 302.140625 241.945312 301.902344 C 245.121094 301.019531 247.640625 298.632812 248.683594 295.503906 C 249.714844 292.398438 249.148438 288.988281 247.160156 286.382812 L 226.699219 259.609375 C 248.15625 254.328125 264.140625 232.820312 262.332031 210.476562 C 260.613281 189.289062 272.53125 176.972656 272.652344 176.851562 C 273.382812 176.113281 273.613281 175.015625 273.242188 174.046875 " fill-opacity="1" fill-rule="nonzero"/></g><g clip-path="url(#6dc924eb1d)"><path fill="#ffffff" d="M 193.933594 32.351562 C 177.742188 56.523438 83.355469 199.914062 83.355469 256.011719 C 83.355469 316.980469 132.960938 366.585938 193.933594 366.585938 C 254.90625 366.585938 304.507812 316.980469 304.507812 256.011719 C 304.507812 199.910156 210.121094 56.523438 193.933594 32.351562 Z M 193.933594 372.253906 C 129.839844 372.253906 77.6875 320.105469 77.6875 256.011719 C 77.6875 193.222656 186.945312 32.492188 191.59375 25.683594 L 193.933594 22.25 L 196.273438 25.683594 C 200.925781 32.492188 310.175781 193.222656 310.175781 256.011719 C 310.175781 320.105469 258.03125 372.253906 193.933594 372.253906 " fill-opacity="1" fill-rule="nonzero"/></g></svg>