<?xml version="1.0" encoding="UTF-8"?>
<svg id="Layer_1" data-name="Layer 1" xmlns="http://www.w3.org/2000/svg" viewBox="0 0 296.94 284.12">
  <defs>
    <style>
      .cls-1 {
        fill: #fff;
        stroke-width: 0px;
      }
    </style>
  </defs>
  <g id="n3Ehm2">
    <g>
      <path class="cls-1" d="M148.08,284.06c-42.16,0-84.32,0-126.49,0-13.43,0-21.56-7.89-21.57-21.22-.04-47.66-.04-95.32.04-142.98.02-13.73,8.12-21.52,21.98-21.52,8.71,0,17.41,0,26.12,0,11.03,0,19.95-4.32,26.79-13,5.1-6.48,10.26-12.91,15.41-19.35,6.1-7.64,14.08-11.56,23.83-11.59,22.91-.06,45.83-.09,68.74.01,9.73.04,17.73,3.96,23.81,11.66,5.26,6.65,10.5,13.31,15.83,19.9,6.42,7.94,14.72,12.19,25.01,12.26,9.39.07,18.79.03,28.18.1,12.91.1,21.12,8.13,21.14,20.98.06,47.89.05,95.78,0,143.67-.02,13.36-8.14,21.15-21.64,21.14-42.39-.01-84.78,0-127.17,0,0-.02,0-.03,0-.05ZM79,188.65c.65,39.37,31.93,69.63,71.31,68.98,37.68-.62,68.38-32.65,67.65-70.58-.74-38.4-32.47-69.14-70.62-68.42-38.08.72-68.95,32.35-68.33,70.02ZM148.14,91.53c14.66,0,29.31,0,43.97,0,4.43,0,7.49-1.52,5.73-6.59-3.4-9.81-12.55-16.05-23.21-16.07-16.26-.04-32.54.49-48.77-.2-11.4-.48-19.6,3.37-24.76,13.43-1.07,2.08-2.63,5.48-1.78,6.59,1.32,1.72,4.51,2.7,6.93,2.75,13.96.24,27.93.12,41.9.1ZM255.15,143.24c1.83,0,3.67-.03,5.5,0,15.95.28,15.57,1.08,15.39-16.73-.05-4.72-2.17-7.21-7.13-7.13-6.18.1-12.37,0-18.56,0-16.39,0-16.28,0-15.7,16.36.18,5.12,2.16,7.68,7.44,7.51,4.35-.13,8.7-.03,13.06-.02ZM35.31,144.41c5.7-.07,10.29-4.88,10.17-10.66-.11-5.5-4.53-9.9-10.05-10.01-5.73-.11-10.55,4.55-10.61,10.24-.05,5.55,4.92,10.49,10.49,10.43Z"/>
      <path class="cls-1" d="M22.07,90.79c-.86-12.81-.48-13.24,11.31-13.24,1.37,0,2.74-.01,4.11-.01,11.3,0,12.31,1.22,10.74,13.25h-26.16Z"/>
      <path class="cls-1" d="M151.06,17.12c0,3.86.24,7.74-.12,11.57-.13,1.37-1.69,2.61-2.6,3.91-.81-1.16-2.29-2.31-2.32-3.49-.2-8.62-.2-17.26.02-25.88.03-1.1,1.68-2.15,2.58-3.23.81,1.16,2.25,2.29,2.32,3.5.28,4.52.11,9.08.11,13.62Z"/>
      <path class="cls-1" d="M172.25,33.94c-.57-1.44-1.8-2.99-1.43-3.85,3.71-8.61,7.65-17.13,11.69-25.59.3-.64,2.13-1.13,2.87-.81.74.32,1.63,2.03,1.35,2.65-3.86,8.79-7.9,17.5-11.96,26.2-.23.48-1.12.65-2.52,1.39Z"/>
      <path class="cls-1" d="M125.15,35.25c-2.31-2.45-3.49-3.23-4-4.33-3.51-7.45-7-14.93-10.2-22.52-.55-1.3.29-3.19.49-4.81,1.34.85,3.33,1.38,3.92,2.6,3.63,7.4,7.04,14.91,10.25,22.49.56,1.33-.17,3.21-.46,6.57Z"/>
      <path class="cls-1" d="M148.53,139.08c27.19-.03,49.16,22.1,49.17,49.53.01,26.74-22.18,48.68-49.27,48.73-26.9.04-49.09-22-49.19-48.85-.1-27.25,21.97-49.38,49.29-49.41Z"/>
    </g>
  </g>
</svg>