<svg xmlns="http://www.w3.org/2000/svg" xmlns:xlink="http://www.w3.org/1999/xlink" width="500" zoomAndPan="magnify" viewBox="0 0 375 374.999991" height="500" preserveAspectRatio="xMidYMid meet" version="1.0"><defs><clipPath id="0ee9607a4b"><path d="M 13.089844 18.21875 L 361.839844 18.21875 L 361.839844 366.96875 L 13.089844 366.96875 Z M 13.089844 18.21875 " clip-rule="nonzero"/></clipPath><clipPath id="a93588a8cb"><path d="M 87 182 L 266 182 L 266 324.902344 L 87 324.902344 Z M 87 182 " clip-rule="nonzero"/></clipPath><clipPath id="1b11c695d0"><path d="M 77 50.402344 L 218 50.402344 L 218 216 L 77 216 Z M 77 50.402344 " clip-rule="nonzero"/></clipPath><clipPath id="ca16d5b79d"><path d="M 196 122 L 328.621094 122 L 328.621094 313 L 196 313 Z M 196 122 " clip-rule="nonzero"/></clipPath><clipPath id="8492d0d133"><path d="M 46.621094 119 L 208 119 L 208 269 L 46.621094 269 Z M 46.621094 119 " clip-rule="nonzero"/></clipPath></defs><g clip-path="url(#0ee9607a4b)"><path fill="#2b23c5" d="M 99.472656 18.21875 L 275.519531 18.21875 C 276.933594 18.21875 278.347656 18.25 279.757812 18.320312 C 281.171875 18.390625 282.578125 18.496094 283.988281 18.632812 C 285.394531 18.773438 286.796875 18.945312 288.195312 19.152344 C 289.59375 19.359375 290.984375 19.601562 292.371094 19.875 C 293.757812 20.152344 295.136719 20.460938 296.507812 20.804688 C 297.878906 21.148438 299.242188 21.527344 300.59375 21.9375 C 301.949219 22.347656 303.289062 22.789062 304.621094 23.265625 C 305.953125 23.742188 307.269531 24.25 308.574219 24.792969 C 309.882812 25.332031 311.175781 25.90625 312.453125 26.511719 C 313.730469 27.113281 314.992188 27.75 316.238281 28.417969 C 317.484375 29.082031 318.714844 29.78125 319.929688 30.507812 C 321.140625 31.234375 322.335938 31.988281 323.511719 32.773438 C 324.683594 33.558594 325.839844 34.375 326.976562 35.214844 C 328.113281 36.058594 329.226562 36.925781 330.320312 37.824219 C 331.410156 38.722656 332.480469 39.644531 333.527344 40.59375 C 334.578125 41.542969 335.601562 42.519531 336.601562 43.515625 C 337.597656 44.515625 338.574219 45.539062 339.523438 46.585938 C 340.472656 47.636719 341.394531 48.707031 342.292969 49.796875 C 343.1875 50.890625 344.058594 52.003906 344.902344 53.140625 C 345.742188 54.277344 346.558594 55.429688 347.34375 56.605469 C 348.128906 57.78125 348.882812 58.976562 349.609375 60.1875 C 350.335938 61.402344 351.035156 62.632812 351.699219 63.878906 C 352.367188 65.125 353.003906 66.386719 353.605469 67.664062 C 354.210938 68.941406 354.785156 70.234375 355.324219 71.539062 C 355.867188 72.847656 356.375 74.164062 356.851562 75.496094 C 357.328125 76.828125 357.769531 78.167969 358.179688 79.523438 C 358.589844 80.875 358.96875 82.238281 359.3125 83.609375 C 359.65625 84.980469 359.964844 86.359375 360.238281 87.746094 C 360.515625 89.132812 360.757812 90.523438 360.964844 91.921875 C 361.171875 93.320312 361.34375 94.722656 361.484375 96.128906 C 361.621094 97.539062 361.726562 98.945312 361.796875 100.359375 C 361.867188 101.769531 361.898438 103.183594 361.898438 104.597656 L 361.898438 280.644531 C 361.898438 282.058594 361.867188 283.472656 361.796875 284.882812 C 361.726562 286.296875 361.621094 287.707031 361.484375 289.113281 C 361.34375 290.519531 361.171875 291.921875 360.964844 293.320312 C 360.757812 294.71875 360.515625 296.109375 360.242188 297.496094 C 359.964844 298.882812 359.65625 300.261719 359.3125 301.632812 C 358.96875 303.003906 358.589844 304.367188 358.179688 305.71875 C 357.769531 307.074219 357.328125 308.414062 356.851562 309.746094 C 356.375 311.078125 355.867188 312.394531 355.324219 313.703125 C 354.785156 315.007812 354.210938 316.300781 353.605469 317.578125 C 353.003906 318.855469 352.367188 320.117188 351.699219 321.363281 C 351.035156 322.613281 350.335938 323.839844 349.609375 325.054688 C 348.882812 326.265625 348.128906 327.460938 347.34375 328.636719 C 346.558594 329.8125 345.742188 330.964844 344.902344 332.101562 C 344.058594 333.238281 343.1875 334.351562 342.292969 335.445312 C 341.394531 336.539062 340.472656 337.605469 339.523438 338.65625 C 338.574219 339.703125 337.597656 340.726562 336.601562 341.726562 C 335.601562 342.726562 334.578125 343.699219 333.527344 344.648438 C 332.480469 345.597656 331.410156 346.519531 330.320312 347.417969 C 329.226562 348.316406 328.113281 349.183594 326.976562 350.027344 C 325.839844 350.867188 324.683594 351.683594 323.511719 352.46875 C 322.335938 353.253906 321.140625 354.007812 319.929688 354.734375 C 318.714844 355.460938 317.484375 356.160156 316.238281 356.824219 C 314.992188 357.492188 313.730469 358.128906 312.453125 358.730469 C 311.175781 359.335938 309.882812 359.910156 308.574219 360.449219 C 307.269531 360.992188 305.953125 361.5 304.621094 361.976562 C 303.289062 362.453125 301.949219 362.894531 300.59375 363.304688 C 299.242188 363.714844 297.878906 364.09375 296.507812 364.4375 C 295.136719 364.78125 293.757812 365.089844 292.371094 365.367188 C 290.984375 365.640625 289.59375 365.882812 288.195312 366.089844 C 286.796875 366.296875 285.394531 366.472656 283.988281 366.609375 C 282.578125 366.75 281.171875 366.851562 279.757812 366.921875 C 278.347656 366.992188 276.933594 367.027344 275.519531 367.027344 L 99.472656 367.027344 C 98.058594 367.027344 96.644531 366.992188 95.234375 366.921875 C 93.820312 366.851562 92.410156 366.75 91.003906 366.609375 C 89.597656 366.472656 88.195312 366.296875 86.796875 366.089844 C 85.398438 365.882812 84.007812 365.640625 82.621094 365.367188 C 81.234375 365.089844 79.855469 364.78125 78.484375 364.4375 C 77.113281 364.09375 75.75 363.714844 74.398438 363.304688 C 73.042969 362.894531 71.703125 362.453125 70.371094 361.976562 C 69.039062 361.5 67.722656 360.992188 66.414062 360.449219 C 65.109375 359.910156 63.816406 359.335938 62.539062 358.730469 C 61.261719 358.128906 60 357.492188 58.753906 356.824219 C 57.503906 356.160156 56.277344 355.460938 55.0625 354.734375 C 53.851562 354.007812 52.65625 353.253906 51.480469 352.46875 C 50.304688 351.683594 49.152344 350.867188 48.015625 350.027344 C 46.878906 349.183594 45.765625 348.316406 44.671875 347.417969 C 43.578125 346.519531 42.507812 345.597656 41.460938 344.648438 C 40.414062 343.699219 39.390625 342.726562 38.390625 341.726562 C 37.390625 340.726562 36.417969 339.703125 35.46875 338.65625 C 34.519531 337.605469 33.59375 336.539062 32.699219 335.445312 C 31.800781 334.351562 30.933594 333.238281 30.089844 332.101562 C 29.25 330.964844 28.433594 329.8125 27.648438 328.636719 C 26.863281 327.460938 26.109375 326.265625 25.382812 325.054688 C 24.652344 323.839844 23.957031 322.613281 23.292969 321.363281 C 22.625 320.117188 21.988281 318.855469 21.386719 317.578125 C 20.78125 316.300781 20.207031 315.007812 19.667969 313.703125 C 19.125 312.394531 18.617188 311.078125 18.140625 309.746094 C 17.664062 308.414062 17.222656 307.074219 16.8125 305.71875 C 16.402344 304.367188 16.023438 303.003906 15.679688 301.632812 C 15.335938 300.261719 15.027344 298.882812 14.75 297.496094 C 14.476562 296.109375 14.234375 294.71875 14.027344 293.320312 C 13.820312 291.921875 13.644531 290.519531 13.507812 289.113281 C 13.367188 287.707031 13.265625 286.296875 13.195312 284.882812 C 13.125 283.472656 13.089844 282.058594 13.089844 280.644531 L 13.089844 104.597656 C 13.089844 103.183594 13.125 101.769531 13.195312 100.359375 C 13.265625 98.945312 13.367188 97.539062 13.507812 96.128906 C 13.644531 94.722656 13.820312 93.320312 14.027344 91.921875 C 14.234375 90.523438 14.476562 89.132812 14.75 87.746094 C 15.027344 86.359375 15.335938 84.980469 15.679688 83.609375 C 16.023438 82.238281 16.402344 80.875 16.8125 79.523438 C 17.222656 78.167969 17.664062 76.828125 18.140625 75.496094 C 18.617188 74.164062 19.125 72.847656 19.667969 71.539062 C 20.207031 70.234375 20.78125 68.941406 21.386719 67.664062 C 21.988281 66.386719 22.625 65.125 23.292969 63.878906 C 23.957031 62.632812 24.652344 61.402344 25.382812 60.1875 C 26.109375 58.976562 26.863281 57.78125 27.648438 56.605469 C 28.433594 55.429688 29.25 54.277344 30.089844 53.140625 C 30.933594 52.003906 31.800781 50.890625 32.699219 49.796875 C 33.59375 48.707031 34.519531 47.636719 35.46875 46.585938 C 36.417969 45.539062 37.390625 44.515625 38.390625 43.515625 C 39.390625 42.515625 40.414062 41.542969 41.460938 40.59375 C 42.507812 39.644531 43.578125 38.722656 44.671875 37.824219 C 45.765625 36.925781 46.878906 36.058594 48.015625 35.214844 C 49.152344 34.375 50.304688 33.558594 51.480469 32.773438 C 52.65625 31.988281 53.851562 31.234375 55.0625 30.507812 C 56.277344 29.78125 57.503906 29.082031 58.753906 28.417969 C 60 27.75 61.261719 27.113281 62.539062 26.511719 C 63.816406 25.90625 65.109375 25.332031 66.414062 24.792969 C 67.722656 24.25 69.039062 23.742188 70.371094 23.265625 C 71.703125 22.789062 73.042969 22.347656 74.398438 21.9375 C 75.75 21.527344 77.113281 21.148438 78.484375 20.804688 C 79.855469 20.460938 81.234375 20.152344 82.621094 19.875 C 84.007812 19.601562 85.398438 19.359375 86.796875 19.152344 C 88.195312 18.945312 89.597656 18.773438 91.003906 18.632812 C 92.410156 18.496094 93.820312 18.390625 95.234375 18.320312 C 96.644531 18.25 98.058594 18.21875 99.472656 18.21875 Z M 99.472656 18.21875 " fill-opacity="1" fill-rule="nonzero"/></g><g clip-path="url(#a93588a8cb)"><path fill="#ffffff" d="M 88.738281 275.777344 C 119.949219 275.777344 151.179688 275.351562 182.378906 276.011719 C 193.085938 276.238281 198.183594 272.996094 201.425781 262.417969 C 209.464844 236.214844 218.941406 210.453125 228.636719 182.199219 C 241.253906 191.117188 252.839844 198.828125 263.734375 207.410156 C 265.804688 209.035156 266.441406 214.542969 265.523438 217.585938 C 255.363281 251.285156 244.933594 284.90625 233.992188 318.363281 C 233.054688 321.222656 228.023438 324.503906 224.835938 324.570312 C 199.953125 325.082031 175.050781 324.902344 150.15625 324.757812 C 147.707031 324.75 144.738281 324.257812 142.882812 322.847656 C 124.207031 308.648438 105.695312 294.214844 87.148438 279.84375 C 87.679688 278.492188 88.210938 277.136719 88.738281 275.792969 Z M 88.738281 275.777344 " fill-opacity="1" fill-rule="nonzero"/></g><g clip-path="url(#1b11c695d0)"><path fill="#ffffff" d="M 217.316406 54.042969 C 196.101562 69.785156 174.917969 85.5625 153.664062 101.257812 C 138.394531 112.539062 133.554688 127.160156 139.148438 145.113281 C 146.230469 167.914062 153.242188 190.730469 160.996094 215.875 C 144.71875 215.875 130.742188 216.273438 116.820312 215.523438 C 114.171875 215.382812 110.472656 211.136719 109.441406 208.050781 C 98.566406 175.5 87.886719 142.882812 77.898438 110.046875 C 76.8125 106.46875 79.074219 99.761719 82.0625 97.40625 C 100.921875 82.527344 120.335938 68.355469 139.800781 54.261719 C 142.714844 52.152344 146.808594 50.667969 150.382812 50.609375 C 172.230469 50.277344 194.089844 50.449219 215.9375 50.449219 C 216.398438 51.648438 216.863281 52.851562 217.324219 54.054688 Z M 217.316406 54.042969 " fill-opacity="1" fill-rule="nonzero"/></g><g clip-path="url(#ca16d5b79d)"><path fill="#ffffff" d="M 196.234375 147.054688 C 208.292969 138.472656 218.460938 130.574219 229.367188 123.914062 C 232.335938 122.097656 238.671875 122.371094 241.585938 124.398438 C 269.4375 143.78125 297.035156 163.53125 324.226562 183.824219 C 327.226562 186.058594 329.304688 192.898438 328.273438 196.605469 C 321.671875 220.171875 314.136719 243.480469 306.738281 266.816406 C 305.992188 269.171875 304.695312 271.859375 302.8125 273.257812 C 284.257812 287.023438 265.53125 300.542969 244.394531 312.574219 C 245.652344 307.902344 246.730469 303.171875 248.207031 298.566406 C 256.339844 273.203125 263.972656 247.640625 273.058594 222.621094 C 277.203125 211.203125 274.6875 204.703125 264.992188 198.050781 C 244.820312 184.203125 225.375 169.292969 205.664062 154.773438 C 202.960938 152.777344 200.445312 150.515625 196.246094 147.054688 Z M 196.234375 147.054688 " fill-opacity="1" fill-rule="nonzero"/></g><path fill="#ffffff" d="M 323.300781 173.078125 C 297.953125 154.828125 272.226562 137.0625 247.457031 118.070312 C 238.40625 111.132812 232.402344 110.546875 223.238281 117.757812 C 201.34375 134.964844 178.511719 150.960938 154.089844 168.878906 C 149.464844 154.5 144.859375 141.738281 141.523438 128.652344 C 140.785156 125.75 143.574219 120.472656 146.328125 118.390625 C 172.683594 98.4375 199.175781 78.640625 226.214844 59.632812 C 229.867188 57.070312 238.140625 56.949219 241.898438 59.378906 C 262.0625 72.441406 281.507812 86.625 301.09375 100.566406 C 303.109375 101.996094 305.246094 104.113281 305.972656 106.355469 C 313.019531 127.820312 319.773438 149.390625 326.609375 170.921875 C 325.503906 171.640625 324.40625 172.351562 323.300781 173.070312 Z M 323.300781 173.078125 " fill-opacity="1" fill-rule="nonzero"/><g clip-path="url(#8492d0d133)"><path fill="#ffffff" d="M 207.328125 223.339844 C 202.222656 238.105469 198.324219 250.761719 193.285156 262.949219 C 192.09375 265.832031 187.082031 268.871094 183.808594 268.878906 C 149.921875 269.019531 116.015625 268.851562 82.136719 267.886719 C 78.097656 267.773438 72.054688 263.230469 70.617188 259.363281 C 62.550781 237.652344 55.589844 215.535156 48.324219 193.53125 C 47.53125 191.128906 46.226562 188.242188 46.898438 186.125 C 53.933594 163.789062 61.332031 141.566406 68.621094 119.308594 C 69.71875 119.375 70.824219 119.449219 71.921875 119.515625 C 81.296875 147.886719 90.574219 176.292969 100.078125 204.628906 C 107.304688 226.167969 101.78125 223.132812 126.34375 223.292969 C 152.464844 223.472656 178.585938 223.328125 207.339844 223.328125 Z M 207.328125 223.339844 " fill-opacity="1" fill-rule="nonzero"/></g></svg>