<svg xmlns="http://www.w3.org/2000/svg" xmlns:xlink="http://www.w3.org/1999/xlink" width="511" zoomAndPan="magnify" viewBox="0 0 383.25 85.499998" height="114" preserveAspectRatio="xMidYMid meet" version="1.0"><defs><g/></defs><path stroke-linecap="butt" transform="matrix(0.112322, 0, 0, 0.112322, 162.991854, 26.116609)" fill="none" stroke-linejoin="miter" d="M 450.264328 6.682386 C 472.000124 6.682386 491.475397 11.446872 508.65537 21.0454 C 525.939675 30.643927 539.468034 43.859291 549.275225 60.761046 C 559.117193 77.628023 564.020789 95.642651 564.020789 114.804928 C 564.020789 141.166101 556.891448 166.205738 542.70232 189.889061 C 528.478415 213.537607 509.246583 232.456444 484.972047 246.680348 C 460.69751 260.904253 435.414432 267.998817 409.053259 267.998817 L 312.337662 267.998817 L 353.618286 6.682386 Z M 389.264991 210.44243 L 402.445577 210.44243 C 429.989178 210.44243 451.89886 202.339325 468.139846 186.063561 C 484.450388 169.787797 492.58827 148.677992 492.58827 122.768924 C 492.58827 105.171624 487.09346 91.017273 476.069065 80.305873 C 465.149001 69.559696 448.803683 64.203996 427.102664 64.203996 L 412.530987 64.203996 Z M 709.91145 6.682386 C 733.490441 6.682386 752.409278 12.211972 766.633183 23.3407 C 780.857087 34.399873 787.951651 50.293086 787.951651 71.055119 C 787.951651 93.312573 781.343969 112.892178 768.163383 129.898265 C 755.017573 146.869574 738.115819 157.198424 717.527673 160.850038 L 782.700283 267.998817 L 698.156732 267.998817 L 649.990208 167.45772 L 649.259885 167.45772 L 633.331894 267.998817 L 565.377102 267.998817 L 606.657726 6.682386 Z M 656.180563 123.777465 L 665.570427 123.777465 C 681.533195 123.777465 693.913904 120.438847 702.643 113.726833 C 711.44165 107.014819 715.858364 97.207628 715.858364 84.270482 C 715.858364 67.160064 701.738791 58.639632 673.534422 58.639632 L 666.578967 58.639632 Z M 1092.635342 112.022746 C 1092.635342 137.201492 1085.366892 163.319225 1070.795214 190.41072 C 1056.223537 217.432662 1035.670168 238.542467 1009.100332 253.774912 C 982.530495 269.007358 953.978353 276.623581 923.443908 276.623581 C 886.719107 276.623581 856.914984 265.842626 833.996761 244.211162 C 811.148092 222.614475 799.741147 194.131889 799.741147 158.832956 C 799.741147 129.724379 807.392147 102.876324 822.728924 78.254014 C 838.135256 53.596927 859.071175 34.0521 885.53668 19.619532 C 912.002185 5.186963 939.302344 -2.04671 967.471935 -2.04671 C 989.903277 -2.04671 1010.90875 2.787331 1030.4188 12.49019 C 1049.963628 22.19305 1065.196073 35.686632 1076.116137 52.970937 C 1087.140533 70.15091 1092.635342 89.869623 1092.635342 112.022746 Z M 933.87709 210.790202 C 949.596417 210.790202 964.09854 206.477821 977.348681 197.853057 C 990.668377 189.158739 1001.240668 177.960457 1009.100332 164.258211 C 1016.925218 150.486411 1020.85505 136.888497 1020.85505 123.464469 C 1020.85505 106.806155 1014.560363 92.72136 1002.005768 81.140528 C 989.416395 69.559696 974.323058 63.786669 956.725758 63.786669 C 943.127844 63.786669 929.599485 67.507837 916.175457 74.950173 C 902.820985 82.357732 892.005253 92.269255 883.763039 104.754296 C 875.59038 117.20456 871.486661 131.080692 871.486661 146.313138 C 871.486661 165.023311 877.294466 180.46442 888.910075 192.601689 C 900.595239 204.738957 915.584244 210.790202 933.87709 210.790202 Z M 1240.299644 6.682386 C 1265.47839 6.682386 1285.336213 12.351081 1299.873113 23.688472 C 1314.444791 34.956309 1321.713241 51.579846 1321.713241 73.524305 C 1321.713241 90.843387 1317.922518 108.649351 1310.306295 126.907419 C 1302.690072 145.200265 1290.309363 158.972065 1273.233722 168.22282 C 1256.123303 177.40402 1236.961026 181.785957 1215.677335 181.333852 L 1175.127034 181.333852 L 1161.250902 267.998817 L 1093.29611 267.998817 L 1134.611511 6.682386 Z M 1193.837207 61.421814 L 1183.786575 126.594424 L 1200.444889 126.594424 C 1219.641944 126.594424 1232.613867 123.116697 1239.360658 116.161242 C 1246.21178 109.240565 1249.619953 98.84216 1249.619953 84.931251 C 1249.619953 76.445596 1246.802994 70.39435 1241.169076 66.847069 C 1235.50038 63.230232 1226.458289 61.421814 1213.973248 61.421814 Z M 1445.798552 -0.273069 C 1473.794256 -0.273069 1500.051098 6.89105 1524.534298 21.219286 L 1489.131034 73.872078 C 1476.889434 62.291246 1462.839415 56.518218 1446.911424 56.518218 C 1438.564879 56.518218 1430.983433 58.883073 1424.167088 63.612782 C 1417.385519 68.377269 1414.012124 74.185073 1414.012124 81.140528 C 1414.012124 86.21801 1416.411756 90.669501 1421.280574 94.495001 C 1426.114615 98.355278 1435.017597 102.111224 1447.919965 105.762837 C 1465.482488 111.08376 1478.176193 116.196019 1486.001079 121.169169 C 1493.930298 126.142319 1500.051098 132.26312 1504.36348 139.53157 C 1508.780193 146.80002 1510.971162 155.911665 1510.971162 166.796952 C 1510.971162 182.481502 1506.936998 199.105039 1498.86867 216.702339 C 1490.800343 234.264862 1477.584979 248.245326 1459.187802 258.678508 C 1440.790624 269.076912 1419.020051 274.502167 1393.841305 274.954272 C 1361.533218 274.954272 1332.424641 265.007971 1306.515572 245.150148 L 1344.248914 190.306389 C 1362.298318 208.355793 1380.938937 217.397884 1400.101214 217.397884 C 1410.708283 217.397884 1419.680819 214.615703 1426.949269 209.086116 C 1434.21772 203.521752 1437.869333 196.461966 1437.869333 187.941534 C 1437.869333 176.812807 1426.775383 168.292375 1404.587483 162.310684 C 1377.808982 154.903124 1360.455123 147.008683 1352.560682 138.592583 C 1344.701018 130.141706 1340.805964 118.839092 1340.805964 104.754296 C 1340.805964 75.193614 1350.891373 50.293086 1371.096969 30.122268 C 1391.337342 9.847118 1416.237869 -0.273069 1445.798552 -0.273069 Z M 1445.798552 -0.273069 " stroke="#ffffff" stroke-width="7.582772" stroke-opacity="1" stroke-miterlimit="4"/><g fill="#ffffff" fill-opacity="1"><g transform="translate(56.645053, 55.682185)"><g><path d="M 18.765625 -30.828125 L 22.453125 -14.359375 L 31.65625 -30.828125 L 39.625 -30.828125 L 39.421875 0 L 31.40625 0 L 31.96875 -17.75 L 31.890625 -17.75 L 21.671875 0 L 18.484375 0 L 14.234375 -17.75 L 14.140625 -17.75 L 8.75 0 L 0.78125 0 L 10.875 -30.828125 Z M 18.765625 -30.828125 "/></g></g></g><g fill="#ffffff" fill-opacity="1"><g transform="translate(95.943666, 55.682185)"><g><path d="M 25.03125 -30.828125 L 23.96875 -24.046875 L 14.4375 -24.046875 L 13.609375 -18.890625 L 22.65625 -18.890625 L 21.59375 -12.109375 L 12.546875 -12.109375 L 11.6875 -6.78125 L 21.21875 -6.78125 L 20.15625 0 L 2.609375 0 L 7.484375 -30.828125 Z M 25.03125 -30.828125 "/></g></g></g><g fill="#ffffff" fill-opacity="1"><g transform="translate(117.535407, 55.682185)"><g><path d="M 18.890625 -30.828125 C 21.453125 -30.828125 23.75 -30.257812 25.78125 -29.125 C 27.8125 -28 29.40625 -26.441406 30.5625 -24.453125 C 31.71875 -22.460938 32.296875 -20.335938 32.296875 -18.078125 C 32.296875 -14.960938 31.457031 -12.007812 29.78125 -9.21875 C 28.113281 -6.425781 25.847656 -4.191406 22.984375 -2.515625 C 20.117188 -0.835938 17.132812 0 14.03125 0 L 2.609375 0 L 7.484375 -30.828125 Z M 11.6875 -6.78125 L 13.25 -6.78125 C 16.488281 -6.78125 19.066406 -7.738281 20.984375 -9.65625 C 22.910156 -11.582031 23.875 -14.078125 23.875 -17.140625 C 23.875 -19.203125 23.226562 -20.867188 21.9375 -22.140625 C 20.644531 -23.410156 18.71875 -24.046875 16.15625 -24.046875 L 14.4375 -24.046875 Z M 11.6875 -6.78125 "/></g></g></g><g fill="#ffffff" fill-opacity="1"><g transform="translate(147.387621, 55.682185)"><g><path d="M 15.5 -30.828125 L 10.625 0 L 2.609375 0 L 7.484375 -30.828125 Z M 15.5 -30.828125 "/></g></g></g><g fill="#ffffff" fill-opacity="1"><g transform="translate(159.73744, 55.682185)"><g><path d="M 25.3125 -30.828125 L 32.0625 0 L 23.515625 0 L 22.375 -5.359375 L 11.328125 -5.359375 L 8.34375 0 L -0.15625 0 L 16.5625 -30.828125 Z M 14.515625 -11.484375 L 21.1875 -11.484375 L 19.46875 -21.296875 L 19.375 -21.296875 Z M 14.515625 -11.484375 "/></g></g></g></svg>
