<svg xmlns="http://www.w3.org/2000/svg" xmlns:xlink="http://www.w3.org/1999/xlink" width="500" zoomAndPan="magnify" viewBox="0 0 375 374.999991" height="500" preserveAspectRatio="xMidYMid meet" version="1.0"><defs><clipPath id="33f9b17ba6"><path d="M 4.414062 4.414062 L 170 4.414062 L 170 170 L 4.414062 170 Z M 4.414062 4.414062 " clip-rule="nonzero"/></clipPath><clipPath id="7e9b3ba8fd"><path d="M 209 4.414062 L 375 4.414062 L 375 170 L 209 170 Z M 209 4.414062 " clip-rule="nonzero"/></clipPath><clipPath id="d1fa765bb8"><path d="M 4.414062 209 L 170 209 L 170 375 L 4.414062 375 Z M 4.414062 209 " clip-rule="nonzero"/></clipPath><clipPath id="329a68fb36"><path d="M 232.855469 233 L 353.296875 233 L 353.296875 355 L 232.855469 355 Z M 232.855469 233 " clip-rule="nonzero"/></clipPath><clipPath id="5d7990aae0"><path d="M 293.324219 233.824219 C 291.34375 233.828125 289.367188 233.925781 287.398438 234.121094 C 285.429688 234.320312 283.472656 234.609375 281.53125 235 C 279.589844 235.386719 277.671875 235.867188 275.777344 236.445312 C 273.882812 237.019531 272.023438 237.6875 270.195312 238.445312 C 268.367188 239.207031 266.578125 240.050781 264.832031 240.984375 C 263.085938 241.917969 261.390625 242.9375 259.746094 244.039062 C 258.101562 245.136719 256.511719 246.316406 254.980469 247.570312 C 253.453125 248.828125 251.988281 250.15625 250.585938 251.554688 C 249.1875 252.957031 247.859375 254.421875 246.601562 255.949219 C 245.347656 257.480469 244.167969 259.070312 243.070312 260.714844 C 241.96875 262.359375 240.949219 264.054688 240.015625 265.800781 C 239.082031 267.546875 238.238281 269.335938 237.476562 271.164062 C 236.71875 272.992188 236.050781 274.851562 235.476562 276.746094 C 234.898438 278.640625 234.417969 280.558594 234.03125 282.5 C 233.640625 284.441406 233.351562 286.398438 233.15625 288.367188 C 232.957031 290.335938 232.859375 292.3125 232.855469 294.292969 C 236.179688 374.507812 350.480469 374.484375 353.789062 294.292969 C 353.789062 292.3125 353.6875 290.335938 353.492188 288.367188 C 353.296875 286.398438 353.003906 284.441406 352.617188 282.5 C 352.230469 280.558594 351.746094 278.640625 351.171875 276.746094 C 350.59375 274.851562 349.925781 272.992188 349.167969 271.164062 C 348.410156 269.335938 347.5625 267.546875 346.628906 265.800781 C 345.695312 264.054688 344.679688 262.359375 343.578125 260.714844 C 342.476562 259.070312 341.300781 257.480469 340.042969 255.949219 C 338.789062 254.421875 337.460938 252.957031 336.058594 251.554688 C 334.660156 250.15625 333.195312 248.828125 331.664062 247.570312 C 330.132812 246.316406 328.546875 245.136719 326.898438 244.035156 C 325.253906 242.9375 323.558594 241.917969 321.8125 240.984375 C 320.066406 240.050781 318.28125 239.207031 316.453125 238.445312 C 314.625 237.6875 312.761719 237.019531 310.867188 236.445312 C 308.972656 235.867188 307.054688 235.386719 305.113281 235 C 303.171875 234.609375 301.21875 234.320312 299.246094 234.121094 C 297.277344 233.925781 295.304688 233.828125 293.324219 233.824219 Z M 293.324219 348.394531 C 291.550781 348.390625 289.785156 348.304688 288.023438 348.128906 C 286.261719 347.953125 284.511719 347.691406 282.773438 347.34375 C 281.035156 346.996094 279.320312 346.566406 277.625 346.050781 C 275.929688 345.535156 274.265625 344.9375 272.628906 344.257812 C 270.992188 343.578125 269.394531 342.824219 267.832031 341.988281 C 266.269531 341.152344 264.753906 340.242188 263.28125 339.257812 C 261.808594 338.273438 260.386719 337.21875 259.019531 336.09375 C 257.648438 334.96875 256.339844 333.78125 255.085938 332.53125 C 253.832031 331.277344 252.644531 329.964844 251.519531 328.597656 C 250.398438 327.226562 249.34375 325.808594 248.359375 324.335938 C 247.375 322.863281 246.464844 321.34375 245.628906 319.78125 C 244.792969 318.222656 244.035156 316.621094 243.355469 314.984375 C 242.679688 313.351562 242.082031 311.683594 241.566406 309.988281 C 241.050781 308.296875 240.617188 306.578125 240.273438 304.84375 C 239.925781 303.105469 239.664062 301.355469 239.488281 299.59375 C 239.3125 297.832031 239.222656 296.0625 239.222656 294.292969 C 242.195312 222.519531 344.464844 222.539062 347.425781 294.292969 C 347.421875 296.0625 347.335938 297.832031 347.160156 299.59375 C 346.984375 301.355469 346.722656 303.105469 346.375 304.84375 C 346.027344 306.578125 345.597656 308.296875 345.082031 309.992188 C 344.566406 311.683594 343.96875 313.351562 343.289062 314.988281 C 342.609375 316.621094 341.855469 318.222656 341.019531 319.785156 C 340.183594 321.34375 339.273438 322.863281 338.289062 324.335938 C 337.304688 325.808594 336.25 327.226562 335.125 328.597656 C 334 329.964844 332.8125 331.277344 331.5625 332.53125 C 330.308594 333.78125 328.996094 334.96875 327.628906 336.09375 C 326.257812 337.21875 324.839844 338.273438 323.367188 339.257812 C 321.894531 340.242188 320.375 341.152344 318.8125 341.988281 C 317.253906 342.824219 315.652344 343.578125 314.015625 344.257812 C 312.382812 344.9375 310.714844 345.535156 309.019531 346.050781 C 307.328125 346.566406 305.609375 346.996094 303.875 347.34375 C 302.136719 347.691406 300.386719 347.953125 298.625 348.128906 C 296.863281 348.304688 295.09375 348.390625 293.324219 348.394531 Z M 325.175781 279.445312 L 322.105469 274.128906 C 321.820312 273.640625 321.496094 273.183594 321.128906 272.757812 C 320.757812 272.332031 320.351562 271.941406 319.910156 271.59375 C 319.46875 271.242188 318.996094 270.9375 318.496094 270.679688 C 317.996094 270.417969 317.476562 270.207031 316.933594 270.042969 C 316.394531 269.882812 315.84375 269.773438 315.28125 269.714844 C 314.722656 269.65625 314.160156 269.652344 313.597656 269.703125 C 313.035156 269.75 312.484375 269.851562 311.941406 270.003906 C 311.398438 270.160156 310.875 270.363281 310.371094 270.613281 C 310.007812 270.792969 309.660156 270.769531 309.328125 270.542969 C 308.230469 269.808594 307.085938 269.15625 305.898438 268.578125 C 305.527344 268.398438 305.328125 268.101562 305.304688 267.6875 C 305.273438 267.125 305.183594 266.570312 305.046875 266.023438 C 304.90625 265.476562 304.71875 264.945312 304.480469 264.4375 C 304.242188 263.925781 303.957031 263.441406 303.625 262.984375 C 303.296875 262.527344 302.925781 262.105469 302.515625 261.71875 C 302.105469 261.332031 301.664062 260.988281 301.1875 260.683594 C 300.710938 260.382812 300.210938 260.125 299.6875 259.917969 C 299.164062 259.707031 298.625 259.550781 298.070312 259.445312 C 297.515625 259.339844 296.957031 259.285156 296.394531 259.285156 L 290.253906 259.285156 C 289.6875 259.285156 289.128906 259.339844 288.574219 259.445312 C 288.019531 259.554688 287.480469 259.710938 286.957031 259.921875 C 286.429688 260.128906 285.929688 260.386719 285.453125 260.691406 C 284.976562 260.992188 284.535156 261.339844 284.125 261.726562 C 283.714844 262.113281 283.34375 262.539062 283.011719 262.996094 C 282.683594 263.453125 282.398438 263.9375 282.160156 264.449219 C 281.921875 264.964844 281.734375 265.492188 281.59375 266.039062 C 281.457031 266.585938 281.371094 267.144531 281.339844 267.707031 C 281.3125 268.113281 281.117188 268.402344 280.75 268.578125 C 279.316406 268.984375 277.589844 271.003906 276.273438 270.613281 C 275.769531 270.359375 275.246094 270.15625 274.703125 270.003906 C 274.160156 269.851562 273.609375 269.75 273.046875 269.703125 C 272.484375 269.652344 271.921875 269.65625 271.363281 269.714844 C 270.800781 269.773438 270.25 269.882812 269.710938 270.046875 C 269.171875 270.207031 268.648438 270.417969 268.148438 270.679688 C 267.648438 270.9375 267.179688 271.246094 266.738281 271.59375 C 266.292969 271.945312 265.886719 272.332031 265.519531 272.757812 C 265.152344 273.183594 264.824219 273.640625 264.542969 274.128906 L 261.472656 279.445312 C 261.191406 279.933594 260.957031 280.445312 260.773438 280.980469 C 260.585938 281.511719 260.453125 282.058594 260.371094 282.613281 C 260.292969 283.171875 260.261719 283.734375 260.285156 284.296875 C 260.3125 284.859375 260.390625 285.417969 260.519531 285.964844 C 260.648438 286.511719 260.828125 287.046875 261.058594 287.558594 C 261.289062 288.074219 261.566406 288.5625 261.890625 289.023438 C 262.210938 289.488281 262.574219 289.914062 262.980469 290.308594 C 263.382812 290.703125 263.820312 291.054688 264.292969 291.363281 C 265.261719 292.289062 264.402344 294.785156 264.753906 296.183594 C 264.804688 296.621094 264.652344 296.964844 264.292969 297.21875 C 263.820312 297.527344 263.382812 297.878906 262.980469 298.273438 C 262.574219 298.667969 262.210938 299.09375 261.890625 299.558594 C 261.566406 300.019531 261.289062 300.507812 261.058594 301.023438 C 260.828125 301.539062 260.648438 302.070312 260.519531 302.617188 C 260.390625 303.167969 260.3125 303.722656 260.289062 304.285156 C 260.261719 304.851562 260.292969 305.410156 260.371094 305.96875 C 260.453125 306.527344 260.585938 307.070312 260.773438 307.605469 C 260.957031 308.136719 261.191406 308.648438 261.472656 309.136719 L 264.542969 314.453125 C 264.824219 314.941406 265.152344 315.398438 265.519531 315.824219 C 265.886719 316.253906 266.292969 316.640625 266.738281 316.992188 C 267.179688 317.339844 267.652344 317.644531 268.152344 317.90625 C 268.652344 318.164062 269.171875 318.378906 269.710938 318.539062 C 270.253906 318.699219 270.800781 318.8125 271.363281 318.867188 C 271.925781 318.925781 272.484375 318.929688 273.046875 318.882812 C 273.609375 318.832031 274.164062 318.730469 274.707031 318.578125 C 275.246094 318.425781 275.769531 318.222656 276.277344 317.96875 C 276.636719 317.789062 276.984375 317.8125 277.320312 318.039062 C 278.417969 318.773438 279.5625 319.429688 280.75 320.003906 C 281.121094 320.1875 281.320312 320.484375 281.339844 320.898438 C 281.375 321.460938 281.460938 322.015625 281.601562 322.5625 C 281.738281 323.109375 281.925781 323.636719 282.167969 324.148438 C 282.40625 324.660156 282.691406 325.144531 283.019531 325.597656 C 283.351562 326.054688 283.722656 326.476562 284.132812 326.867188 C 284.542969 327.253906 284.984375 327.597656 285.460938 327.898438 C 285.9375 328.203125 286.433594 328.457031 286.960938 328.667969 C 287.484375 328.875 288.023438 329.03125 288.578125 329.140625 C 289.128906 329.246094 289.6875 329.296875 290.253906 329.300781 L 296.394531 329.300781 C 296.957031 329.296875 297.519531 329.246094 298.074219 329.136719 C 298.628906 329.03125 299.167969 328.871094 299.691406 328.664062 C 300.214844 328.453125 300.714844 328.199219 301.191406 327.894531 C 301.667969 327.589844 302.113281 327.246094 302.523438 326.855469 C 302.933594 326.46875 303.304688 326.046875 303.632812 325.589844 C 303.964844 325.128906 304.25 324.644531 304.488281 324.132812 C 304.726562 323.621094 304.914062 323.089844 305.050781 322.542969 C 305.1875 321.996094 305.273438 321.441406 305.308594 320.875 C 305.335938 320.472656 305.53125 320.183594 305.894531 320.007812 C 307.332031 319.597656 309.050781 317.585938 310.371094 317.972656 C 310.878906 318.222656 311.402344 318.425781 311.945312 318.578125 C 312.484375 318.734375 313.039062 318.832031 313.601562 318.882812 C 314.164062 318.929688 314.722656 318.925781 315.285156 318.867188 C 315.84375 318.8125 316.394531 318.699219 316.9375 318.539062 C 317.476562 318.378906 317.996094 318.164062 318.496094 317.90625 C 318.996094 317.644531 319.46875 317.339844 319.910156 316.988281 C 320.351562 316.640625 320.757812 316.253906 321.128906 315.824219 C 321.496094 315.398438 321.820312 314.941406 322.105469 314.453125 L 325.175781 309.136719 C 325.457031 308.648438 325.691406 308.136719 325.875 307.605469 C 326.058594 307.074219 326.191406 306.527344 326.273438 305.96875 C 326.355469 305.410156 326.382812 304.851562 326.359375 304.289062 C 326.335938 303.722656 326.257812 303.167969 326.128906 302.621094 C 326 302.070312 325.816406 301.539062 325.585938 301.023438 C 325.355469 300.507812 325.082031 300.019531 324.757812 299.558594 C 324.433594 299.097656 324.070312 298.667969 323.667969 298.277344 C 323.261719 297.882812 322.824219 297.53125 322.355469 297.21875 C 321.496094 296.566406 322.09375 295.234375 321.964844 294.292969 C 322.109375 293.355469 321.484375 292.019531 322.355469 291.367188 C 322.824219 291.054688 323.261719 290.703125 323.667969 290.308594 C 324.070312 289.917969 324.433594 289.488281 324.757812 289.027344 C 325.082031 288.5625 325.355469 288.074219 325.585938 287.5625 C 325.816406 287.046875 326 286.515625 326.128906 285.964844 C 326.257812 285.417969 326.335938 284.859375 326.359375 284.296875 C 326.382812 283.734375 326.355469 283.171875 326.273438 282.617188 C 326.191406 282.058594 326.058594 281.511719 325.875 280.980469 C 325.691406 280.445312 325.457031 279.933594 325.175781 279.445312 Z M 315.546875 292.871094 C 315.457031 296.476562 315.382812 300.429688 318.855469 302.535156 C 319.125 302.714844 319.355469 302.9375 319.542969 303.207031 C 319.730469 303.472656 319.863281 303.765625 319.9375 304.082031 C 320.011719 304.402344 320.027344 304.722656 319.980469 305.046875 C 319.929688 305.367188 319.828125 305.671875 319.664062 305.953125 L 316.59375 311.269531 C 316.429688 311.554688 316.21875 311.796875 315.960938 312 C 315.707031 312.203125 315.421875 312.351562 315.105469 312.445312 C 314.792969 312.535156 314.476562 312.570312 314.148438 312.542969 C 313.824219 312.511719 313.515625 312.425781 313.222656 312.28125 C 309.640625 310.285156 306.207031 312.433594 303.113281 314.28125 C 302.519531 314.570312 301.976562 314.933594 301.480469 315.367188 C 300.984375 315.800781 300.550781 316.289062 300.1875 316.839844 C 299.820312 317.386719 299.535156 317.972656 299.324219 318.597656 C 299.113281 319.222656 298.992188 319.867188 298.953125 320.523438 C 298.933594 320.851562 298.855469 321.160156 298.714844 321.457031 C 298.578125 321.753906 298.386719 322.011719 298.152344 322.234375 C 297.914062 322.460938 297.640625 322.632812 297.339844 322.753906 C 297.035156 322.875 296.71875 322.933594 296.394531 322.933594 L 290.253906 322.933594 C 289.925781 322.933594 289.609375 322.871094 289.304688 322.75 C 289 322.628906 288.730469 322.453125 288.492188 322.230469 C 288.253906 322.003906 288.066406 321.742188 287.925781 321.445312 C 287.789062 321.148438 287.710938 320.835938 287.691406 320.507812 C 287.613281 316.34375 284.042969 314.503906 280.863281 312.753906 C 280.320312 312.386719 279.738281 312.101562 279.117188 311.890625 C 278.496094 311.679688 277.859375 311.554688 277.207031 311.515625 C 276.554688 311.472656 275.90625 311.515625 275.265625 311.648438 C 274.621094 311.777344 274.007812 311.988281 273.421875 312.28125 C 273.128906 312.429688 272.820312 312.515625 272.496094 312.542969 C 272.171875 312.570312 271.851562 312.539062 271.539062 312.445312 C 271.226562 312.351562 270.941406 312.203125 270.683594 312 C 270.425781 311.796875 270.21875 311.554688 270.054688 311.269531 L 266.984375 305.953125 C 266.820312 305.671875 266.714844 305.367188 266.667969 305.042969 C 266.621094 304.722656 266.636719 304.402344 266.710938 304.082031 C 266.785156 303.765625 266.917969 303.472656 267.105469 303.203125 C 267.289062 302.9375 267.519531 302.710938 267.792969 302.53125 C 268.433594 302.074219 268.992188 301.535156 269.476562 300.917969 C 269.957031 300.296875 270.34375 299.621094 270.632812 298.890625 C 270.921875 298.160156 271.101562 297.402344 271.171875 296.621094 C 271.242188 295.839844 271.199219 295.0625 271.046875 294.292969 C 271.199219 293.519531 271.242188 292.746094 271.171875 291.960938 C 271.101562 291.179688 270.921875 290.421875 270.632812 289.691406 C 270.34375 288.960938 269.957031 288.285156 269.476562 287.667969 C 268.992188 287.046875 268.429688 286.507812 267.792969 286.050781 C 267.519531 285.871094 267.289062 285.644531 267.105469 285.378906 C 266.917969 285.109375 266.785156 284.816406 266.710938 284.5 C 266.636719 284.183594 266.621094 283.863281 266.667969 283.539062 C 266.714844 283.214844 266.820312 282.914062 266.984375 282.628906 L 270.054688 277.3125 C 270.21875 277.03125 270.425781 276.785156 270.683594 276.582031 C 270.941406 276.378906 271.226562 276.230469 271.539062 276.136719 C 271.851562 276.042969 272.171875 276.011719 272.496094 276.039062 C 272.824219 276.070312 273.132812 276.15625 273.425781 276.304688 C 277.007812 278.304688 280.4375 276.148438 283.535156 274.300781 C 284.125 274.011719 284.671875 273.652344 285.167969 273.21875 C 285.664062 272.785156 286.09375 272.292969 286.460938 271.746094 C 286.824219 271.195312 287.113281 270.609375 287.324219 269.984375 C 287.53125 269.359375 287.65625 268.71875 287.695312 268.058594 C 287.714844 267.734375 287.792969 267.421875 287.933594 267.128906 C 288.070312 266.832031 288.257812 266.570312 288.496094 266.347656 C 288.734375 266.125 289.003906 265.953125 289.308594 265.832031 C 289.609375 265.710938 289.925781 265.648438 290.253906 265.648438 L 296.394531 265.648438 C 296.722656 265.652344 297.039062 265.710938 297.34375 265.832031 C 297.648438 265.957031 297.917969 266.128906 298.15625 266.355469 C 298.394531 266.582031 298.582031 266.839844 298.71875 267.140625 C 298.859375 267.4375 298.9375 267.75 298.953125 268.078125 C 298.992188 268.734375 299.117188 269.375 299.328125 269.996094 C 299.539062 270.621094 299.824219 271.207031 300.191406 271.753906 C 300.558594 272.300781 300.988281 272.792969 301.484375 273.222656 C 301.980469 273.65625 302.523438 274.015625 303.113281 274.304688 C 306.207031 276.152344 309.644531 278.296875 313.222656 276.300781 C 313.515625 276.15625 313.824219 276.066406 314.152344 276.039062 C 314.476562 276.011719 314.796875 276.042969 315.109375 276.136719 C 315.421875 276.234375 315.707031 276.382812 315.964844 276.582031 C 316.21875 276.785156 316.429688 277.03125 316.59375 277.3125 L 319.664062 282.628906 C 319.828125 282.914062 319.929688 283.214844 319.980469 283.539062 C 320.027344 283.863281 320.011719 284.183594 319.9375 284.5 C 319.859375 284.820312 319.730469 285.113281 319.542969 285.378906 C 319.355469 285.648438 319.125 285.871094 318.851562 286.050781 C 318.300781 286.421875 317.804688 286.859375 317.367188 287.359375 C 316.925781 287.863281 316.5625 288.414062 316.273438 289.011719 C 315.980469 289.609375 315.773438 290.238281 315.652344 290.894531 C 315.527344 291.546875 315.492188 292.207031 315.546875 292.871094 Z M 293.324219 280.5 C 292.417969 280.503906 291.523438 280.589844 290.632812 280.769531 C 289.746094 280.945312 288.882812 281.207031 288.046875 281.554688 C 287.210938 281.902344 286.417969 282.328125 285.664062 282.832031 C 284.914062 283.332031 284.214844 283.90625 283.578125 284.546875 C 282.9375 285.183594 282.363281 285.882812 281.863281 286.632812 C 281.359375 287.386719 280.933594 288.179688 280.585938 289.015625 C 280.238281 289.851562 279.976562 290.714844 279.800781 291.601562 C 279.625 292.492188 279.535156 293.386719 279.53125 294.292969 C 280.179688 312.542969 306.46875 312.539062 307.113281 294.292969 C 307.113281 293.386719 307.023438 292.488281 306.847656 291.601562 C 306.667969 290.714844 306.40625 289.851562 306.058594 289.015625 C 305.714844 288.179688 305.289062 287.386719 304.785156 286.632812 C 304.28125 285.882812 303.710938 285.183594 303.070312 284.546875 C 302.429688 283.90625 301.734375 283.332031 300.980469 282.832031 C 300.230469 282.328125 299.433594 281.902344 298.597656 281.554688 C 297.761719 281.207031 296.898438 280.945312 296.011719 280.769531 C 295.125 280.589844 294.230469 280.503906 293.324219 280.5 Z M 293.324219 301.71875 C 292.839844 301.710938 292.359375 301.660156 291.886719 301.5625 C 291.414062 301.460938 290.953125 301.316406 290.507812 301.128906 C 290.0625 300.941406 289.636719 300.710938 289.238281 300.4375 C 288.835938 300.164062 288.464844 299.859375 288.125 299.511719 C 287.785156 299.167969 287.480469 298.796875 287.214844 298.390625 C 286.949219 297.988281 286.722656 297.5625 286.539062 297.113281 C 286.355469 296.667969 286.214844 296.207031 286.121094 295.730469 C 286.027344 295.253906 285.980469 294.777344 285.980469 294.292969 C 285.980469 293.808594 286.027344 293.328125 286.121094 292.851562 C 286.214844 292.378906 286.355469 291.917969 286.539062 291.46875 C 286.722656 291.023438 286.949219 290.597656 287.214844 290.191406 C 287.480469 289.789062 287.785156 289.414062 288.125 289.070312 C 288.46875 288.726562 288.835938 288.417969 289.238281 288.144531 C 289.636719 287.875 290.0625 287.644531 290.507812 287.457031 C 290.953125 287.265625 291.414062 287.121094 291.886719 287.023438 C 292.359375 286.925781 292.839844 286.871094 293.324219 286.867188 C 293.808594 286.871094 294.285156 286.925781 294.761719 287.023438 C 295.234375 287.121094 295.695312 287.265625 296.140625 287.457031 C 296.585938 287.644531 297.007812 287.875 297.410156 288.148438 C 297.808594 288.417969 298.179688 288.726562 298.519531 289.070312 C 298.859375 289.414062 299.164062 289.789062 299.433594 290.191406 C 299.699219 290.597656 299.925781 291.023438 300.109375 291.46875 C 300.292969 291.917969 300.433594 292.378906 300.527344 292.855469 C 300.621094 293.328125 300.667969 293.808594 300.667969 294.292969 C 300.667969 294.777344 300.621094 295.253906 300.527344 295.730469 C 300.433594 296.207031 300.292969 296.667969 300.109375 297.113281 C 299.925781 297.5625 299.699219 297.988281 299.433594 298.390625 C 299.164062 298.796875 298.859375 299.167969 298.519531 299.511719 C 298.179688 299.859375 297.808594 300.164062 297.410156 300.4375 C 297.007812 300.710938 296.585938 300.941406 296.140625 301.128906 C 295.695312 301.316406 295.234375 301.460938 294.761719 301.5625 C 294.285156 301.660156 293.808594 301.710938 293.324219 301.71875 Z M 293.324219 301.71875 " clip-rule="nonzero"/></clipPath></defs><g clip-path="url(#33f9b17ba6)"><path fill="#ffffff" d="M 22.34375 169.980469 L 152.050781 169.980469 C 161.972656 169.980469 169.980469 161.972656 169.980469 152.050781 L 169.980469 22.34375 C 169.980469 12.421875 161.972656 4.414062 152.050781 4.414062 L 22.34375 4.414062 C 12.421875 4.414062 4.414062 12.421875 4.414062 22.34375 L 4.414062 152.050781 C 4.414062 161.972656 12.421875 169.980469 22.34375 169.980469 Z M 22.34375 169.980469 " fill-opacity="1" fill-rule="nonzero"/></g><g clip-path="url(#7e9b3ba8fd)"><path fill="#ffffff" d="M 375 22.34375 C 375 12.421875 366.992188 4.414062 357.070312 4.414062 L 227.363281 4.414062 C 217.441406 4.414062 209.433594 12.421875 209.433594 22.34375 L 209.433594 152.050781 C 209.433594 161.972656 217.441406 169.980469 227.363281 169.980469 L 357.070312 169.980469 C 366.992188 169.980469 375 161.972656 375 152.050781 Z M 375 22.34375 " fill-opacity="1" fill-rule="nonzero"/></g><g clip-path="url(#d1fa765bb8)"><path fill="#ffffff" d="M 22.34375 375 L 152.050781 375 C 161.972656 375 169.980469 366.988281 169.980469 357.070312 L 169.980469 227.363281 C 169.980469 217.441406 161.972656 209.429688 152.050781 209.429688 L 22.34375 209.429688 C 12.421875 209.429688 4.414062 217.441406 4.414062 227.363281 L 4.414062 357.070312 C 4.414062 366.988281 12.421875 375 22.34375 375 Z M 22.34375 375 " fill-opacity="1" fill-rule="nonzero"/></g><path fill="#ffffff" d="M 292.15625 209.429688 C 246.492188 209.429688 209.433594 246.492188 209.433594 292.15625 C 209.433594 337.820312 246.492188 375 292.15625 375 C 337.820312 375 375 337.820312 375 292.15625 C 375 246.492188 337.820312 209.429688 292.15625 209.429688 Z M 292.15625 209.429688 " fill-opacity="1" fill-rule="nonzero"/><g clip-path="url(#329a68fb36)"><g clip-path="url(#5d7990aae0)"><path fill="#00faa8" d="M 232.855469 222.519531 L 232.855469 374.507812 L 353.296875 374.507812 L 353.296875 222.519531 Z M 232.855469 222.519531 " fill-opacity="1" fill-rule="nonzero"/></g></g></svg>