<?xml version="1.0" encoding="UTF-8"?>
<svg id="Layer_2" data-name="Layer 2" xmlns="http://www.w3.org/2000/svg" viewBox="0 0 297.98 290.17">
  <defs>
    <style>
      .cls-1 {
        fill: #fff;
        stroke-width: 0px;
      }
    </style>
  </defs>
  <g id="KtVbCo">
    <g>
      <path class="cls-1" d="M44.44,238.24c33,0,66.02-.45,99.01.25,11.32.24,16.71-3.19,20.14-14.37,8.5-27.7,18.52-54.93,28.77-84.8,13.34,9.43,25.59,17.58,37.11,26.65,2.19,1.72,2.86,7.54,1.89,10.76-10.74,35.62-21.77,71.16-33.34,106.53-.99,3.02-6.31,6.49-9.68,6.56-26.31.54-52.64.35-78.96.2-2.59-.01-5.73-.53-7.69-2.02-19.75-15.01-39.32-30.27-58.93-45.46.56-1.43,1.12-2.86,1.68-4.28Z"/>
      <path class="cls-1" d="M180.39,3.85c-22.43,16.64-44.83,33.32-67.3,49.91q-24.22,17.89-15.35,46.36c7.49,24.1,14.9,48.22,23.1,74.8-17.21,0-31.99.42-46.71-.37-2.8-.15-6.71-4.64-7.8-7.9-11.5-34.41-22.79-68.89-33.35-103.6-1.15-3.78,1.24-10.87,4.4-13.36,19.94-15.73,40.47-30.71,61.05-45.61,3.08-2.23,7.41-3.8,11.19-3.86,23.1-.35,46.21-.17,69.31-.17.49,1.27.98,2.54,1.47,3.81Z"/>
      <path class="cls-1" d="M158.1,102.17c12.75-9.07,23.5-17.42,35.03-24.46,3.14-1.92,9.84-1.63,12.92.51,29.45,20.49,58.63,41.37,87.38,62.82,3.17,2.36,5.37,9.59,4.28,13.51-6.98,24.91-14.95,49.55-22.77,74.22-.79,2.49-2.16,5.33-4.15,6.81-19.62,14.55-39.42,28.84-61.77,41.56,1.33-4.94,2.47-9.94,4.03-14.81,8.6-26.81,16.67-53.83,26.28-80.28,4.38-12.07,1.72-18.94-8.53-25.97-21.33-14.64-41.89-30.4-62.73-45.75-2.86-2.11-5.52-4.5-9.96-8.16Z"/>
      <path class="cls-1" d="M292.45,129.68c-26.8-19.29-54-38.07-80.19-58.15-9.57-7.33-15.92-7.95-25.61-.33-23.15,18.19-47.29,35.1-73.11,54.04-4.89-15.2-9.76-28.69-13.29-42.52-.78-3.07,2.17-8.65,5.08-10.85,27.87-21.09,55.88-42.02,84.47-62.11,3.86-2.71,12.61-2.84,16.58-.27,21.32,13.81,41.88,28.8,62.59,43.54,2.13,1.51,4.39,3.75,5.16,6.12,7.45,22.69,14.59,45.49,21.82,68.25-1.17.76-2.33,1.51-3.5,2.27Z"/>
      <path class="cls-1" d="M169.83,182.81c-5.4,15.61-9.52,28.99-14.85,41.87-1.26,3.05-6.56,6.26-10.02,6.27-35.83.15-71.68-.03-107.5-1.05-4.27-.12-10.66-4.92-12.18-9.01-8.53-22.95-15.89-46.33-23.57-69.59-.84-2.54-2.22-5.59-1.51-7.83,7.44-23.61,15.26-47.1,22.97-70.63,1.16.07,2.33.15,3.49.22,9.91,29.99,19.72,60.02,29.77,89.97,7.64,22.77,1.8,19.56,27.77,19.73,27.62.19,55.24.04,85.64.04Z"/>
    </g>
  </g>
</svg>