<svg xmlns="http://www.w3.org/2000/svg" xmlns:xlink="http://www.w3.org/1999/xlink" width="192" zoomAndPan="magnify" viewBox="0 0 144 37.5" height="50" preserveAspectRatio="xMidYMid meet" version="1.0"><defs><g/></defs><g fill="#ffffff" fill-opacity="1"><g transform="translate(25.801671, 22.456209)"><g><path d="M 1.875 0.0625 C 1.707031 0.0625 1.566406 0.00390625 1.453125 -0.109375 C 1.335938 -0.222656 1.28125 -0.363281 1.28125 -0.53125 L 1.28125 -8.421875 C 1.28125 -8.660156 1.363281 -8.863281 1.53125 -9.03125 C 1.695312 -9.207031 1.898438 -9.296875 2.140625 -9.296875 L 2.578125 -9.296875 C 2.753906 -9.296875 2.914062 -9.238281 3.0625 -9.125 C 3.207031 -9.019531 3.316406 -8.890625 3.390625 -8.734375 L 6.390625 -1.25 L 9.390625 -8.734375 C 9.453125 -8.890625 9.554688 -9.019531 9.703125 -9.125 C 9.847656 -9.238281 10.007812 -9.296875 10.1875 -9.296875 L 10.625 -9.296875 C 10.863281 -9.296875 11.066406 -9.207031 11.234375 -9.03125 C 11.398438 -8.863281 11.484375 -8.660156 11.484375 -8.421875 L 11.484375 -0.53125 C 11.484375 -0.363281 11.425781 -0.222656 11.3125 -0.109375 C 11.195312 0.00390625 11.054688 0.0625 10.890625 0.0625 C 10.722656 0.0625 10.578125 0.00390625 10.453125 -0.109375 C 10.335938 -0.222656 10.28125 -0.363281 10.28125 -0.53125 L 10.28125 -8.03125 L 7.234375 -0.484375 C 7.160156 -0.316406 7.046875 -0.179688 6.890625 -0.078125 C 6.734375 0.015625 6.566406 0.0625 6.390625 0.0625 C 6.203125 0.0625 6.03125 0.015625 5.875 -0.078125 C 5.71875 -0.179688 5.601562 -0.316406 5.53125 -0.484375 L 2.484375 -8.03125 L 2.484375 -0.53125 C 2.484375 -0.363281 2.421875 -0.222656 2.296875 -0.109375 C 2.179688 0.00390625 2.039062 0.0625 1.875 0.0625 Z M 1.875 0.0625 "/></g></g></g><g fill="#ffffff" fill-opacity="1"><g transform="translate(38.281555, 22.456209)"><g><path d="M 1.875 0 C 1.707031 0 1.566406 -0.0546875 1.453125 -0.171875 C 1.335938 -0.285156 1.28125 -0.425781 1.28125 -0.59375 L 1.28125 -8.625 C 1.28125 -8.789062 1.335938 -8.929688 1.453125 -9.046875 C 1.566406 -9.171875 1.707031 -9.234375 1.875 -9.234375 L 7.171875 -9.234375 C 7.335938 -9.234375 7.472656 -9.175781 7.578125 -9.0625 C 7.691406 -8.945312 7.75 -8.8125 7.75 -8.65625 C 7.75 -8.5 7.691406 -8.367188 7.578125 -8.265625 C 7.472656 -8.160156 7.335938 -8.109375 7.171875 -8.109375 L 2.484375 -8.109375 L 2.484375 -5.1875 L 6.703125 -5.1875 C 6.859375 -5.1875 6.988281 -5.128906 7.09375 -5.015625 C 7.207031 -4.898438 7.265625 -4.765625 7.265625 -4.609375 C 7.265625 -4.453125 7.207031 -4.320312 7.09375 -4.21875 C 6.988281 -4.113281 6.859375 -4.0625 6.703125 -4.0625 L 2.484375 -4.0625 L 2.484375 -1.125 L 7.171875 -1.125 C 7.335938 -1.125 7.472656 -1.066406 7.578125 -0.953125 C 7.691406 -0.847656 7.75 -0.71875 7.75 -0.5625 C 7.75 -0.394531 7.691406 -0.257812 7.578125 -0.15625 C 7.472656 -0.0507812 7.335938 0 7.171875 0 Z M 1.875 0 "/></g></g></g><g fill="#ffffff" fill-opacity="1"><g transform="translate(46.425172, 22.456209)"><g><path d="M 1.875 0 C 1.707031 0 1.566406 -0.0546875 1.453125 -0.171875 C 1.335938 -0.285156 1.28125 -0.425781 1.28125 -0.59375 L 1.28125 -8.625 C 1.28125 -8.789062 1.335938 -8.929688 1.453125 -9.046875 C 1.566406 -9.171875 1.707031 -9.234375 1.875 -9.234375 L 4.53125 -9.234375 C 5.539062 -9.234375 6.394531 -9.007812 7.09375 -8.5625 C 7.789062 -8.113281 8.316406 -7.535156 8.671875 -6.828125 C 9.023438 -6.128906 9.203125 -5.390625 9.203125 -4.609375 C 9.203125 -3.835938 9.023438 -3.097656 8.671875 -2.390625 C 8.316406 -1.679688 7.789062 -1.101562 7.09375 -0.65625 C 6.394531 -0.21875 5.539062 0 4.53125 0 Z M 4.390625 -1.125 C 5.109375 -1.125 5.738281 -1.269531 6.28125 -1.5625 C 6.832031 -1.863281 7.257812 -2.273438 7.5625 -2.796875 C 7.863281 -3.316406 8.015625 -3.921875 8.015625 -4.609375 C 8.015625 -5.296875 7.863281 -5.898438 7.5625 -6.421875 C 7.257812 -6.953125 6.832031 -7.363281 6.28125 -7.65625 C 5.738281 -7.957031 5.109375 -8.109375 4.390625 -8.109375 L 2.484375 -8.109375 L 2.484375 -1.125 Z M 4.390625 -1.125 "/></g></g></g><g fill="#ffffff" fill-opacity="1"><g transform="translate(56.062683, 22.456209)"><g><path d="M 1.875 0.0625 C 1.707031 0.0625 1.566406 0.00390625 1.453125 -0.109375 C 1.335938 -0.222656 1.28125 -0.363281 1.28125 -0.53125 L 1.28125 -8.6875 C 1.28125 -8.851562 1.335938 -8.992188 1.453125 -9.109375 C 1.566406 -9.234375 1.707031 -9.296875 1.875 -9.296875 C 2.039062 -9.296875 2.179688 -9.234375 2.296875 -9.109375 C 2.421875 -8.992188 2.484375 -8.851562 2.484375 -8.6875 L 2.484375 -0.53125 C 2.484375 -0.363281 2.421875 -0.222656 2.296875 -0.109375 C 2.179688 0.00390625 2.039062 0.0625 1.875 0.0625 Z M 1.875 0.0625 "/></g></g></g><g fill="#ffffff" fill-opacity="1"><g transform="translate(59.53953, 22.456209)"><g><path d="M 1.25 0.0625 C 1.070312 0.0625 0.925781 0.00390625 0.8125 -0.109375 C 0.707031 -0.222656 0.65625 -0.363281 0.65625 -0.53125 C 0.65625 -0.601562 0.679688 -0.691406 0.734375 -0.796875 L 4.09375 -8.75 C 4.164062 -8.90625 4.265625 -9.035156 4.390625 -9.140625 C 4.523438 -9.242188 4.679688 -9.296875 4.859375 -9.296875 L 5 -9.296875 C 5.1875 -9.296875 5.34375 -9.242188 5.46875 -9.140625 C 5.59375 -9.035156 5.691406 -8.90625 5.765625 -8.75 L 9.140625 -0.796875 C 9.179688 -0.691406 9.203125 -0.601562 9.203125 -0.53125 C 9.203125 -0.363281 9.144531 -0.222656 9.03125 -0.109375 C 8.925781 0.00390625 8.785156 0.0625 8.609375 0.0625 C 8.484375 0.0625 8.367188 0.03125 8.265625 -0.03125 C 8.160156 -0.09375 8.082031 -0.179688 8.03125 -0.296875 L 7.171875 -2.359375 L 2.6875 -2.359375 L 1.828125 -0.296875 C 1.773438 -0.179688 1.695312 -0.09375 1.59375 -0.03125 C 1.488281 0.03125 1.375 0.0625 1.25 0.0625 Z M 3.140625 -3.46875 L 6.71875 -3.46875 L 4.9375 -7.765625 Z M 3.140625 -3.46875 "/></g></g></g><g fill="#ffffff" fill-opacity="1"><g transform="translate(69.110944, 22.456209)"><g/></g></g><g fill="#ffffff" fill-opacity="1"><g transform="translate(72.257284, 22.456209)"><g><path d="M 1.875 0 C 1.707031 0 1.566406 -0.0546875 1.453125 -0.171875 C 1.335938 -0.285156 1.28125 -0.425781 1.28125 -0.59375 L 1.28125 -8.625 C 1.28125 -8.789062 1.335938 -8.929688 1.453125 -9.046875 C 1.566406 -9.171875 1.707031 -9.234375 1.875 -9.234375 L 4.53125 -9.234375 C 5.539062 -9.234375 6.394531 -9.007812 7.09375 -8.5625 C 7.789062 -8.113281 8.316406 -7.535156 8.671875 -6.828125 C 9.023438 -6.128906 9.203125 -5.390625 9.203125 -4.609375 C 9.203125 -3.835938 9.023438 -3.097656 8.671875 -2.390625 C 8.316406 -1.679688 7.789062 -1.101562 7.09375 -0.65625 C 6.394531 -0.21875 5.539062 0 4.53125 0 Z M 4.390625 -1.125 C 5.109375 -1.125 5.738281 -1.269531 6.28125 -1.5625 C 6.832031 -1.863281 7.257812 -2.273438 7.5625 -2.796875 C 7.863281 -3.316406 8.015625 -3.921875 8.015625 -4.609375 C 8.015625 -5.296875 7.863281 -5.898438 7.5625 -6.421875 C 7.257812 -6.953125 6.832031 -7.363281 6.28125 -7.65625 C 5.738281 -7.957031 5.109375 -8.109375 4.390625 -8.109375 L 2.484375 -8.109375 L 2.484375 -1.125 Z M 4.390625 -1.125 "/></g></g></g><g fill="#ffffff" fill-opacity="1"><g transform="translate(81.894797, 22.456209)"><g><path d="M 1.875 0.0625 C 1.707031 0.0625 1.566406 0.00390625 1.453125 -0.109375 C 1.335938 -0.222656 1.28125 -0.363281 1.28125 -0.53125 L 1.28125 -8.625 C 1.28125 -8.789062 1.335938 -8.929688 1.453125 -9.046875 C 1.566406 -9.171875 1.707031 -9.234375 1.875 -9.234375 L 4.953125 -9.234375 C 6.148438 -9.234375 7.046875 -8.984375 7.640625 -8.484375 C 8.242188 -7.992188 8.546875 -7.347656 8.546875 -6.546875 C 8.546875 -6.015625 8.398438 -5.53125 8.109375 -5.09375 C 7.816406 -4.65625 7.390625 -4.34375 6.828125 -4.15625 C 7.453125 -3.988281 7.878906 -3.59375 8.109375 -2.96875 C 8.347656 -2.34375 8.46875 -1.734375 8.46875 -1.140625 L 8.46875 -0.53125 C 8.46875 -0.363281 8.410156 -0.222656 8.296875 -0.109375 C 8.179688 0.00390625 8.039062 0.0625 7.875 0.0625 C 7.6875 0.0625 7.535156 0.0078125 7.421875 -0.09375 C 7.316406 -0.207031 7.265625 -0.351562 7.265625 -0.53125 L 7.265625 -0.921875 C 7.265625 -1.367188 7.222656 -1.773438 7.140625 -2.140625 C 7.066406 -2.515625 6.878906 -2.847656 6.578125 -3.140625 C 6.285156 -3.441406 5.832031 -3.59375 5.21875 -3.59375 L 2.484375 -3.59375 L 2.484375 -0.53125 C 2.484375 -0.363281 2.421875 -0.222656 2.296875 -0.109375 C 2.179688 0.00390625 2.039062 0.0625 1.875 0.0625 Z M 4.875 -4.734375 C 5.632812 -4.734375 6.234375 -4.878906 6.671875 -5.171875 C 7.117188 -5.472656 7.34375 -5.898438 7.34375 -6.453125 C 7.34375 -6.984375 7.148438 -7.390625 6.765625 -7.671875 C 6.390625 -7.953125 5.738281 -8.09375 4.8125 -8.09375 L 2.484375 -8.09375 L 2.484375 -4.734375 Z M 4.875 -4.734375 "/></g></g></g><g fill="#ffffff" fill-opacity="1"><g transform="translate(91.016718, 22.456209)"><g><path d="M 5.359375 0.125 C 4.441406 0.125 3.632812 -0.0703125 2.9375 -0.46875 C 2.238281 -0.875 1.695312 -1.429688 1.3125 -2.140625 C 0.9375 -2.859375 0.742188 -3.679688 0.734375 -4.609375 C 0.742188 -5.535156 0.9375 -6.351562 1.3125 -7.0625 C 1.695312 -7.78125 2.238281 -8.34375 2.9375 -8.75 C 3.632812 -9.15625 4.441406 -9.359375 5.359375 -9.359375 C 6.285156 -9.359375 7.09375 -9.15625 7.78125 -8.75 C 8.476562 -8.34375 9.019531 -7.78125 9.40625 -7.0625 C 9.789062 -6.34375 9.988281 -5.523438 10 -4.609375 C 9.988281 -3.691406 9.789062 -2.875 9.40625 -2.15625 C 9.019531 -1.4375 8.476562 -0.875 7.78125 -0.46875 C 7.09375 -0.0703125 6.285156 0.125 5.359375 0.125 Z M 5.359375 -0.984375 C 6.066406 -0.984375 6.679688 -1.140625 7.203125 -1.453125 C 7.722656 -1.773438 8.117188 -2.207031 8.390625 -2.75 C 8.660156 -3.300781 8.796875 -3.921875 8.796875 -4.609375 C 8.796875 -5.296875 8.660156 -5.910156 8.390625 -6.453125 C 8.117188 -7.003906 7.722656 -7.4375 7.203125 -7.75 C 6.679688 -8.070312 6.066406 -8.234375 5.359375 -8.234375 C 4.648438 -8.234375 4.035156 -8.070312 3.515625 -7.75 C 3.003906 -7.4375 2.613281 -7.003906 2.34375 -6.453125 C 2.070312 -5.910156 1.9375 -5.296875 1.9375 -4.609375 C 1.9375 -3.921875 2.070312 -3.300781 2.34375 -2.75 C 2.613281 -2.207031 3.003906 -1.773438 3.515625 -1.453125 C 4.035156 -1.140625 4.648438 -0.984375 5.359375 -0.984375 Z M 5.359375 -0.984375 "/></g></g></g><g fill="#ffffff" fill-opacity="1"><g transform="translate(101.460669, 22.456209)"><g><path d="M 1.875 0.0625 C 1.707031 0.0625 1.566406 0.00390625 1.453125 -0.109375 C 1.335938 -0.222656 1.28125 -0.363281 1.28125 -0.53125 L 1.28125 -8.625 C 1.28125 -8.789062 1.335938 -8.929688 1.453125 -9.046875 C 1.566406 -9.171875 1.707031 -9.234375 1.875 -9.234375 L 4.890625 -9.234375 C 5.722656 -9.234375 6.40625 -9.085938 6.9375 -8.796875 C 7.46875 -8.515625 7.847656 -8.15625 8.078125 -7.71875 C 8.304688 -7.28125 8.421875 -6.804688 8.421875 -6.296875 C 8.421875 -5.785156 8.304688 -5.304688 8.078125 -4.859375 C 7.847656 -4.421875 7.46875 -4.0625 6.9375 -3.78125 C 6.40625 -3.5 5.722656 -3.359375 4.890625 -3.359375 L 2.484375 -3.359375 L 2.484375 -0.53125 C 2.484375 -0.363281 2.421875 -0.222656 2.296875 -0.109375 C 2.179688 0.00390625 2.039062 0.0625 1.875 0.0625 Z M 4.765625 -4.5 C 5.671875 -4.5 6.304688 -4.671875 6.671875 -5.015625 C 7.035156 -5.359375 7.21875 -5.785156 7.21875 -6.296875 C 7.21875 -6.804688 7.035156 -7.234375 6.671875 -7.578125 C 6.304688 -7.921875 5.671875 -8.09375 4.765625 -8.09375 L 2.484375 -8.09375 L 2.484375 -4.5 Z M 4.765625 -4.5 "/></g></g></g><g fill="#ffffff" fill-opacity="1"><g transform="translate(110.053777, 22.456209)"><g><path d="M 4.1875 0.125 C 3.070312 0.125 2.023438 -0.0820312 1.046875 -0.5 C 0.941406 -0.539062 0.851562 -0.613281 0.78125 -0.71875 C 0.707031 -0.820312 0.671875 -0.929688 0.671875 -1.046875 C 0.671875 -1.191406 0.722656 -1.316406 0.828125 -1.421875 C 0.929688 -1.535156 1.0625 -1.59375 1.21875 -1.59375 C 1.300781 -1.59375 1.382812 -1.578125 1.46875 -1.546875 C 2.28125 -1.179688 3.148438 -1 4.078125 -1 C 5.617188 -1 6.390625 -1.507812 6.390625 -2.53125 C 6.390625 -2.789062 6.289062 -3.007812 6.09375 -3.1875 C 5.894531 -3.363281 5.648438 -3.5 5.359375 -3.59375 C 5.066406 -3.695312 4.648438 -3.820312 4.109375 -3.96875 C 3.398438 -4.15625 2.820312 -4.332031 2.375 -4.5 C 1.9375 -4.675781 1.554688 -4.9375 1.234375 -5.28125 C 0.921875 -5.625 0.765625 -6.082031 0.765625 -6.65625 C 0.765625 -7.15625 0.894531 -7.609375 1.15625 -8.015625 C 1.425781 -8.421875 1.816406 -8.742188 2.328125 -8.984375 C 2.847656 -9.234375 3.46875 -9.359375 4.1875 -9.359375 C 5.15625 -9.359375 6.035156 -9.210938 6.828125 -8.921875 C 7.066406 -8.835938 7.1875 -8.660156 7.1875 -8.390625 C 7.1875 -8.253906 7.140625 -8.128906 7.046875 -8.015625 C 6.953125 -7.898438 6.820312 -7.84375 6.65625 -7.84375 C 6.601562 -7.84375 6.535156 -7.859375 6.453125 -7.890625 C 5.765625 -8.128906 5.054688 -8.25 4.328125 -8.25 C 3.628906 -8.25 3.0625 -8.113281 2.625 -7.84375 C 2.1875 -7.582031 1.96875 -7.210938 1.96875 -6.734375 C 1.96875 -6.421875 2.070312 -6.164062 2.28125 -5.96875 C 2.488281 -5.769531 2.75 -5.613281 3.0625 -5.5 C 3.375 -5.394531 3.796875 -5.28125 4.328125 -5.15625 C 5.023438 -4.988281 5.585938 -4.820312 6.015625 -4.65625 C 6.441406 -4.488281 6.804688 -4.226562 7.109375 -3.875 C 7.421875 -3.519531 7.578125 -3.046875 7.578125 -2.453125 C 7.578125 -1.953125 7.4375 -1.503906 7.15625 -1.109375 C 6.875 -0.722656 6.472656 -0.421875 5.953125 -0.203125 C 5.441406 0.015625 4.851562 0.125 4.1875 0.125 Z M 4.1875 0.125 "/></g></g></g></svg>