<svg xmlns="http://www.w3.org/2000/svg" xmlns:xlink="http://www.w3.org/1999/xlink" width="500" zoomAndPan="magnify" viewBox="0 0 375 374.999991" height="500" preserveAspectRatio="xMidYMid meet" version="1.0"><defs><clipPath id="5c6f88db95"><path d="M 13.089844 18.21875 L 361.839844 18.21875 L 361.839844 366.96875 L 13.089844 366.96875 Z M 13.089844 18.21875 " clip-rule="nonzero"/></clipPath></defs><g clip-path="url(#5c6f88db95)"><path fill="#058230" d="M 99.472656 18.21875 L 275.519531 18.21875 C 276.933594 18.21875 278.347656 18.25 279.757812 18.320312 C 281.171875 18.390625 282.578125 18.496094 283.988281 18.632812 C 285.394531 18.773438 286.796875 18.945312 288.195312 19.152344 C 289.59375 19.359375 290.984375 19.601562 292.371094 19.875 C 293.757812 20.152344 295.136719 20.460938 296.507812 20.804688 C 297.878906 21.148438 299.242188 21.527344 300.59375 21.9375 C 301.949219 22.347656 303.289062 22.789062 304.621094 23.265625 C 305.953125 23.742188 307.269531 24.25 308.574219 24.792969 C 309.882812 25.332031 311.175781 25.90625 312.453125 26.511719 C 313.730469 27.113281 314.992188 27.75 316.238281 28.417969 C 317.484375 29.082031 318.714844 29.78125 319.929688 30.507812 C 321.140625 31.234375 322.335938 31.988281 323.511719 32.773438 C 324.683594 33.558594 325.839844 34.375 326.976562 35.214844 C 328.113281 36.058594 329.226562 36.925781 330.320312 37.824219 C 331.410156 38.722656 332.480469 39.644531 333.527344 40.59375 C 334.578125 41.542969 335.601562 42.519531 336.601562 43.515625 C 337.597656 44.515625 338.574219 45.539062 339.523438 46.585938 C 340.472656 47.636719 341.394531 48.707031 342.292969 49.796875 C 343.1875 50.890625 344.058594 52.003906 344.902344 53.140625 C 345.742188 54.277344 346.558594 55.429688 347.34375 56.605469 C 348.128906 57.78125 348.882812 58.976562 349.609375 60.1875 C 350.335938 61.402344 351.035156 62.632812 351.699219 63.878906 C 352.367188 65.125 353.003906 66.386719 353.605469 67.664062 C 354.210938 68.941406 354.785156 70.234375 355.324219 71.539062 C 355.867188 72.847656 356.375 74.164062 356.851562 75.496094 C 357.328125 76.828125 357.769531 78.167969 358.179688 79.523438 C 358.589844 80.875 358.96875 82.238281 359.3125 83.609375 C 359.65625 84.980469 359.964844 86.359375 360.238281 87.746094 C 360.515625 89.132812 360.757812 90.523438 360.964844 91.921875 C 361.171875 93.320312 361.34375 94.722656 361.484375 96.128906 C 361.621094 97.539062 361.726562 98.945312 361.796875 100.359375 C 361.867188 101.769531 361.898438 103.183594 361.898438 104.597656 L 361.898438 280.644531 C 361.898438 282.058594 361.867188 283.472656 361.796875 284.882812 C 361.726562 286.296875 361.621094 287.707031 361.484375 289.113281 C 361.34375 290.519531 361.171875 291.921875 360.964844 293.320312 C 360.757812 294.71875 360.515625 296.109375 360.242188 297.496094 C 359.964844 298.882812 359.65625 300.261719 359.3125 301.632812 C 358.96875 303.003906 358.589844 304.367188 358.179688 305.71875 C 357.769531 307.074219 357.328125 308.414062 356.851562 309.746094 C 356.375 311.078125 355.867188 312.394531 355.324219 313.703125 C 354.785156 315.007812 354.210938 316.300781 353.605469 317.578125 C 353.003906 318.855469 352.367188 320.117188 351.699219 321.363281 C 351.035156 322.613281 350.335938 323.839844 349.609375 325.054688 C 348.882812 326.265625 348.128906 327.460938 347.34375 328.636719 C 346.558594 329.8125 345.742188 330.964844 344.902344 332.101562 C 344.058594 333.238281 343.1875 334.351562 342.292969 335.445312 C 341.394531 336.539062 340.472656 337.605469 339.523438 338.65625 C 338.574219 339.703125 337.597656 340.726562 336.601562 341.726562 C 335.601562 342.726562 334.578125 343.699219 333.527344 344.648438 C 332.480469 345.597656 331.410156 346.519531 330.320312 347.417969 C 329.226562 348.316406 328.113281 349.183594 326.976562 350.027344 C 325.839844 350.867188 324.683594 351.683594 323.511719 352.46875 C 322.335938 353.253906 321.140625 354.007812 319.929688 354.734375 C 318.714844 355.460938 317.484375 356.160156 316.238281 356.824219 C 314.992188 357.492188 313.730469 358.128906 312.453125 358.730469 C 311.175781 359.335938 309.882812 359.910156 308.574219 360.449219 C 307.269531 360.992188 305.953125 361.5 304.621094 361.976562 C 303.289062 362.453125 301.949219 362.894531 300.59375 363.304688 C 299.242188 363.714844 297.878906 364.09375 296.507812 364.4375 C 295.136719 364.78125 293.757812 365.089844 292.371094 365.367188 C 290.984375 365.640625 289.59375 365.882812 288.195312 366.089844 C 286.796875 366.296875 285.394531 366.472656 283.988281 366.609375 C 282.578125 366.75 281.171875 366.851562 279.757812 366.921875 C 278.347656 366.992188 276.933594 367.027344 275.519531 367.027344 L 99.472656 367.027344 C 98.058594 367.027344 96.644531 366.992188 95.234375 366.921875 C 93.820312 366.851562 92.410156 366.75 91.003906 366.609375 C 89.597656 366.472656 88.195312 366.296875 86.796875 366.089844 C 85.398438 365.882812 84.007812 365.640625 82.621094 365.367188 C 81.234375 365.089844 79.855469 364.78125 78.484375 364.4375 C 77.113281 364.09375 75.75 363.714844 74.398438 363.304688 C 73.042969 362.894531 71.703125 362.453125 70.371094 361.976562 C 69.039062 361.5 67.722656 360.992188 66.414062 360.449219 C 65.109375 359.910156 63.816406 359.335938 62.539062 358.730469 C 61.261719 358.128906 60 357.492188 58.753906 356.824219 C 57.503906 356.160156 56.277344 355.460938 55.0625 354.734375 C 53.851562 354.007812 52.65625 353.253906 51.480469 352.46875 C 50.304688 351.683594 49.152344 350.867188 48.015625 350.027344 C 46.878906 349.183594 45.765625 348.316406 44.671875 347.417969 C 43.578125 346.519531 42.507812 345.597656 41.460938 344.648438 C 40.414062 343.699219 39.390625 342.726562 38.390625 341.726562 C 37.390625 340.726562 36.417969 339.703125 35.46875 338.65625 C 34.519531 337.605469 33.59375 336.539062 32.699219 335.445312 C 31.800781 334.351562 30.933594 333.238281 30.089844 332.101562 C 29.25 330.964844 28.433594 329.8125 27.648438 328.636719 C 26.863281 327.460938 26.109375 326.265625 25.382812 325.054688 C 24.652344 323.839844 23.957031 322.613281 23.292969 321.363281 C 22.625 320.117188 21.988281 318.855469 21.386719 317.578125 C 20.78125 316.300781 20.207031 315.007812 19.667969 313.703125 C 19.125 312.394531 18.617188 311.078125 18.140625 309.746094 C 17.664062 308.414062 17.222656 307.074219 16.8125 305.71875 C 16.402344 304.367188 16.023438 303.003906 15.679688 301.632812 C 15.335938 300.261719 15.027344 298.882812 14.75 297.496094 C 14.476562 296.109375 14.234375 294.71875 14.027344 293.320312 C 13.820312 291.921875 13.644531 290.519531 13.507812 289.113281 C 13.367188 287.707031 13.265625 286.296875 13.195312 284.882812 C 13.125 283.472656 13.089844 282.058594 13.089844 280.644531 L 13.089844 104.597656 C 13.089844 103.183594 13.125 101.769531 13.195312 100.359375 C 13.265625 98.945312 13.367188 97.539062 13.507812 96.128906 C 13.644531 94.722656 13.820312 93.320312 14.027344 91.921875 C 14.234375 90.523438 14.476562 89.132812 14.75 87.746094 C 15.027344 86.359375 15.335938 84.980469 15.679688 83.609375 C 16.023438 82.238281 16.402344 80.875 16.8125 79.523438 C 17.222656 78.167969 17.664062 76.828125 18.140625 75.496094 C 18.617188 74.164062 19.125 72.847656 19.667969 71.539062 C 20.207031 70.234375 20.78125 68.941406 21.386719 67.664062 C 21.988281 66.386719 22.625 65.125 23.292969 63.878906 C 23.957031 62.632812 24.652344 61.402344 25.382812 60.1875 C 26.109375 58.976562 26.863281 57.78125 27.648438 56.605469 C 28.433594 55.429688 29.25 54.277344 30.089844 53.140625 C 30.933594 52.003906 31.800781 50.890625 32.699219 49.796875 C 33.59375 48.707031 34.519531 47.636719 35.46875 46.585938 C 36.417969 45.539062 37.390625 44.515625 38.390625 43.515625 C 39.390625 42.515625 40.414062 41.542969 41.460938 40.59375 C 42.507812 39.644531 43.578125 38.722656 44.671875 37.824219 C 45.765625 36.925781 46.878906 36.058594 48.015625 35.214844 C 49.152344 34.375 50.304688 33.558594 51.480469 32.773438 C 52.65625 31.988281 53.851562 31.234375 55.0625 30.507812 C 56.277344 29.78125 57.503906 29.082031 58.753906 28.417969 C 60 27.75 61.261719 27.113281 62.539062 26.511719 C 63.816406 25.90625 65.109375 25.332031 66.414062 24.792969 C 67.722656 24.25 69.039062 23.742188 70.371094 23.265625 C 71.703125 22.789062 73.042969 22.347656 74.398438 21.9375 C 75.75 21.527344 77.113281 21.148438 78.484375 20.804688 C 79.855469 20.460938 81.234375 20.152344 82.621094 19.875 C 84.007812 19.601562 85.398438 19.359375 86.796875 19.152344 C 88.195312 18.945312 89.597656 18.773438 91.003906 18.632812 C 92.410156 18.496094 93.820312 18.390625 95.234375 18.320312 C 96.644531 18.25 98.058594 18.21875 99.472656 18.21875 Z M 99.472656 18.21875 " fill-opacity="1" fill-rule="nonzero"/></g><path stroke-linecap="round" transform="matrix(12.499999, 0, 0, 12.499999, 29.380846, 37.499998)" fill="none" stroke-linejoin="round" d="M 2.249845 18.750002 C 4.917658 18.747814 7.573908 18.922502 10.218596 19.274377 C 12.862971 19.625939 15.472659 20.151565 18.047034 20.85094 C 18.773909 21.049065 19.499847 20.509065 19.499847 19.755002 L 19.499847 18.750002 M 3.749845 4.500001 L 3.749845 5.250001 C 3.749845 5.299376 3.745158 5.348126 3.73547 5.396251 C 3.726095 5.444688 3.71172 5.491563 3.69297 5.536876 C 3.673908 5.582501 3.651095 5.625626 3.623595 5.666563 C 3.596095 5.707501 3.565158 5.745626 3.53047 5.780313 C 3.49547 5.815001 3.457658 5.846251 3.41672 5.873751 C 3.375783 5.900938 3.332658 5.924063 3.287033 5.942813 C 3.241408 5.961876 3.194533 5.975938 3.146408 5.985626 C 3.09797 5.995313 3.04922 6.000001 2.999845 6.000001 L 2.249845 6.000001 M 2.249845 6.000001 L 2.249845 5.625001 C 2.249845 5.004063 2.753908 4.500001 3.374845 4.500001 L 20.249847 4.500001 M 2.249845 6.000001 L 2.249845 15.000002 M 20.249847 4.500001 L 20.249847 5.250001 C 20.249847 5.664063 20.586097 6.000001 20.999847 6.000001 L 21.749847 6.000001 M 20.249847 4.500001 L 20.624847 4.500001 C 21.246097 4.500001 21.749847 5.004063 21.749847 5.625001 L 21.749847 15.375002 C 21.749847 15.995939 21.246097 16.500002 20.624847 16.500002 L 20.249847 16.500002 M 21.749847 15.000002 L 20.999847 15.000002 C 20.950784 15.000002 20.902034 15.004689 20.853597 15.014377 C 20.805472 15.024064 20.758597 15.038127 20.712972 15.057189 C 20.667347 15.075939 20.624222 15.099064 20.583284 15.126252 C 20.542347 15.153752 20.504534 15.185002 20.469534 15.219689 C 20.434847 15.254377 20.403909 15.292502 20.376409 15.333439 C 20.348909 15.374377 20.325784 15.417502 20.307034 15.463127 C 20.288284 15.508439 20.273909 15.555314 20.264534 15.603752 C 20.254847 15.651877 20.249847 15.700627 20.249847 15.750002 L 20.249847 16.500002 M 20.249847 16.500002 L 3.749845 16.500002 M 3.749845 16.500002 L 3.374845 16.500002 C 3.301095 16.500002 3.22797 16.492814 3.15547 16.478439 C 3.08297 16.464064 3.012658 16.442502 2.944533 16.414377 C 2.876095 16.385939 2.811408 16.351564 2.749845 16.310314 C 2.688595 16.269377 2.63172 16.222814 2.579533 16.170627 C 2.527345 16.118127 2.480783 16.061564 2.439533 16.000002 C 2.398595 15.938439 2.363908 15.873752 2.335783 15.805627 C 2.307345 15.737189 2.286095 15.666877 2.27172 15.594377 C 2.257345 15.521877 2.249845 15.448752 2.249845 15.375002 L 2.249845 15.000002 M 3.749845 16.500002 L 3.749845 15.750002 C 3.749845 15.700627 3.745158 15.651877 3.73547 15.603752 C 3.726095 15.555314 3.71172 15.508439 3.69297 15.463127 C 3.673908 15.417502 3.651095 15.374377 3.623595 15.333439 C 3.596095 15.292502 3.565158 15.254377 3.53047 15.219689 C 3.49547 15.185002 3.457658 15.153752 3.41672 15.126252 C 3.375783 15.099064 3.332658 15.075939 3.287033 15.057189 C 3.241408 15.038127 3.194533 15.024064 3.146408 15.014377 C 3.09797 15.004689 3.04922 15.000002 2.999845 15.000002 L 2.249845 15.000002 M 14.999846 10.500001 C 14.999846 10.598126 14.995159 10.696251 14.985471 10.794064 C 14.975784 10.891876 14.961409 10.988751 14.942346 11.085314 C 14.923284 11.181564 14.899221 11.276876 14.870784 11.370939 C 14.842346 11.465001 14.809221 11.557189 14.771721 11.648126 C 14.733909 11.738751 14.692034 11.827501 14.645784 11.914064 C 14.599534 12.000939 14.548909 12.085001 14.494534 12.166564 C 14.439846 12.248439 14.381409 12.327189 14.318909 12.403126 C 14.256721 12.479064 14.190784 12.551876 14.121409 12.621251 C 14.051721 12.690939 13.979221 12.756564 13.903284 12.819064 C 13.827346 12.881251 13.748284 12.939689 13.666721 12.994376 C 13.585159 13.049064 13.500784 13.099376 13.414221 13.145626 C 13.327659 13.192189 13.238909 13.234064 13.147971 13.271564 C 13.057346 13.309376 12.964846 13.342189 12.870783 13.370939 C 12.776721 13.399376 12.681721 13.423126 12.585158 13.442501 C 12.488908 13.461564 12.391721 13.475939 12.293908 13.485626 C 12.196408 13.495314 12.098283 13.500001 11.999846 13.500001 C 11.901721 13.500001 11.803596 13.495314 11.706096 13.485626 C 11.608283 13.475939 11.511096 13.461564 11.414846 13.442501 C 11.318283 13.423126 11.223283 13.399376 11.129221 13.370939 C 11.035158 13.342189 10.942658 13.309376 10.852033 13.271564 C 10.761096 13.234064 10.672346 13.192189 10.585783 13.145626 C 10.499221 13.099376 10.414846 13.049064 10.333283 12.994376 C 10.251721 12.939689 10.172658 12.881251 10.096721 12.819064 C 10.020783 12.756564 9.948283 12.690939 9.878596 12.621251 C 9.809221 12.551876 9.743283 12.479064 9.681096 12.403126 C 9.618596 12.327189 9.560158 12.248439 9.505471 12.166564 C 9.451096 12.085001 9.400471 12.000939 9.354221 11.914064 C 9.307971 11.827501 9.266096 11.738751 9.228283 11.648126 C 9.190783 11.557189 9.157658 11.465001 9.129221 11.370939 C 9.100783 11.276876 9.076721 11.181564 9.057658 11.085314 C 9.038596 10.988751 9.024221 10.891876 9.014533 10.794064 C 9.004846 10.696251 8.999846 10.598126 8.999846 10.500001 C 8.999846 10.401876 9.004846 10.303751 9.014533 10.205939 C 9.024221 10.108126 9.038596 10.010939 9.057658 9.914689 C 9.076721 9.818439 9.100783 9.723126 9.129221 9.629064 C 9.157658 9.535001 9.190783 9.442814 9.228283 9.351876 C 9.266096 9.261251 9.307971 9.172501 9.354221 9.085939 C 9.400471 8.999064 9.451096 8.915001 9.505471 8.833439 C 9.560158 8.751563 9.618596 8.672813 9.681096 8.596876 C 9.743283 8.520938 9.809221 8.448126 9.878596 8.378751 C 9.948283 8.309063 10.020783 8.243438 10.096721 8.180938 C 10.172658 8.118751 10.251721 8.060313 10.333283 8.005626 C 10.414846 7.950938 10.499221 7.900626 10.585783 7.854376 C 10.672346 7.807813 10.761096 7.765938 10.852033 7.728438 C 10.942658 7.690626 11.035158 7.657813 11.129221 7.629063 C 11.223283 7.600626 11.318283 7.576876 11.414846 7.557501 C 11.511096 7.538438 11.608283 7.524063 11.706096 7.514376 C 11.803596 7.504688 11.901721 7.500001 11.999846 7.500001 C 12.098283 7.500001 12.196408 7.504688 12.293908 7.514376 C 12.391721 7.524063 12.488908 7.538438 12.585158 7.557501 C 12.681721 7.576876 12.776721 7.600626 12.870783 7.629063 C 12.964846 7.657813 13.057346 7.690626 13.147971 7.728438 C 13.238909 7.765938 13.327659 7.807813 13.414221 7.854376 C 13.500784 7.900626 13.585159 7.950938 13.666721 8.005626 C 13.748284 8.060313 13.827346 8.118751 13.903284 8.180938 C 13.979221 8.243438 14.051721 8.309063 14.121409 8.378751 C 14.190784 8.448126 14.256721 8.520938 14.318909 8.596876 C 14.381409 8.672813 14.439846 8.751563 14.494534 8.833439 C 14.548909 8.915001 14.599534 8.999064 14.645784 9.085939 C 14.692034 9.172501 14.733909 9.261251 14.771721 9.351876 C 14.809221 9.442814 14.842346 9.535001 14.870784 9.629064 C 14.899221 9.723126 14.923284 9.818439 14.942346 9.914689 C 14.961409 10.010939 14.975784 10.108126 14.985471 10.205939 C 14.995159 10.303751 14.999846 10.401876 14.999846 10.500001 Z M 17.999846 10.500001 L 18.007971 10.500001 L 18.007971 10.508126 L 17.999846 10.508126 Z M 5.999845 10.500001 L 6.00797 10.500001 L 6.00797 10.508126 L 5.999845 10.508126 Z M 5.999845 10.500001 " stroke="#ffffff" stroke-width="1.5" stroke-opacity="1" stroke-miterlimit="4"/></svg>