<svg xmlns="http://www.w3.org/2000/svg" xmlns:xlink="http://www.w3.org/1999/xlink" width="500" zoomAndPan="magnify" viewBox="0 0 375 374.999991" height="500" preserveAspectRatio="xMidYMid meet" version="1.0"><defs><clipPath id="45d5705914"><path d="M 13.089844 18.21875 L 361.839844 18.21875 L 361.839844 366.96875 L 13.089844 366.96875 Z M 13.089844 18.21875 " clip-rule="nonzero"/></clipPath><clipPath id="40e4dcadfe"><path d="M 50 52.910156 L 329 52.910156 L 329 332 L 50 332 Z M 50 52.910156 " clip-rule="nonzero"/></clipPath></defs><g clip-path="url(#45d5705914)"><path fill="#311bd0" d="M 99.472656 18.21875 L 275.519531 18.21875 C 276.933594 18.21875 278.347656 18.25 279.757812 18.320312 C 281.171875 18.390625 282.578125 18.496094 283.988281 18.632812 C 285.394531 18.773438 286.796875 18.945312 288.195312 19.152344 C 289.59375 19.359375 290.984375 19.601562 292.371094 19.875 C 293.757812 20.152344 295.136719 20.460938 296.507812 20.804688 C 297.878906 21.148438 299.242188 21.527344 300.59375 21.9375 C 301.949219 22.347656 303.289062 22.789062 304.621094 23.265625 C 305.953125 23.742188 307.269531 24.25 308.574219 24.792969 C 309.882812 25.332031 311.175781 25.90625 312.453125 26.511719 C 313.730469 27.113281 314.992188 27.75 316.238281 28.417969 C 317.484375 29.082031 318.714844 29.78125 319.929688 30.507812 C 321.140625 31.234375 322.335938 31.988281 323.511719 32.773438 C 324.683594 33.558594 325.839844 34.375 326.976562 35.214844 C 328.113281 36.058594 329.226562 36.925781 330.320312 37.824219 C 331.410156 38.722656 332.480469 39.644531 333.527344 40.59375 C 334.578125 41.542969 335.601562 42.519531 336.601562 43.515625 C 337.597656 44.515625 338.574219 45.539062 339.523438 46.585938 C 340.472656 47.636719 341.394531 48.707031 342.292969 49.796875 C 343.1875 50.890625 344.058594 52.003906 344.902344 53.140625 C 345.742188 54.277344 346.558594 55.429688 347.34375 56.605469 C 348.128906 57.78125 348.882812 58.976562 349.609375 60.1875 C 350.335938 61.402344 351.035156 62.632812 351.699219 63.878906 C 352.367188 65.125 353.003906 66.386719 353.605469 67.664062 C 354.210938 68.941406 354.785156 70.234375 355.324219 71.539062 C 355.867188 72.847656 356.375 74.164062 356.851562 75.496094 C 357.328125 76.828125 357.769531 78.167969 358.179688 79.523438 C 358.589844 80.875 358.96875 82.238281 359.3125 83.609375 C 359.65625 84.980469 359.964844 86.359375 360.238281 87.746094 C 360.515625 89.132812 360.757812 90.523438 360.964844 91.921875 C 361.171875 93.320312 361.34375 94.722656 361.484375 96.128906 C 361.621094 97.539062 361.726562 98.945312 361.796875 100.359375 C 361.867188 101.769531 361.898438 103.183594 361.898438 104.597656 L 361.898438 280.644531 C 361.898438 282.058594 361.867188 283.472656 361.796875 284.882812 C 361.726562 286.296875 361.621094 287.707031 361.484375 289.113281 C 361.34375 290.519531 361.171875 291.921875 360.964844 293.320312 C 360.757812 294.71875 360.515625 296.109375 360.242188 297.496094 C 359.964844 298.882812 359.65625 300.261719 359.3125 301.632812 C 358.96875 303.003906 358.589844 304.367188 358.179688 305.71875 C 357.769531 307.074219 357.328125 308.414062 356.851562 309.746094 C 356.375 311.078125 355.867188 312.394531 355.324219 313.703125 C 354.785156 315.007812 354.210938 316.300781 353.605469 317.578125 C 353.003906 318.855469 352.367188 320.117188 351.699219 321.363281 C 351.035156 322.613281 350.335938 323.839844 349.609375 325.054688 C 348.882812 326.265625 348.128906 327.460938 347.34375 328.636719 C 346.558594 329.8125 345.742188 330.964844 344.902344 332.101562 C 344.058594 333.238281 343.1875 334.351562 342.292969 335.445312 C 341.394531 336.539062 340.472656 337.605469 339.523438 338.65625 C 338.574219 339.703125 337.597656 340.726562 336.601562 341.726562 C 335.601562 342.726562 334.578125 343.699219 333.527344 344.648438 C 332.480469 345.597656 331.410156 346.519531 330.320312 347.417969 C 329.226562 348.316406 328.113281 349.183594 326.976562 350.027344 C 325.839844 350.867188 324.683594 351.683594 323.511719 352.46875 C 322.335938 353.253906 321.140625 354.007812 319.929688 354.734375 C 318.714844 355.460938 317.484375 356.160156 316.238281 356.824219 C 314.992188 357.492188 313.730469 358.128906 312.453125 358.730469 C 311.175781 359.335938 309.882812 359.910156 308.574219 360.449219 C 307.269531 360.992188 305.953125 361.5 304.621094 361.976562 C 303.289062 362.453125 301.949219 362.894531 300.59375 363.304688 C 299.242188 363.714844 297.878906 364.09375 296.507812 364.4375 C 295.136719 364.78125 293.757812 365.089844 292.371094 365.367188 C 290.984375 365.640625 289.59375 365.882812 288.195312 366.089844 C 286.796875 366.296875 285.394531 366.472656 283.988281 366.609375 C 282.578125 366.75 281.171875 366.851562 279.757812 366.921875 C 278.347656 366.992188 276.933594 367.027344 275.519531 367.027344 L 99.472656 367.027344 C 98.058594 367.027344 96.644531 366.992188 95.234375 366.921875 C 93.820312 366.851562 92.410156 366.75 91.003906 366.609375 C 89.597656 366.472656 88.195312 366.296875 86.796875 366.089844 C 85.398438 365.882812 84.007812 365.640625 82.621094 365.367188 C 81.234375 365.089844 79.855469 364.78125 78.484375 364.4375 C 77.113281 364.09375 75.75 363.714844 74.398438 363.304688 C 73.042969 362.894531 71.703125 362.453125 70.371094 361.976562 C 69.039062 361.5 67.722656 360.992188 66.414062 360.449219 C 65.109375 359.910156 63.816406 359.335938 62.539062 358.730469 C 61.261719 358.128906 60 357.492188 58.753906 356.824219 C 57.503906 356.160156 56.277344 355.460938 55.0625 354.734375 C 53.851562 354.007812 52.65625 353.253906 51.480469 352.46875 C 50.304688 351.683594 49.152344 350.867188 48.015625 350.027344 C 46.878906 349.183594 45.765625 348.316406 44.671875 347.417969 C 43.578125 346.519531 42.507812 345.597656 41.460938 344.648438 C 40.414062 343.699219 39.390625 342.726562 38.390625 341.726562 C 37.390625 340.726562 36.417969 339.703125 35.46875 338.65625 C 34.519531 337.605469 33.59375 336.539062 32.699219 335.445312 C 31.800781 334.351562 30.933594 333.238281 30.089844 332.101562 C 29.25 330.964844 28.433594 329.8125 27.648438 328.636719 C 26.863281 327.460938 26.109375 326.265625 25.382812 325.054688 C 24.652344 323.839844 23.957031 322.613281 23.292969 321.363281 C 22.625 320.117188 21.988281 318.855469 21.386719 317.578125 C 20.78125 316.300781 20.207031 315.007812 19.667969 313.703125 C 19.125 312.394531 18.617188 311.078125 18.140625 309.746094 C 17.664062 308.414062 17.222656 307.074219 16.8125 305.71875 C 16.402344 304.367188 16.023438 303.003906 15.679688 301.632812 C 15.335938 300.261719 15.027344 298.882812 14.75 297.496094 C 14.476562 296.109375 14.234375 294.71875 14.027344 293.320312 C 13.820312 291.921875 13.644531 290.519531 13.507812 289.113281 C 13.367188 287.707031 13.265625 286.296875 13.195312 284.882812 C 13.125 283.472656 13.089844 282.058594 13.089844 280.644531 L 13.089844 104.597656 C 13.089844 103.183594 13.125 101.769531 13.195312 100.359375 C 13.265625 98.945312 13.367188 97.539062 13.507812 96.128906 C 13.644531 94.722656 13.820312 93.320312 14.027344 91.921875 C 14.234375 90.523438 14.476562 89.132812 14.75 87.746094 C 15.027344 86.359375 15.335938 84.980469 15.679688 83.609375 C 16.023438 82.238281 16.402344 80.875 16.8125 79.523438 C 17.222656 78.167969 17.664062 76.828125 18.140625 75.496094 C 18.617188 74.164062 19.125 72.847656 19.667969 71.539062 C 20.207031 70.234375 20.78125 68.941406 21.386719 67.664062 C 21.988281 66.386719 22.625 65.125 23.292969 63.878906 C 23.957031 62.632812 24.652344 61.402344 25.382812 60.1875 C 26.109375 58.976562 26.863281 57.78125 27.648438 56.605469 C 28.433594 55.429688 29.25 54.277344 30.089844 53.140625 C 30.933594 52.003906 31.800781 50.890625 32.699219 49.796875 C 33.59375 48.707031 34.519531 47.636719 35.46875 46.585938 C 36.417969 45.539062 37.390625 44.515625 38.390625 43.515625 C 39.390625 42.515625 40.414062 41.542969 41.460938 40.59375 C 42.507812 39.644531 43.578125 38.722656 44.671875 37.824219 C 45.765625 36.925781 46.878906 36.058594 48.015625 35.214844 C 49.152344 34.375 50.304688 33.558594 51.480469 32.773438 C 52.65625 31.988281 53.851562 31.234375 55.0625 30.507812 C 56.277344 29.78125 57.503906 29.082031 58.753906 28.417969 C 60 27.75 61.261719 27.113281 62.539062 26.511719 C 63.816406 25.90625 65.109375 25.332031 66.414062 24.792969 C 67.722656 24.25 69.039062 23.742188 70.371094 23.265625 C 71.703125 22.789062 73.042969 22.347656 74.398438 21.9375 C 75.75 21.527344 77.113281 21.148438 78.484375 20.804688 C 79.855469 20.460938 81.234375 20.152344 82.621094 19.875 C 84.007812 19.601562 85.398438 19.359375 86.796875 19.152344 C 88.195312 18.945312 89.597656 18.773438 91.003906 18.632812 C 92.410156 18.496094 93.820312 18.390625 95.234375 18.320312 C 96.644531 18.25 98.058594 18.21875 99.472656 18.21875 Z M 99.472656 18.21875 " fill-opacity="1" fill-rule="nonzero"/></g><g clip-path="url(#40e4dcadfe)"><path fill="#ffffff" d="M 253.058594 186.316406 C 251.910156 183.859375 250.832031 181.371094 249.765625 178.992188 C 259.992188 171.191406 262.851562 162.90625 258.753906 153.6875 C 254.652344 144.46875 246.460938 141.21875 233.035156 143.699219 C 229.832031 136.921875 226.582031 130.078125 223.351562 123.226562 C 217.015625 109.773438 210.796875 96.261719 204.320312 82.878906 C 203.964844 82.125 203.546875 81.410156 203.066406 80.734375 C 202.585938 80.054688 202.050781 79.421875 201.460938 78.835938 C 200.871094 78.25 200.238281 77.71875 199.554688 77.242188 C 198.875 76.769531 198.15625 76.355469 197.402344 76.003906 C 196.648438 75.652344 195.871094 75.367188 195.070312 75.148438 C 194.265625 74.933594 193.453125 74.785156 192.625 74.710938 C 191.796875 74.636719 190.96875 74.632812 190.140625 74.699219 C 189.3125 74.765625 188.496094 74.90625 187.691406 75.113281 C 186.886719 75.324219 186.105469 75.601562 185.347656 75.945312 C 184.589844 76.289062 183.871094 76.695312 183.183594 77.164062 C 182.5 77.632812 181.859375 78.160156 181.261719 78.738281 C 180.667969 79.320312 180.125 79.945312 179.640625 80.621094 C 179.152344 81.296875 178.726562 82.003906 178.363281 82.753906 C 178 83.5 177.703125 84.273438 177.476562 85.074219 C 177.246094 85.871094 177.085938 86.683594 176.996094 87.511719 C 176.910156 88.335938 176.890625 89.164062 176.945312 89.996094 C 179.097656 103.855469 174.664062 116.023438 167.691406 127.457031 C 165.074219 131.707031 162.191406 135.773438 159.046875 139.652344 C 155.90625 143.535156 152.527344 147.199219 148.914062 150.644531 C 145.296875 154.089844 141.476562 157.292969 137.453125 160.246094 C 133.425781 163.203125 129.230469 165.886719 124.859375 168.300781 C 108.953125 177.316406 92.199219 184.910156 75.695312 192.882812 C 54.800781 202.941406 45.3125 224.550781 52.53125 245.578125 C 52.972656 246.820312 53.46875 248.042969 54.023438 249.238281 C 54.578125 250.433594 55.1875 251.601562 55.851562 252.742188 C 56.515625 253.878906 57.230469 254.984375 58 256.054688 C 58.769531 257.125 59.585938 258.160156 60.453125 259.152344 C 61.316406 260.148438 62.230469 261.097656 63.183594 262.007812 C 64.140625 262.917969 65.136719 263.777344 66.171875 264.59375 C 67.210938 265.40625 68.28125 266.171875 69.390625 266.882812 C 70.5 267.597656 71.640625 268.257812 72.8125 268.863281 C 73.980469 269.46875 75.179688 270.019531 76.402344 270.511719 C 77.625 271.003906 78.867188 271.4375 80.132812 271.816406 C 81.394531 272.191406 82.671875 272.507812 83.96875 272.761719 C 85.261719 273.015625 86.5625 273.210938 87.875 273.34375 C 89.1875 273.476562 90.5 273.546875 91.820312 273.554688 C 93.136719 273.5625 94.453125 273.511719 95.765625 273.394531 C 97.082031 273.277344 98.386719 273.101562 99.683594 272.863281 C 100.980469 272.625 102.261719 272.324219 103.53125 271.964844 C 106.21875 271.140625 107.542969 272.074219 108.910156 274.289062 C 112.90625 280.769531 117.128906 287.113281 121.257812 293.515625 C 127.730469 303.550781 134.148438 313.628906 140.695312 323.617188 C 141.117188 324.328125 141.59375 325.003906 142.125 325.640625 C 142.65625 326.277344 143.230469 326.871094 143.855469 327.417969 C 144.476562 327.964844 145.136719 328.460938 145.835938 328.902344 C 146.539062 329.347656 147.269531 329.734375 148.027344 330.0625 C 148.789062 330.390625 149.570312 330.660156 150.375 330.867188 C 151.175781 331.074219 151.988281 331.214844 152.816406 331.296875 C 153.640625 331.375 154.464844 331.386719 155.292969 331.339844 C 156.121094 331.289062 156.9375 331.175781 157.75 330.996094 C 158.53125 330.914062 159.304688 330.773438 160.0625 330.566406 C 160.824219 330.359375 161.5625 330.09375 162.277344 329.765625 C 162.992188 329.4375 163.679688 329.054688 164.332031 328.613281 C 164.984375 328.171875 165.597656 327.683594 166.171875 327.144531 C 166.746094 326.601562 167.269531 326.019531 167.746094 325.390625 C 168.222656 324.765625 168.648438 324.105469 169.015625 323.410156 C 169.382812 322.710938 169.695312 321.992188 169.945312 321.246094 C 170.195312 320.5 170.382812 319.734375 170.507812 318.957031 C 170.789062 316.679688 170.765625 314.402344 170.441406 312.128906 C 170.117188 309.855469 169.5 307.664062 168.59375 305.554688 C 163.253906 293.046875 157.171875 280.863281 151.394531 268.585938 C 166.46875 260.148438 167.914062 257.695312 164.769531 246.082031 C 165.292969 245.679688 165.863281 245.347656 166.472656 245.089844 C 175.152344 242.265625 184.035156 240.402344 193.113281 239.5 C 202.195312 238.597656 211.269531 238.675781 220.335938 239.738281 C 223.445312 240.03125 226.507812 240.582031 229.527344 241.386719 C 232.546875 242.191406 235.480469 243.238281 238.324219 244.53125 C 241.167969 245.820312 243.886719 247.339844 246.480469 249.082031 C 249.070312 250.828125 251.503906 252.773438 253.769531 254.917969 C 260.046875 261.253906 267.546875 262.351562 273.777344 257.925781 C 279.882812 253.589844 281.308594 246.402344 277.574219 238.433594 C 269.40625 221.054688 261.234375 203.683594 253.058594 186.316406 Z M 249.308594 157.464844 C 251.503906 161.804688 250.324219 165.488281 245.078125 169.277344 L 237.703125 153.644531 C 243.59375 152.03125 247.21875 153.363281 249.308594 157.464844 Z M 98.660156 262.453125 C 97.769531 262.679688 96.867188 262.867188 95.957031 263.011719 C 95.046875 263.15625 94.132812 263.257812 93.210938 263.320312 C 92.292969 263.382812 91.371094 263.402344 90.449219 263.382812 C 89.527344 263.359375 88.609375 263.296875 87.695312 263.191406 C 86.78125 263.085938 85.871094 262.9375 84.96875 262.75 C 84.066406 262.5625 83.175781 262.332031 82.292969 262.0625 C 81.410156 261.792969 80.542969 261.484375 79.691406 261.136719 C 78.835938 260.789062 78 260.402344 77.183594 259.976562 C 76.367188 259.554688 75.566406 259.09375 74.792969 258.597656 C 74.015625 258.097656 73.265625 257.566406 72.535156 257.003906 C 71.808594 256.4375 71.105469 255.839844 70.433594 255.210938 C 69.761719 254.582031 69.117188 253.921875 68.503906 253.234375 C 67.890625 252.546875 67.308594 251.835938 66.757812 251.09375 C 66.210938 250.351562 65.695312 249.589844 65.21875 248.800781 C 64.738281 248.015625 64.296875 247.207031 63.890625 246.378906 C 63.484375 245.550781 63.117188 244.707031 62.789062 243.847656 C 62.421875 243.003906 62.09375 242.144531 61.800781 241.273438 C 61.511719 240.398438 61.261719 239.515625 61.046875 238.617188 C 60.835938 237.722656 60.664062 236.820312 60.53125 235.910156 C 60.402344 235 60.308594 234.085938 60.257812 233.164062 C 60.210938 232.246094 60.199219 231.328125 60.230469 230.40625 C 60.261719 229.488281 60.332031 228.570312 60.445312 227.660156 C 60.558594 226.746094 60.710938 225.839844 60.902344 224.9375 C 61.097656 224.039062 61.328125 223.148438 61.601562 222.269531 C 61.871094 221.390625 62.183594 220.527344 62.53125 219.675781 C 62.882812 218.824219 63.265625 217.988281 63.691406 217.171875 C 64.113281 216.355469 64.570312 215.558594 65.0625 214.78125 C 65.558594 214.003906 66.085938 213.25 66.644531 212.519531 C 67.207031 211.792969 67.796875 211.089844 68.421875 210.410156 C 69.042969 209.734375 69.695312 209.085938 70.375 208.464844 C 71.058594 207.847656 71.761719 207.257812 72.496094 206.703125 C 73.230469 206.144531 73.984375 205.621094 74.765625 205.132812 C 83.75 199.773438 93.5625 195.769531 103.523438 190.894531 C 112.707031 210.414062 121.65625 229.390625 130.9375 249.09375 C 120.4375 254.167969 109.675781 258.621094 98.660156 262.453125 Z M 159.601562 309.992188 C 161.953125 314.996094 161.359375 318.71875 157.699219 320.347656 C 153.457031 322.230469 150.5625 320.308594 148.207031 316.625 C 137.726562 300.1875 127.101562 283.828125 116.242188 266.992188 L 134.886719 258.171875 C 135.628906 259.476562 136.363281 260.585938 136.921875 261.789062 C 144.5 277.84375 152.058594 293.910156 159.601562 309.992188 Z M 146.875 258.59375 C 146.152344 257.144531 145.386719 255.699219 144.34375 253.628906 L 154.039062 249.328125 C 156.925781 254.886719 156.246094 255.699219 146.875 258.59375 Z M 269.355469 247.835938 C 269.023438 248.625 268.476562 249.21875 267.714844 249.613281 C 265.585938 249.113281 262.773438 249.308594 261.433594 248 C 258.925781 245.609375 256.242188 243.425781 253.390625 241.453125 C 250.539062 239.480469 247.554688 237.742188 244.429688 236.234375 C 241.308594 234.730469 238.085938 233.476562 234.765625 232.472656 C 231.449219 231.46875 228.070312 230.730469 224.636719 230.253906 C 200.777344 226.28125 177.789062 230.296875 155.277344 238.148438 C 150.253906 239.898438 145.351562 242 139.863281 244.152344 C 130.742188 224.761719 121.867188 205.894531 113.472656 188.074219 C 126.386719 179.082031 139.425781 171.132812 151.140625 161.566406 C 168.046875 147.761719 181.242188 130.894531 186.105469 108.941406 C 187.125 103.5 187.546875 98.011719 187.363281 92.480469 C 187.363281 89.457031 186.339844 86.234375 190.03125 85.054688 C 194.214844 83.710938 195.183594 87.34375 196.496094 90.113281 C 210.039062 118.90625 223.582031 147.691406 237.117188 176.464844 C 247.199219 197.886719 257.289062 219.308594 267.378906 240.726562 C 267.742188 241.527344 268.007812 242.027344 268.421875 243.074219 C 269.789062 246.527344 269.476562 247.515625 269.355469 247.839844 Z M 233.207031 76.945312 C 232.980469 76.460938 232.820312 75.953125 232.726562 75.425781 C 232.636719 74.898438 232.613281 74.371094 232.660156 73.835938 C 232.707031 73.304688 232.824219 72.785156 233.007812 72.28125 C 233.195312 71.78125 233.441406 71.3125 233.75 70.875 C 237.132812 65.8125 240.566406 60.75 244.046875 55.804688 C 244.65625 54.894531 245.441406 54.183594 246.410156 53.671875 C 247.375 53.15625 248.40625 52.90625 249.5 52.910156 C 250.636719 52.953125 251.695312 53.265625 252.671875 53.851562 C 253.652344 54.4375 254.429688 55.222656 255.003906 56.203125 L 255.414062 56.8125 L 255.238281 57.535156 C 255.183594 57.921875 255.125 58.3125 255.085938 58.730469 C 255.015625 59.972656 254.679688 61.136719 254.074219 62.222656 C 250.640625 67.515625 246.988281 72.785156 243.527344 77.691406 C 242.90625 78.617188 242.097656 79.324219 241.097656 79.816406 C 240.621094 80.042969 240.125 80.199219 239.609375 80.292969 C 239.089844 80.382812 238.570312 80.40625 238.046875 80.355469 C 237.519531 80.308594 237.011719 80.191406 236.519531 80.003906 C 236.027344 79.820312 235.570312 79.574219 235.144531 79.261719 C 234.296875 78.660156 233.644531 77.890625 233.191406 76.953125 Z M 327.359375 230.6875 L 326.925781 231.269531 L 326.203125 231.351562 C 325.820312 231.425781 325.4375 231.507812 325.027344 231.609375 C 323.839844 231.949219 322.636719 232.019531 321.414062 231.816406 C 315.269531 230.34375 309.089844 228.664062 303.3125 227.035156 C 302.230469 226.761719 301.292969 226.234375 300.5 225.457031 C 300.128906 225.082031 299.816406 224.667969 299.554688 224.210938 C 299.296875 223.753906 299.105469 223.273438 298.976562 222.765625 C 298.847656 222.253906 298.789062 221.738281 298.796875 221.214844 C 298.808594 220.6875 298.886719 220.175781 299.035156 219.671875 C 299.140625 219.292969 299.285156 218.929688 299.460938 218.578125 C 299.640625 218.226562 299.851562 217.898438 300.09375 217.589844 C 300.335938 217.277344 300.609375 216.996094 300.90625 216.742188 C 301.207031 216.484375 301.527344 216.261719 301.871094 216.070312 C 302.214844 215.875 302.574219 215.71875 302.945312 215.597656 C 303.320312 215.476562 303.703125 215.390625 304.09375 215.347656 C 304.484375 215.300781 304.875 215.292969 305.269531 215.324219 C 305.660156 215.351562 306.046875 215.421875 306.425781 215.527344 C 312.332031 217.027344 318.238281 218.578125 324.066406 220.210938 C 325.132812 220.480469 326.066406 220.984375 326.875 221.726562 C 327.683594 222.46875 328.265625 223.359375 328.621094 224.394531 C 328.964844 225.484375 329.023438 226.585938 328.796875 227.703125 C 328.574219 228.820312 328.09375 229.8125 327.359375 230.6875 Z M 305.203125 133.285156 C 299.886719 136.691406 294.390625 139.992188 289.214844 143.046875 C 288.265625 143.632812 287.238281 143.945312 286.125 143.976562 C 285.597656 143.988281 285.078125 143.929688 284.570312 143.796875 C 284.058594 143.667969 283.574219 143.472656 283.117188 143.210938 C 282.660156 142.953125 282.246094 142.636719 281.875 142.261719 C 281.5 141.890625 281.183594 141.476562 280.925781 141.019531 C 280.726562 140.675781 280.5625 140.320312 280.433594 139.945312 C 280.304688 139.574219 280.210938 139.191406 280.160156 138.800781 C 280.105469 138.410156 280.089844 138.015625 280.113281 137.621094 C 280.136719 137.226562 280.199219 136.839844 280.300781 136.457031 C 280.402344 136.078125 280.539062 135.707031 280.714844 135.355469 C 280.886719 135 281.09375 134.664062 281.332031 134.351562 C 281.574219 134.039062 281.839844 133.75 282.136719 133.488281 C 282.433594 133.230469 282.753906 133 283.09375 132.800781 C 288.269531 129.582031 293.480469 126.390625 298.691406 123.316406 C 299.621094 122.734375 300.636719 122.410156 301.730469 122.34375 C 302.824219 122.273438 303.871094 122.46875 304.867188 122.929688 C 305.886719 123.4375 306.71875 124.160156 307.371094 125.097656 C 308.019531 126.035156 308.40625 127.070312 308.523438 128.203125 L 308.648438 128.925781 L 308.1875 129.515625 C 307.976562 129.84375 307.769531 130.171875 307.558594 130.539062 C 306.980469 131.632812 306.195312 132.550781 305.203125 133.285156 Z M 305.203125 133.285156 " fill-opacity="1" fill-rule="nonzero"/></g></svg>