<svg xmlns="http://www.w3.org/2000/svg" xmlns:xlink="http://www.w3.org/1999/xlink" width="500" zoomAndPan="magnify" viewBox="0 0 375 374.999991" height="500" preserveAspectRatio="xMidYMid meet" version="1.0"><defs><clipPath id="1264d39f0e"><path d="M 98.160156 68.742188 L 303.660156 68.742188 L 303.660156 375 L 98.160156 375 Z M 98.160156 68.742188 " clip-rule="nonzero"/></clipPath></defs><rect x="-37.5" width="450" fill="#ffffff" y="-37.499999" height="449.999989" fill-opacity="1"/><rect x="-37.5" width="450" fill="#eca3ae" y="-37.499999" height="449.999989" fill-opacity="1"/><path fill="#02972e" d="M 229.382812 214.398438 C 226.816406 212.894531 223.660156 212.925781 221.109375 214.441406 L 208.171875 222.148438 C 205.277344 223.875 201.660156 223.671875 199.003906 221.597656 C 194.414062 218.015625 187.023438 211.984375 180.59375 205.550781 C 174.164062 199.121094 168.132812 191.730469 164.546875 187.140625 C 162.472656 184.484375 162.269531 180.871094 163.996094 177.972656 L 171.703125 165.039062 C 173.226562 162.484375 173.238281 159.304688 171.734375 156.738281 L 152.753906 124.316406 C 150.914062 121.179688 147.261719 119.636719 143.726562 120.503906 C 140.292969 121.335938 135.835938 123.371094 131.164062 128.050781 C 116.535156 142.679688 108.761719 167.359375 163.78125 222.375 C 218.800781 277.394531 243.46875 269.632812 258.105469 254.996094 C 262.792969 250.308594 264.820312 245.847656 265.664062 242.40625 C 266.515625 238.878906 265 235.25 261.867188 233.414062 C 254.054688 228.84375 237.199219 218.976562 229.382812 214.398438 Z M 229.382812 214.398438 " fill-opacity="1" fill-rule="nonzero"/><g clip-path="url(#1264d39f0e)"><path fill="#231f20" d="M 200.921875 370.136719 C 215.234375 348.707031 298.671875 221.589844 298.671875 171.859375 C 298.671875 117.808594 254.824219 73.832031 200.921875 73.832031 C 147.023438 73.832031 103.171875 117.808594 103.171875 171.859375 C 103.171875 221.59375 186.613281 348.707031 200.921875 370.136719 Z M 200.921875 68.808594 C 257.582031 68.808594 303.683594 115.035156 303.683594 171.859375 C 303.683594 227.523438 207.101562 370.011719 202.992188 376.050781 L 200.921875 379.089844 L 198.855469 376.050781 C 194.742188 370.011719 98.160156 227.523438 98.160156 171.859375 C 98.160156 115.035156 144.257812 68.808594 200.921875 68.808594 " fill-opacity="1" fill-rule="nonzero"/></g></svg>