<svg xmlns="http://www.w3.org/2000/svg" xmlns:xlink="http://www.w3.org/1999/xlink" width="500" zoomAndPan="magnify" viewBox="0 0 375 374.999991" height="500" preserveAspectRatio="xMidYMid meet" version="1.0"><defs><clipPath id="ded5e87c11"><path d="M 70 74 L 310.753906 74 L 310.753906 314 L 70 314 Z M 70 74 " clip-rule="nonzero"/></clipPath><clipPath id="2bb67520db"><path d="M 21.78125 37.5 L 353.28125 37.5 L 353.28125 369 L 21.78125 369 Z M 21.78125 37.5 " clip-rule="nonzero"/></clipPath></defs><rect x="-37.5" width="450" fill="#ffffff" y="-37.499999" height="449.999989" fill-opacity="1"/><rect x="-37.5" width="450" fill="#eca3ae" y="-37.499999" height="449.999989" fill-opacity="1"/><g clip-path="url(#ded5e87c11)"><path fill="#02972e" d="M 250.003906 228.839844 C 245.785156 226.367188 240.597656 226.417969 236.398438 228.914062 L 215.136719 241.582031 C 210.378906 244.417969 204.433594 244.085938 200.066406 240.675781 C 192.523438 234.785156 180.375 224.871094 169.804688 214.300781 C 159.238281 203.734375 149.324219 191.585938 143.429688 184.039062 C 140.023438 179.675781 139.691406 173.730469 142.527344 168.972656 L 155.195312 147.710938 C 157.699219 143.511719 157.71875 138.285156 155.246094 134.0625 L 124.050781 80.773438 C 121.023438 75.617188 115.019531 73.082031 109.210938 74.507812 C 103.566406 75.878906 96.238281 79.222656 88.558594 86.914062 C 64.511719 110.960938 51.742188 151.523438 142.171875 241.957031 C 232.605469 332.386719 273.15625 319.628906 297.214844 295.570312 C 304.914062 287.867188 308.25 280.53125 309.632812 274.878906 C 311.035156 269.078125 308.542969 263.113281 303.398438 260.101562 C 290.554688 252.585938 262.847656 236.363281 250.003906 228.839844 Z M 250.003906 228.839844 " fill-opacity="1" fill-rule="nonzero"/></g><g clip-path="url(#2bb67520db)"><path stroke-linecap="butt" transform="matrix(3.282178, 0, 0, 3.282178, 20.796822, 36.515344)" fill="none" stroke-linejoin="miter" d="M 100.840548 50.845231 L 100.839357 55.845008 L 100.834597 57.915851 L 100.828646 59.504687 L 100.820315 60.844784 L 100.808414 62.023023 L 100.795322 63.089388 L 100.77866 64.068873 L 100.759618 64.98052 L 100.739386 65.83504 L 100.715583 66.643145 L 100.6894 67.411975 L 100.659646 68.145101 L 100.628703 68.848473 L 100.595379 69.523283 L 100.558484 70.174289 L 100.5204 70.802683 L 100.478745 71.410844 L 100.43471 72.001153 L 100.388295 72.574801 L 100.339499 73.131786 L 100.288323 73.67449 L 100.233576 74.202912 L 100.17645 74.719432 L 100.118133 75.222861 L 100.057436 75.715579 L 99.993168 76.197586 L 99.92652 76.668881 L 99.857492 77.130655 L 99.784894 77.582908 L 99.711105 78.02683 L 99.633746 78.461231 L 99.555197 78.888491 L 99.473077 79.30742 L 99.388577 79.719209 L 99.300507 80.123856 L 99.211246 80.521363 L 99.118416 80.912919 L 99.024394 81.297334 L 98.926803 81.674608 L 98.825641 82.047122 L 98.723289 82.413685 L 98.618557 82.773107 L 98.510254 83.127769 L 98.399571 83.47767 L 98.286508 83.82162 L 98.169874 84.15962 L 98.05205 84.494049 L 97.930656 84.822528 L 97.806882 85.146246 L 97.679537 85.465203 L 97.551002 85.78059 L 97.418896 86.090026 L 97.28441 86.395892 L 97.146354 86.696997 L 97.005918 86.994532 L 96.863101 87.287307 L 96.717904 87.575321 L 96.569136 87.859764 L 96.417989 88.140637 L 96.264461 88.416749 L 96.107362 88.689291 L 95.947884 88.958263 L 95.784834 89.223664 L 95.620595 89.484305 L 95.451595 89.742565 L 95.281405 89.996065 L 95.107645 90.247184 L 94.930314 90.493543 L 94.750603 90.737522 L 94.567322 90.97674 L 94.38166 91.213577 L 94.193618 91.446845 L 94.002005 91.676542 L 93.806822 91.902668 L 93.609259 92.126415 L 93.409316 92.34659 L 93.204612 92.563196 L 92.997527 92.776231 L 92.788063 92.986885 L 92.575028 93.19397 L 92.358422 93.397484 L 92.138247 93.598617 L 91.91569 93.797371 L 91.689564 93.991363 L 91.459867 94.184166 L 91.2266 94.372208 L 90.990952 94.55906 L 90.750544 94.741151 L 90.507755 94.920862 L 90.261396 95.098193 L 90.011467 95.271954 L 89.757967 95.443334 L 89.499707 95.612334 L 89.239066 95.777763 L 88.974855 95.940812 L 88.705884 96.100291 L 88.433342 96.257389 L 88.157229 96.410917 L 87.877547 96.563255 L 87.593103 96.710832 L 87.305089 96.85722 L 87.012315 97.000036 L 86.71597 97.140473 L 86.414865 97.278529 L 86.110189 97.413015 L 85.799563 97.54512 L 85.485366 97.674846 L 85.166409 97.80219 L 84.843881 97.925965 L 84.515402 98.047359 L 84.182163 98.166373 L 83.842973 98.281817 L 83.500213 98.39607 L 83.151502 98.506753 L 82.796841 98.615056 L 82.437418 98.720978 L 82.070855 98.82333 L 81.699532 98.923302 L 81.322258 99.022084 L 80.937842 99.116105 L 80.547477 99.208935 L 80.15116 99.299386 L 79.746513 99.386266 L 79.335914 99.470766 L 78.916985 99.552886 L 78.490915 99.632625 L 78.056514 99.709984 L 77.612592 99.784963 L 77.161529 99.856371 L 76.700945 99.92659 L 76.22965 99.993238 L 75.748834 100.057505 L 75.257306 100.119392 L 74.753877 100.177709 L 74.239737 100.234836 L 73.711315 100.289582 L 73.169801 100.340758 L 72.614006 100.389554 L 72.042739 100.435969 L 71.45362 100.480005 L 70.846648 100.52166 L 70.219445 100.560934 L 69.570819 100.597828 L 68.8972 100.632343 L 68.197398 100.663286 L 67.466652 100.691849 L 66.701392 100.718033 L 65.895668 100.741835 L 65.044718 100.764448 L 64.137831 100.78349 L 63.165487 100.798962 L 62.106263 100.813244 L 60.937546 100.825145 L 59.614111 100.833476 L 58.050267 100.839427 L 56.035361 100.844187 L 52.250717 100.846568 L 46.042948 100.844187 L 43.911408 100.840617 L 42.296389 100.834666 L 40.94201 100.826335 L 39.75187 100.814434 L 38.678364 100.802532 L 37.691738 100.785871 L 36.776521 100.766828 L 35.91605 100.746596 L 35.104375 100.721603 L 34.333164 100.69542 L 33.597658 100.668047 L 32.893095 100.637103 L 32.214716 100.602589 L 31.562519 100.566885 L 30.931745 100.52761 L 30.322394 100.487145 L 29.730894 100.4443 L 29.156057 100.396695 L 28.597881 100.349089 L 28.053988 100.296723 L 27.524376 100.244357 L 27.007855 100.18723 L 26.502046 100.128913 L 26.009328 100.067026 L 25.526131 100.002759 L 25.054836 99.937301 L 24.591871 99.868273 L 24.138428 99.796864 L 23.694506 99.721886 L 23.258915 99.645717 L 22.830465 99.565977 L 22.410346 99.485048 L 21.998557 99.400548 L 21.59391 99.313668 L 21.195213 99.223217 L 20.803657 99.131576 L 20.419242 99.036365 L 20.040777 98.939964 L 19.668264 98.839992 L 19.301701 98.73645 L 18.941088 98.631718 L 18.585237 98.524605 L 18.235336 98.413922 L 17.891385 98.300859 L 17.552196 98.185415 L 17.217766 98.066401 L 16.889288 97.945007 L 16.56438 97.821233 L 16.245422 97.695078 L 15.930035 97.566543 L 15.619409 97.434437 L 15.313543 97.299952 L 15.012438 97.163085 L 14.714903 97.022649 L 14.422128 96.879832 L 14.132924 96.734635 L 13.848481 96.587058 L 13.567608 96.43591 L 13.290305 96.282382 L 13.017763 96.125284 L 12.748792 95.965805 L 12.483391 95.803946 L 12.22156 95.638517 L 11.9633 95.470707 L 11.7098 95.300517 L 11.458681 95.126757 L 11.211132 94.949426 L 10.968343 94.769715 L 10.727935 94.587623 L 10.491097 94.401962 L 10.25783 94.213919 L 10.026943 94.022307 L 9.800816 93.828314 L 9.57707 93.630751 L 9.356894 93.430808 L 9.140289 93.227294 L 8.926063 93.020209 L 8.715409 92.809555 L 8.508324 92.59652 L 8.30362 92.381104 L 8.102487 92.160929 L 7.904924 91.938372 L 7.709741 91.712246 L 7.516938 91.483739 L 7.327706 91.250472 L 7.142044 91.014824 L 6.958763 90.775606 L 6.779052 90.532818 L 6.601721 90.286459 L 6.42677 90.036529 L 6.25539 89.78303 L 6.08639 89.525959 L 5.920961 89.265319 L 5.757912 89.001108 L 5.598433 88.732136 L 5.441335 88.460784 L 5.286616 88.184672 L 5.135469 87.904989 L 4.985511 87.620546 L 4.840314 87.332532 L 4.696307 87.040948 L 4.555871 86.744603 L 4.417814 86.444688 L 4.283329 86.138822 L 4.151223 85.830576 L 4.021498 85.516379 L 3.894153 85.197422 L 3.769188 84.874894 L 3.647794 84.546415 L 3.52878 84.213176 L 3.412146 83.876367 L 3.299083 83.532416 L 3.18721 83.184895 L 3.078907 82.830234 L 2.974175 82.470812 L 2.870633 82.105439 L 2.769471 81.735305 L 2.67188 81.358031 L 2.576668 80.974806 L 2.483838 80.58444 L 2.393387 80.188124 L 2.306507 79.784666 L 2.220817 79.374068 L 2.138697 78.956329 L 2.058958 78.530259 L 1.981599 78.095858 L 1.90662 77.654317 L 1.835211 77.203254 L 1.764993 76.74267 L 1.698345 76.272564 L 1.634078 75.792938 L 1.572191 75.302601 L 1.512684 74.800362 L 1.455557 74.286221 L 1.40081 73.75899 L 1.349634 73.218666 L 1.299649 72.664061 L 1.253233 72.093984 L 1.209198 71.506055 L 1.167543 70.901464 L 1.128269 70.275451 L 1.091374 69.628015 L 1.05686 68.956776 L 1.024726 68.259354 L 0.996163 67.530989 L 0.96879 66.768109 L 0.944987 65.967145 L 0.923565 65.119766 L 0.904522 64.21764 L 0.88786 63.250057 L 0.873579 62.200353 L 0.861677 61.041157 L 0.852156 59.732004 L 0.846205 58.191963 L 0.841445 56.229423 L 0.840255 52.841095 L 0.841445 46.260813 L 0.845015 44.061435 L 0.849776 42.419042 L 0.858107 41.048002 L 0.870008 39.847151 L 0.8831 38.765314 L 0.898572 37.772737 L 0.917614 36.851569 L 0.937846 35.988718 L 0.961649 35.173472 L 0.986642 34.398691 L 1.015205 33.660805 L 1.046149 32.952672 L 1.079473 32.273102 L 1.115177 31.618525 L 1.154452 30.986561 L 1.194916 30.374829 L 1.238952 29.78214 L 1.284177 29.206112 L 1.332973 28.646747 L 1.384149 28.102853 L 1.437705 27.57086 L 1.493641 27.05315 L 1.551958 26.54734 L 1.613845 26.053432 L 1.676923 25.570236 L 1.743571 25.09656 L 1.812599 24.633596 L 1.884007 24.180153 L 1.957796 23.73504 L 2.033965 23.298259 L 2.112514 22.869809 L 2.194634 22.449689 L 2.279134 22.036711 L 2.366014 21.630873 L 2.455274 21.232177 L 2.546915 20.840621 L 2.640936 20.455015 L 2.738527 20.075361 L 2.838499 19.702847 L 2.940851 19.336284 L 3.045583 18.974482 L 3.152696 18.61863 L 3.263379 18.268729 L 3.376442 17.923588 L 3.491886 17.584399 L 3.60971 17.249969 L 3.731104 16.920301 L 3.853688 16.595393 L 3.979843 16.275245 L 4.109568 15.961048 L 4.240484 15.649232 L 4.374969 15.343366 L 4.511836 15.04107 L 4.651082 14.743535 L 4.793899 14.450761 L 4.939096 14.161557 L 5.086673 13.875924 L 5.237821 13.595051 L 5.391349 13.317748 L 5.547257 13.045206 L 5.706736 12.775044 L 5.868595 12.509643 L 6.034024 12.247813 L 6.201834 11.989552 L 6.372024 11.734862 L 6.545784 11.483743 L 6.721925 11.236194 L 6.901636 10.992215 L 7.083727 10.751807 L 7.268199 10.514969 L 7.456241 10.281702 L 7.647853 10.050815 L 7.841846 9.823498 L 8.039409 9.599752 L 8.239353 9.379576 L 8.442867 9.162971 L 8.648761 8.948745 L 8.858225 8.738091 L 9.07126 8.529816 L 9.287866 8.325112 L 9.506852 8.123979 L 9.729408 7.925225 L 9.954344 7.730042 L 10.184041 7.53724 L 10.416118 7.348008 L 10.651766 7.162346 L 10.890984 6.979064 L 11.133772 6.798163 L 11.380131 6.620832 L 11.628871 6.445882 L 11.88237 6.274502 L 12.13944 6.105502 L 12.400081 5.940072 L 12.664292 5.777023 L 12.932073 5.616354 L 13.203425 5.459256 L 13.479538 5.304538 L 13.75803 5.1522 L 14.042474 5.003433 L 14.329297 4.857045 L 14.620882 4.713038 L 14.917226 4.572602 L 15.217142 4.434546 L 15.521817 4.29887 L 15.831254 4.166764 L 16.14426 4.037039 L 16.462028 3.909694 L 16.785746 3.78473 L 17.113034 3.663335 L 17.445083 3.543131 L 17.783083 3.426498 L 18.125843 3.313434 L 18.473364 3.201561 L 18.826835 3.093258 L 19.186257 2.987336 L 19.55044 2.883794 L 19.920573 2.782632 L 20.297848 2.685041 L 20.681073 2.589829 L 21.070248 2.496998 L 21.465375 2.406548 L 21.868832 2.318478 L 22.27824 2.232787 L 22.695979 2.150668 L 23.120859 2.070928 L 23.55407 1.993569 L 23.995612 1.918591 L 24.446674 1.845992 L 24.906068 1.775774 L 25.374983 1.709126 L 25.85461 1.643668 L 26.343757 1.581781 L 26.844806 1.522274 L 27.357756 1.465147 L 27.883798 1.410401 L 28.422931 1.358035 L 28.976346 1.309239 L 29.546423 1.261634 L 30.131971 1.217598 L 30.735372 1.175943 L 31.359005 1.135479 L 32.005251 1.098584 L 32.67411 1.06526 L 33.370341 1.033127 L 34.095136 1.003373 L 34.854446 0.97719 L 35.653029 0.952197 L 36.496838 0.930775 L 37.393013 0.910542 L 38.355836 0.89388 L 39.398399 0.879599 L 40.548074 0.867697 L 41.842945 0.858176 L 43.359183 0.852225 L 45.275308 0.847465 L 48.395854 0.845085 L 55.202263 0.846275 L 57.47543 0.849845 L 59.147576 0.854606 L 60.535279 0.862937 L 61.748031 0.873648 L 62.838199 0.88674 L 63.836726 0.902211 L 64.762655 0.921254 L 65.630266 0.941486 L 66.449082 0.964099 L 67.226244 0.990282 L 67.967701 1.018845 L 68.677024 1.049789 L 69.358974 1.081922 L 70.015931 1.117627 L 70.649085 1.156901 L 71.262007 1.197366 L 71.857077 1.240211 L 72.434295 1.286626 L 72.99485 1.334232 L 73.541125 1.385408 L 74.073117 1.438964 L 74.592018 1.494901 L 75.097827 1.553218 L 75.592925 1.613915 L 76.077312 1.676992 L 76.550988 1.74364 L 77.015142 1.811478 L 77.469776 1.882886 L 77.916078 1.956675 L 78.352859 2.032844 L 78.7825 2.111393 L 79.202619 2.193513 L 79.616787 2.276823 L 80.022625 2.363703 L 80.422512 2.452963 L 80.815258 2.544604 L 81.200863 2.638625 L 81.580518 2.736217 L 81.953032 2.834998 L 82.320785 2.93735 L 82.682587 3.042082 L 83.038439 3.149195 L 83.38953 3.259878 L 83.734671 3.371751 L 84.075051 3.487195 L 84.40948 3.605018 L 84.739148 3.726413 L 85.064057 3.848997 L 85.384204 3.975152 L 85.700781 4.103687 L 86.011408 4.235792 L 86.318464 4.369088 L 86.620759 4.505954 L 86.918294 4.645201 L 87.212259 4.788017 L 87.501463 4.933214 L 87.787096 5.080792 L 88.067969 5.230749 L 88.345272 5.384277 L 88.619004 5.540186 L 88.889165 5.699664 L 89.154566 5.861523 L 89.417587 6.025762 L 89.675848 6.193572 L 89.930538 6.363762 L 90.181657 6.536332 L 90.430396 6.712473 L 90.674375 6.892184 L 90.914783 7.074276 L 91.151621 7.258747 L 91.386078 7.446789 L 91.616965 7.637212 L 91.844282 7.831204 L 92.068028 8.028768 L 92.288204 8.228711 L 92.506 8.432225 L 92.720225 8.638119 L 92.93207 8.847584 L 93.139154 9.059428 L 93.343858 9.276034 L 93.546182 9.493829 L 93.744935 9.716386 L 93.940118 9.942512 L 94.132921 10.171019 L 94.322153 10.403096 L 94.509005 10.638744 L 94.692286 10.876772 L 94.873187 11.11956 L 95.050518 11.364729 L 95.225469 11.614658 L 95.398039 11.866968 L 95.567039 12.124038 L 95.732468 12.383488 L 95.896708 12.647699 L 96.057376 12.915481 L 96.214475 13.186833 L 96.369193 13.461755 L 96.521531 13.741438 L 96.670298 14.024691 L 96.817876 14.311515 L 96.960692 14.603099 L 97.102319 14.898253 L 97.240375 15.198169 L 97.376051 15.502844 L 97.509347 15.811091 L 97.639072 16.124097 L 97.766417 16.441865 L 97.891382 16.764392 L 98.012776 17.091681 L 98.13298 17.42373 L 98.249614 17.760539 L 98.363867 18.1033 L 98.47455 18.45082 L 98.584043 18.804292 L 98.689965 19.162524 L 98.793507 19.526707 L 98.894669 19.89684 L 98.993451 20.272924 L 99.088662 20.654959 L 99.181493 21.044135 L 99.271944 21.439261 L 99.360014 21.841528 L 99.445704 22.250936 L 99.529014 22.667485 L 99.608753 23.092365 L 99.686112 23.525576 L 99.762281 23.965927 L 99.83488 24.4158 L 99.903908 24.874004 L 99.971746 25.342919 L 100.037203 25.821355 L 100.099091 26.310502 L 100.158598 26.810361 L 100.215724 27.322121 L 100.270471 27.846973 L 100.322837 28.384916 L 100.372823 28.937141 L 100.420428 29.504837 L 100.464463 30.089196 L 100.507308 30.692597 L 100.546583 31.313849 L 100.583477 31.957715 L 100.617991 32.625383 L 100.650125 33.319235 L 100.679879 34.04165 L 100.707252 34.798578 L 100.732245 35.593592 L 100.753667 36.43264 L 100.77271 37.325245 L 100.790562 38.280927 L 100.804843 39.317539 L 100.816745 40.456502 L 100.826266 41.738283 L 100.833407 43.231908 L 100.838167 45.103997 L 100.840548 48.02341 Z M 100.840548 50.845231 " stroke="#000000" stroke-width="1" stroke-opacity="1" stroke-miterlimit="4"/></g></svg>