<svg xmlns="http://www.w3.org/2000/svg" xmlns:xlink="http://www.w3.org/1999/xlink" width="500" zoomAndPan="magnify" viewBox="0 0 375 374.999991" height="500" preserveAspectRatio="xMidYMid meet" version="1.0"><defs><clipPath id="e642256d6f"><path d="M 13.089844 18.21875 L 361.839844 18.21875 L 361.839844 366.96875 L 13.089844 366.96875 Z M 13.089844 18.21875 " clip-rule="nonzero"/></clipPath><clipPath id="dd5698fae5"><path d="M 36.3125 85.292969 L 337.8125 85.292969 L 337.8125 133 L 36.3125 133 Z M 36.3125 85.292969 " clip-rule="nonzero"/></clipPath><clipPath id="ca7b0d4bb7"><path d="M 36.3125 169 L 337.8125 169 L 337.8125 216 L 36.3125 216 Z M 36.3125 169 " clip-rule="nonzero"/></clipPath><clipPath id="9509469473"><path d="M 36.3125 253 L 337.8125 253 L 337.8125 299.792969 L 36.3125 299.792969 Z M 36.3125 253 " clip-rule="nonzero"/></clipPath></defs><g clip-path="url(#e642256d6f)"><path fill="#e57916" d="M 99.472656 18.21875 L 275.519531 18.21875 C 276.933594 18.21875 278.347656 18.25 279.757812 18.320312 C 281.171875 18.390625 282.578125 18.496094 283.988281 18.632812 C 285.394531 18.773438 286.796875 18.945312 288.195312 19.152344 C 289.59375 19.359375 290.984375 19.601562 292.371094 19.875 C 293.757812 20.152344 295.136719 20.460938 296.507812 20.804688 C 297.878906 21.148438 299.242188 21.527344 300.59375 21.9375 C 301.949219 22.347656 303.289062 22.789062 304.621094 23.265625 C 305.953125 23.742188 307.269531 24.25 308.574219 24.792969 C 309.882812 25.332031 311.175781 25.90625 312.453125 26.511719 C 313.730469 27.113281 314.992188 27.75 316.238281 28.417969 C 317.484375 29.082031 318.714844 29.78125 319.929688 30.507812 C 321.140625 31.234375 322.335938 31.988281 323.511719 32.773438 C 324.683594 33.558594 325.839844 34.375 326.976562 35.214844 C 328.113281 36.058594 329.226562 36.925781 330.320312 37.824219 C 331.410156 38.722656 332.480469 39.644531 333.527344 40.59375 C 334.578125 41.542969 335.601562 42.519531 336.601562 43.515625 C 337.597656 44.515625 338.574219 45.539062 339.523438 46.585938 C 340.472656 47.636719 341.394531 48.707031 342.292969 49.796875 C 343.1875 50.890625 344.058594 52.003906 344.902344 53.140625 C 345.742188 54.277344 346.558594 55.429688 347.34375 56.605469 C 348.128906 57.78125 348.882812 58.976562 349.609375 60.1875 C 350.335938 61.402344 351.035156 62.632812 351.699219 63.878906 C 352.367188 65.125 353.003906 66.386719 353.605469 67.664062 C 354.210938 68.941406 354.785156 70.234375 355.324219 71.539062 C 355.867188 72.847656 356.375 74.164062 356.851562 75.496094 C 357.328125 76.828125 357.769531 78.167969 358.179688 79.523438 C 358.589844 80.875 358.96875 82.238281 359.3125 83.609375 C 359.65625 84.980469 359.964844 86.359375 360.238281 87.746094 C 360.515625 89.132812 360.757812 90.523438 360.964844 91.921875 C 361.171875 93.320312 361.34375 94.722656 361.484375 96.128906 C 361.621094 97.539062 361.726562 98.945312 361.796875 100.359375 C 361.867188 101.769531 361.898438 103.183594 361.898438 104.597656 L 361.898438 280.644531 C 361.898438 282.058594 361.867188 283.472656 361.796875 284.882812 C 361.726562 286.296875 361.621094 287.707031 361.484375 289.113281 C 361.34375 290.519531 361.171875 291.921875 360.964844 293.320312 C 360.757812 294.71875 360.515625 296.109375 360.242188 297.496094 C 359.964844 298.882812 359.65625 300.261719 359.3125 301.632812 C 358.96875 303.003906 358.589844 304.367188 358.179688 305.71875 C 357.769531 307.074219 357.328125 308.414062 356.851562 309.746094 C 356.375 311.078125 355.867188 312.394531 355.324219 313.703125 C 354.785156 315.007812 354.210938 316.300781 353.605469 317.578125 C 353.003906 318.855469 352.367188 320.117188 351.699219 321.363281 C 351.035156 322.613281 350.335938 323.839844 349.609375 325.054688 C 348.882812 326.265625 348.128906 327.460938 347.34375 328.636719 C 346.558594 329.8125 345.742188 330.964844 344.902344 332.101562 C 344.058594 333.238281 343.1875 334.351562 342.292969 335.445312 C 341.394531 336.539062 340.472656 337.605469 339.523438 338.65625 C 338.574219 339.703125 337.597656 340.726562 336.601562 341.726562 C 335.601562 342.726562 334.578125 343.699219 333.527344 344.648438 C 332.480469 345.597656 331.410156 346.519531 330.320312 347.417969 C 329.226562 348.316406 328.113281 349.183594 326.976562 350.027344 C 325.839844 350.867188 324.683594 351.683594 323.511719 352.46875 C 322.335938 353.253906 321.140625 354.007812 319.929688 354.734375 C 318.714844 355.460938 317.484375 356.160156 316.238281 356.824219 C 314.992188 357.492188 313.730469 358.128906 312.453125 358.730469 C 311.175781 359.335938 309.882812 359.910156 308.574219 360.449219 C 307.269531 360.992188 305.953125 361.5 304.621094 361.976562 C 303.289062 362.453125 301.949219 362.894531 300.59375 363.304688 C 299.242188 363.714844 297.878906 364.09375 296.507812 364.4375 C 295.136719 364.78125 293.757812 365.089844 292.371094 365.367188 C 290.984375 365.640625 289.59375 365.882812 288.195312 366.089844 C 286.796875 366.296875 285.394531 366.472656 283.988281 366.609375 C 282.578125 366.75 281.171875 366.851562 279.757812 366.921875 C 278.347656 366.992188 276.933594 367.027344 275.519531 367.027344 L 99.472656 367.027344 C 98.058594 367.027344 96.644531 366.992188 95.234375 366.921875 C 93.820312 366.851562 92.410156 366.75 91.003906 366.609375 C 89.597656 366.472656 88.195312 366.296875 86.796875 366.089844 C 85.398438 365.882812 84.007812 365.640625 82.621094 365.367188 C 81.234375 365.089844 79.855469 364.78125 78.484375 364.4375 C 77.113281 364.09375 75.75 363.714844 74.398438 363.304688 C 73.042969 362.894531 71.703125 362.453125 70.371094 361.976562 C 69.039062 361.5 67.722656 360.992188 66.414062 360.449219 C 65.109375 359.910156 63.816406 359.335938 62.539062 358.730469 C 61.261719 358.128906 60 357.492188 58.753906 356.824219 C 57.503906 356.160156 56.277344 355.460938 55.0625 354.734375 C 53.851562 354.007812 52.65625 353.253906 51.480469 352.46875 C 50.304688 351.683594 49.152344 350.867188 48.015625 350.027344 C 46.878906 349.183594 45.765625 348.316406 44.671875 347.417969 C 43.578125 346.519531 42.507812 345.597656 41.460938 344.648438 C 40.414062 343.699219 39.390625 342.726562 38.390625 341.726562 C 37.390625 340.726562 36.417969 339.703125 35.46875 338.65625 C 34.519531 337.605469 33.59375 336.539062 32.699219 335.445312 C 31.800781 334.351562 30.933594 333.238281 30.089844 332.101562 C 29.25 330.964844 28.433594 329.8125 27.648438 328.636719 C 26.863281 327.460938 26.109375 326.265625 25.382812 325.054688 C 24.652344 323.839844 23.957031 322.613281 23.292969 321.363281 C 22.625 320.117188 21.988281 318.855469 21.386719 317.578125 C 20.78125 316.300781 20.207031 315.007812 19.667969 313.703125 C 19.125 312.394531 18.617188 311.078125 18.140625 309.746094 C 17.664062 308.414062 17.222656 307.074219 16.8125 305.71875 C 16.402344 304.367188 16.023438 303.003906 15.679688 301.632812 C 15.335938 300.261719 15.027344 298.882812 14.75 297.496094 C 14.476562 296.109375 14.234375 294.71875 14.027344 293.320312 C 13.820312 291.921875 13.644531 290.519531 13.507812 289.113281 C 13.367188 287.707031 13.265625 286.296875 13.195312 284.882812 C 13.125 283.472656 13.089844 282.058594 13.089844 280.644531 L 13.089844 104.597656 C 13.089844 103.183594 13.125 101.769531 13.195312 100.359375 C 13.265625 98.945312 13.367188 97.539062 13.507812 96.128906 C 13.644531 94.722656 13.820312 93.320312 14.027344 91.921875 C 14.234375 90.523438 14.476562 89.132812 14.75 87.746094 C 15.027344 86.359375 15.335938 84.980469 15.679688 83.609375 C 16.023438 82.238281 16.402344 80.875 16.8125 79.523438 C 17.222656 78.167969 17.664062 76.828125 18.140625 75.496094 C 18.617188 74.164062 19.125 72.847656 19.667969 71.539062 C 20.207031 70.234375 20.78125 68.941406 21.386719 67.664062 C 21.988281 66.386719 22.625 65.125 23.292969 63.878906 C 23.957031 62.632812 24.652344 61.402344 25.382812 60.1875 C 26.109375 58.976562 26.863281 57.78125 27.648438 56.605469 C 28.433594 55.429688 29.25 54.277344 30.089844 53.140625 C 30.933594 52.003906 31.800781 50.890625 32.699219 49.796875 C 33.59375 48.707031 34.519531 47.636719 35.46875 46.585938 C 36.417969 45.539062 37.390625 44.515625 38.390625 43.515625 C 39.390625 42.515625 40.414062 41.542969 41.460938 40.59375 C 42.507812 39.644531 43.578125 38.722656 44.671875 37.824219 C 45.765625 36.925781 46.878906 36.058594 48.015625 35.214844 C 49.152344 34.375 50.304688 33.558594 51.480469 32.773438 C 52.65625 31.988281 53.851562 31.234375 55.0625 30.507812 C 56.277344 29.78125 57.503906 29.082031 58.753906 28.417969 C 60 27.75 61.261719 27.113281 62.539062 26.511719 C 63.816406 25.90625 65.109375 25.332031 66.414062 24.792969 C 67.722656 24.25 69.039062 23.742188 70.371094 23.265625 C 71.703125 22.789062 73.042969 22.347656 74.398438 21.9375 C 75.75 21.527344 77.113281 21.148438 78.484375 20.804688 C 79.855469 20.460938 81.234375 20.152344 82.621094 19.875 C 84.007812 19.601562 85.398438 19.359375 86.796875 19.152344 C 88.195312 18.945312 89.597656 18.773438 91.003906 18.632812 C 92.410156 18.496094 93.820312 18.390625 95.234375 18.320312 C 96.644531 18.25 98.058594 18.21875 99.472656 18.21875 Z M 99.472656 18.21875 " fill-opacity="1" fill-rule="nonzero"/></g><g clip-path="url(#dd5698fae5)"><path fill="#ffffff" d="M 59.839844 85.292969 L 314.285156 85.292969 C 315.050781 85.292969 315.816406 85.332031 316.578125 85.40625 C 317.34375 85.480469 318.101562 85.59375 318.851562 85.742188 C 319.605469 85.890625 320.347656 86.078125 321.082031 86.300781 C 321.816406 86.523438 322.535156 86.777344 323.246094 87.070312 C 323.953125 87.363281 324.644531 87.691406 325.320312 88.050781 C 325.996094 88.414062 326.65625 88.804688 327.292969 89.230469 C 327.929688 89.65625 328.546875 90.113281 329.136719 90.597656 C 329.730469 91.082031 330.296875 91.597656 330.839844 92.136719 C 331.382812 92.679688 331.898438 93.246094 332.382812 93.839844 C 332.871094 94.429688 333.328125 95.042969 333.753906 95.679688 C 334.179688 96.316406 334.574219 96.972656 334.933594 97.648438 C 335.296875 98.324219 335.625 99.015625 335.917969 99.722656 C 336.210938 100.429688 336.46875 101.148438 336.691406 101.882812 C 336.914062 102.613281 337.101562 103.355469 337.25 104.105469 C 337.398438 104.855469 337.511719 105.613281 337.585938 106.375 C 337.660156 107.136719 337.699219 107.902344 337.699219 108.664062 C 337.699219 109.429688 337.660156 110.195312 337.585938 110.957031 C 337.511719 111.71875 337.398438 112.476562 337.25 113.226562 C 337.101562 113.976562 336.914062 114.71875 336.691406 115.449219 C 336.46875 116.183594 336.210938 116.902344 335.917969 117.609375 C 335.625 118.316406 335.296875 119.007812 334.933594 119.683594 C 334.574219 120.359375 334.179688 121.015625 333.753906 121.652344 C 333.328125 122.289062 332.871094 122.902344 332.382812 123.492188 C 331.898438 124.085938 331.382812 124.652344 330.839844 125.191406 C 330.296875 125.734375 329.730469 126.246094 329.136719 126.734375 C 328.546875 127.21875 327.929688 127.675781 327.292969 128.101562 C 326.65625 128.523438 325.996094 128.917969 325.320312 129.277344 C 324.644531 129.640625 323.953125 129.96875 323.246094 130.257812 C 322.535156 130.550781 321.816406 130.808594 321.082031 131.03125 C 320.347656 131.253906 319.605469 131.441406 318.851562 131.589844 C 318.101562 131.738281 317.34375 131.851562 316.578125 131.925781 C 315.816406 132 315.050781 132.039062 314.285156 132.039062 L 59.839844 132.039062 C 59.070312 132.039062 58.308594 132 57.542969 131.925781 C 56.78125 131.851562 56.023438 131.738281 55.269531 131.589844 C 54.519531 131.441406 53.777344 131.253906 53.042969 131.03125 C 52.308594 130.808594 51.585938 130.550781 50.878906 130.257812 C 50.167969 129.96875 49.476562 129.640625 48.800781 129.277344 C 48.125 128.917969 47.46875 128.523438 46.828125 128.101562 C 46.191406 127.675781 45.578125 127.21875 44.984375 126.734375 C 44.390625 126.246094 43.824219 125.734375 43.28125 125.191406 C 42.738281 124.652344 42.226562 124.085938 41.738281 123.492188 C 41.25 122.902344 40.796875 122.289062 40.371094 121.652344 C 39.945312 121.015625 39.550781 120.359375 39.1875 119.683594 C 38.828125 119.007812 38.5 118.316406 38.207031 117.609375 C 37.914062 116.902344 37.652344 116.183594 37.433594 115.449219 C 37.210938 114.71875 37.023438 113.976562 36.875 113.226562 C 36.722656 112.476562 36.609375 111.71875 36.535156 110.957031 C 36.460938 110.195312 36.421875 109.429688 36.421875 108.664062 C 36.421875 107.902344 36.460938 107.136719 36.535156 106.375 C 36.609375 105.613281 36.722656 104.855469 36.875 104.105469 C 37.023438 103.355469 37.210938 102.613281 37.433594 101.882812 C 37.652344 101.148438 37.914062 100.429688 38.207031 99.722656 C 38.5 99.015625 38.828125 98.324219 39.1875 97.648438 C 39.550781 96.972656 39.945312 96.316406 40.371094 95.679688 C 40.796875 95.042969 41.25 94.429688 41.738281 93.839844 C 42.226562 93.246094 42.738281 92.679688 43.28125 92.136719 C 43.824219 91.597656 44.390625 91.082031 44.984375 90.597656 C 45.578125 90.113281 46.191406 89.65625 46.828125 89.230469 C 47.46875 88.804688 48.125 88.414062 48.800781 88.050781 C 49.476562 87.691406 50.167969 87.363281 50.878906 87.070312 C 51.585938 86.777344 52.308594 86.523438 53.042969 86.300781 C 53.777344 86.078125 54.519531 85.890625 55.269531 85.742188 C 56.023438 85.59375 56.78125 85.480469 57.542969 85.40625 C 58.308594 85.332031 59.070312 85.292969 59.839844 85.292969 Z M 59.839844 85.292969 " fill-opacity="1" fill-rule="nonzero"/></g><g clip-path="url(#ca7b0d4bb7)"><path fill="#ffffff" d="M 59.839844 169.167969 L 314.285156 169.167969 C 315.050781 169.167969 315.816406 169.207031 316.578125 169.28125 C 317.34375 169.355469 318.101562 169.46875 318.851562 169.617188 C 319.605469 169.769531 320.347656 169.953125 321.082031 170.175781 C 321.816406 170.398438 322.535156 170.65625 323.246094 170.949219 C 323.953125 171.242188 324.644531 171.570312 325.320312 171.929688 C 325.996094 172.289062 326.65625 172.683594 327.292969 173.109375 C 327.929688 173.535156 328.546875 173.988281 329.136719 174.476562 C 329.730469 174.960938 330.296875 175.472656 330.839844 176.015625 C 331.382812 176.558594 331.898438 177.125 332.382812 177.714844 C 332.871094 178.308594 333.328125 178.921875 333.753906 179.558594 C 334.179688 180.195312 334.574219 180.851562 334.933594 181.523438 C 335.296875 182.199219 335.625 182.890625 335.917969 183.597656 C 336.210938 184.304688 336.46875 185.027344 336.691406 185.757812 C 336.914062 186.492188 337.101562 187.230469 337.25 187.984375 C 337.398438 188.734375 337.511719 189.488281 337.585938 190.25 C 337.660156 191.015625 337.699219 191.777344 337.699219 192.542969 C 337.699219 193.308594 337.660156 194.070312 337.585938 194.832031 C 337.511719 195.59375 337.398438 196.351562 337.25 197.101562 C 337.101562 197.851562 336.914062 198.59375 336.691406 199.328125 C 336.46875 200.058594 336.210938 200.78125 335.917969 201.488281 C 335.625 202.195312 335.296875 202.886719 334.933594 203.5625 C 334.574219 204.234375 334.179688 204.890625 333.753906 205.527344 C 333.328125 206.164062 332.871094 206.777344 332.382812 207.371094 C 331.898438 207.960938 331.382812 208.527344 330.839844 209.070312 C 330.296875 209.613281 329.730469 210.125 329.136719 210.609375 C 328.546875 211.097656 327.929688 211.550781 327.292969 211.976562 C 326.65625 212.402344 325.996094 212.796875 325.320312 213.15625 C 324.644531 213.515625 323.953125 213.84375 323.246094 214.136719 C 322.535156 214.429688 321.816406 214.6875 321.082031 214.910156 C 320.347656 215.132812 319.605469 215.316406 318.851562 215.464844 C 318.101562 215.617188 317.34375 215.726562 316.578125 215.804688 C 315.816406 215.878906 315.050781 215.914062 314.285156 215.914062 L 59.839844 215.914062 C 59.070312 215.914062 58.308594 215.878906 57.542969 215.804688 C 56.78125 215.726562 56.023438 215.617188 55.269531 215.464844 C 54.519531 215.316406 53.777344 215.132812 53.042969 214.910156 C 52.308594 214.6875 51.585938 214.429688 50.878906 214.136719 C 50.167969 213.84375 49.476562 213.515625 48.800781 213.15625 C 48.125 212.796875 47.46875 212.402344 46.828125 211.976562 C 46.191406 211.550781 45.578125 211.097656 44.984375 210.609375 C 44.390625 210.125 43.824219 209.613281 43.28125 209.070312 C 42.738281 208.527344 42.226562 207.960938 41.738281 207.371094 C 41.25 206.777344 40.796875 206.164062 40.371094 205.527344 C 39.945312 204.890625 39.550781 204.234375 39.1875 203.5625 C 38.828125 202.886719 38.5 202.195312 38.207031 201.488281 C 37.914062 200.78125 37.652344 200.058594 37.433594 199.328125 C 37.210938 198.59375 37.023438 197.851562 36.875 197.101562 C 36.722656 196.351562 36.609375 195.59375 36.535156 194.832031 C 36.460938 194.070312 36.421875 193.308594 36.421875 192.542969 C 36.421875 191.777344 36.460938 191.015625 36.535156 190.25 C 36.609375 189.488281 36.722656 188.734375 36.875 187.984375 C 37.023438 187.230469 37.210938 186.492188 37.433594 185.757812 C 37.652344 185.027344 37.914062 184.304688 38.207031 183.597656 C 38.5 182.890625 38.828125 182.199219 39.1875 181.523438 C 39.550781 180.851562 39.945312 180.195312 40.371094 179.558594 C 40.796875 178.921875 41.25 178.308594 41.738281 177.714844 C 42.226562 177.125 42.738281 176.558594 43.28125 176.015625 C 43.824219 175.472656 44.390625 174.960938 44.984375 174.476562 C 45.578125 173.988281 46.191406 173.535156 46.828125 173.109375 C 47.46875 172.683594 48.125 172.289062 48.800781 171.929688 C 49.476562 171.570312 50.167969 171.242188 50.878906 170.949219 C 51.585938 170.65625 52.308594 170.398438 53.042969 170.175781 C 53.777344 169.953125 54.519531 169.769531 55.269531 169.617188 C 56.023438 169.46875 56.78125 169.355469 57.542969 169.28125 C 58.308594 169.207031 59.070312 169.167969 59.839844 169.167969 Z M 59.839844 169.167969 " fill-opacity="1" fill-rule="nonzero"/></g><g clip-path="url(#9509469473)"><path fill="#ffffff" d="M 59.839844 253.046875 L 314.285156 253.046875 C 315.050781 253.046875 315.816406 253.085938 316.578125 253.160156 C 317.34375 253.234375 318.101562 253.347656 318.851562 253.496094 C 319.605469 253.644531 320.347656 253.832031 321.082031 254.054688 C 321.816406 254.277344 322.535156 254.53125 323.246094 254.824219 C 323.953125 255.117188 324.644531 255.445312 325.320312 255.804688 C 325.996094 256.167969 326.65625 256.5625 327.292969 256.984375 C 327.929688 257.410156 328.546875 257.867188 329.136719 258.351562 C 329.730469 258.835938 330.296875 259.351562 330.839844 259.890625 C 331.382812 260.433594 331.898438 261 332.382812 261.59375 C 332.871094 262.183594 333.328125 262.796875 333.753906 263.433594 C 334.179688 264.070312 334.574219 264.726562 334.933594 265.402344 C 335.296875 266.078125 335.625 266.769531 335.917969 267.476562 C 336.210938 268.183594 336.46875 268.902344 336.691406 269.636719 C 336.914062 270.367188 337.101562 271.109375 337.25 271.859375 C 337.398438 272.609375 337.511719 273.367188 337.585938 274.128906 C 337.660156 274.890625 337.699219 275.65625 337.699219 276.417969 C 337.699219 277.183594 337.660156 277.949219 337.585938 278.710938 C 337.511719 279.472656 337.398438 280.230469 337.25 280.980469 C 337.101562 281.730469 336.914062 282.472656 336.691406 283.203125 C 336.46875 283.9375 336.210938 284.65625 335.917969 285.363281 C 335.625 286.070312 335.296875 286.761719 334.933594 287.4375 C 334.574219 288.113281 334.179688 288.769531 333.753906 289.40625 C 333.328125 290.042969 332.871094 290.65625 332.382812 291.246094 C 331.898438 291.839844 331.382812 292.40625 330.839844 292.945312 C 330.296875 293.488281 329.730469 294 329.136719 294.488281 C 328.546875 294.972656 327.929688 295.429688 327.292969 295.855469 C 326.65625 296.277344 325.996094 296.671875 325.320312 297.03125 C 324.644531 297.394531 323.953125 297.722656 323.246094 298.011719 C 322.535156 298.304688 321.816406 298.5625 321.082031 298.785156 C 320.347656 299.007812 319.605469 299.195312 318.851562 299.34375 C 318.101562 299.492188 317.34375 299.605469 316.578125 299.679688 C 315.816406 299.753906 315.050781 299.792969 314.285156 299.792969 L 59.839844 299.792969 C 59.070312 299.792969 58.308594 299.753906 57.542969 299.679688 C 56.78125 299.605469 56.023438 299.492188 55.269531 299.34375 C 54.519531 299.195312 53.777344 299.007812 53.042969 298.785156 C 52.308594 298.5625 51.585938 298.304688 50.878906 298.011719 C 50.167969 297.722656 49.476562 297.394531 48.800781 297.03125 C 48.125 296.671875 47.46875 296.277344 46.828125 295.855469 C 46.191406 295.429688 45.578125 294.972656 44.984375 294.488281 C 44.390625 294 43.824219 293.488281 43.28125 292.945312 C 42.738281 292.40625 42.226562 291.839844 41.738281 291.246094 C 41.25 290.65625 40.796875 290.042969 40.371094 289.40625 C 39.945312 288.769531 39.550781 288.113281 39.1875 287.4375 C 38.828125 286.761719 38.5 286.070312 38.207031 285.363281 C 37.914062 284.65625 37.652344 283.9375 37.433594 283.203125 C 37.210938 282.472656 37.023438 281.730469 36.875 280.980469 C 36.722656 280.230469 36.609375 279.472656 36.535156 278.710938 C 36.460938 277.949219 36.421875 277.183594 36.421875 276.417969 C 36.421875 275.65625 36.460938 274.890625 36.535156 274.128906 C 36.609375 273.367188 36.722656 272.609375 36.875 271.859375 C 37.023438 271.109375 37.210938 270.367188 37.433594 269.636719 C 37.652344 268.902344 37.914062 268.183594 38.207031 267.476562 C 38.5 266.769531 38.828125 266.078125 39.1875 265.402344 C 39.550781 264.726562 39.945312 264.070312 40.371094 263.433594 C 40.796875 262.796875 41.25 262.183594 41.738281 261.59375 C 42.226562 261 42.738281 260.433594 43.28125 259.890625 C 43.824219 259.351562 44.390625 258.835938 44.984375 258.351562 C 45.578125 257.867188 46.191406 257.410156 46.828125 256.984375 C 47.46875 256.5625 48.125 256.167969 48.800781 255.804688 C 49.476562 255.445312 50.167969 255.117188 50.878906 254.824219 C 51.585938 254.53125 52.308594 254.277344 53.042969 254.054688 C 53.777344 253.832031 54.519531 253.644531 55.269531 253.496094 C 56.023438 253.347656 56.78125 253.234375 57.542969 253.160156 C 58.308594 253.085938 59.070312 253.046875 59.839844 253.046875 Z M 59.839844 253.046875 " fill-opacity="1" fill-rule="nonzero"/></g></svg>