<svg xmlns="http://www.w3.org/2000/svg" xmlns:xlink="http://www.w3.org/1999/xlink" width="500" zoomAndPan="magnify" viewBox="0 0 375 374.999991" height="500" preserveAspectRatio="xMidYMid meet" version="1.0"><defs><clipPath id="8229c9c6d1"><path d="M 13.089844 18.21875 L 361.839844 18.21875 L 361.839844 366.96875 L 13.089844 366.96875 Z M 13.089844 18.21875 " clip-rule="nonzero"/></clipPath><clipPath id="4cdc938894"><path d="M 140 65.316406 L 242 65.316406 L 242 238 L 140 238 Z M 140 65.316406 " clip-rule="nonzero"/></clipPath><clipPath id="bf77649cf8"><path d="M 108 185 L 274 185 L 274 314.316406 L 108 314.316406 Z M 108 185 " clip-rule="nonzero"/></clipPath><clipPath id="755095b0e1"><path d="M 37.5 67 L 63 67 L 63 183 L 37.5 183 Z M 37.5 67 " clip-rule="nonzero"/></clipPath><clipPath id="67fa99bd76"><path d="M 318 69 L 343.5 69 L 343.5 185 L 318 185 Z M 318 69 " clip-rule="nonzero"/></clipPath></defs><g clip-path="url(#8229c9c6d1)"><path fill="#8423a1" d="M 99.472656 18.21875 L 275.519531 18.21875 C 276.933594 18.21875 278.347656 18.25 279.757812 18.320312 C 281.171875 18.390625 282.578125 18.496094 283.988281 18.632812 C 285.394531 18.773438 286.796875 18.945312 288.195312 19.152344 C 289.59375 19.359375 290.984375 19.601562 292.371094 19.875 C 293.757812 20.152344 295.136719 20.460938 296.507812 20.804688 C 297.878906 21.148438 299.242188 21.527344 300.59375 21.9375 C 301.949219 22.347656 303.289062 22.789062 304.621094 23.265625 C 305.953125 23.742188 307.269531 24.25 308.574219 24.792969 C 309.882812 25.332031 311.175781 25.90625 312.453125 26.511719 C 313.730469 27.113281 314.992188 27.75 316.238281 28.417969 C 317.484375 29.082031 318.714844 29.78125 319.929688 30.507812 C 321.140625 31.234375 322.335938 31.988281 323.511719 32.773438 C 324.683594 33.558594 325.839844 34.375 326.976562 35.214844 C 328.113281 36.058594 329.226562 36.925781 330.320312 37.824219 C 331.410156 38.722656 332.480469 39.644531 333.527344 40.59375 C 334.578125 41.542969 335.601562 42.519531 336.601562 43.515625 C 337.597656 44.515625 338.574219 45.539062 339.523438 46.585938 C 340.472656 47.636719 341.394531 48.707031 342.292969 49.796875 C 343.1875 50.890625 344.058594 52.003906 344.902344 53.140625 C 345.742188 54.277344 346.558594 55.429688 347.34375 56.605469 C 348.128906 57.78125 348.882812 58.976562 349.609375 60.1875 C 350.335938 61.402344 351.035156 62.632812 351.699219 63.878906 C 352.367188 65.125 353.003906 66.386719 353.605469 67.664062 C 354.210938 68.941406 354.785156 70.234375 355.324219 71.539062 C 355.867188 72.847656 356.375 74.164062 356.851562 75.496094 C 357.328125 76.828125 357.769531 78.167969 358.179688 79.523438 C 358.589844 80.875 358.96875 82.238281 359.3125 83.609375 C 359.65625 84.980469 359.964844 86.359375 360.238281 87.746094 C 360.515625 89.132812 360.757812 90.523438 360.964844 91.921875 C 361.171875 93.320312 361.34375 94.722656 361.484375 96.128906 C 361.621094 97.539062 361.726562 98.945312 361.796875 100.359375 C 361.867188 101.769531 361.898438 103.183594 361.898438 104.597656 L 361.898438 280.644531 C 361.898438 282.058594 361.867188 283.472656 361.796875 284.882812 C 361.726562 286.296875 361.621094 287.707031 361.484375 289.113281 C 361.34375 290.519531 361.171875 291.921875 360.964844 293.320312 C 360.757812 294.71875 360.515625 296.109375 360.242188 297.496094 C 359.964844 298.882812 359.65625 300.261719 359.3125 301.632812 C 358.96875 303.003906 358.589844 304.367188 358.179688 305.71875 C 357.769531 307.074219 357.328125 308.414062 356.851562 309.746094 C 356.375 311.078125 355.867188 312.394531 355.324219 313.703125 C 354.785156 315.007812 354.210938 316.300781 353.605469 317.578125 C 353.003906 318.855469 352.367188 320.117188 351.699219 321.363281 C 351.035156 322.613281 350.335938 323.839844 349.609375 325.054688 C 348.882812 326.265625 348.128906 327.460938 347.34375 328.636719 C 346.558594 329.8125 345.742188 330.964844 344.902344 332.101562 C 344.058594 333.238281 343.1875 334.351562 342.292969 335.445312 C 341.394531 336.539062 340.472656 337.605469 339.523438 338.65625 C 338.574219 339.703125 337.597656 340.726562 336.601562 341.726562 C 335.601562 342.726562 334.578125 343.699219 333.527344 344.648438 C 332.480469 345.597656 331.410156 346.519531 330.320312 347.417969 C 329.226562 348.316406 328.113281 349.183594 326.976562 350.027344 C 325.839844 350.867188 324.683594 351.683594 323.511719 352.46875 C 322.335938 353.253906 321.140625 354.007812 319.929688 354.734375 C 318.714844 355.460938 317.484375 356.160156 316.238281 356.824219 C 314.992188 357.492188 313.730469 358.128906 312.453125 358.730469 C 311.175781 359.335938 309.882812 359.910156 308.574219 360.449219 C 307.269531 360.992188 305.953125 361.5 304.621094 361.976562 C 303.289062 362.453125 301.949219 362.894531 300.59375 363.304688 C 299.242188 363.714844 297.878906 364.09375 296.507812 364.4375 C 295.136719 364.78125 293.757812 365.089844 292.371094 365.367188 C 290.984375 365.640625 289.59375 365.882812 288.195312 366.089844 C 286.796875 366.296875 285.394531 366.472656 283.988281 366.609375 C 282.578125 366.75 281.171875 366.851562 279.757812 366.921875 C 278.347656 366.992188 276.933594 367.027344 275.519531 367.027344 L 99.472656 367.027344 C 98.058594 367.027344 96.644531 366.992188 95.234375 366.921875 C 93.820312 366.851562 92.410156 366.75 91.003906 366.609375 C 89.597656 366.472656 88.195312 366.296875 86.796875 366.089844 C 85.398438 365.882812 84.007812 365.640625 82.621094 365.367188 C 81.234375 365.089844 79.855469 364.78125 78.484375 364.4375 C 77.113281 364.09375 75.75 363.714844 74.398438 363.304688 C 73.042969 362.894531 71.703125 362.453125 70.371094 361.976562 C 69.039062 361.5 67.722656 360.992188 66.414062 360.449219 C 65.109375 359.910156 63.816406 359.335938 62.539062 358.730469 C 61.261719 358.128906 60 357.492188 58.753906 356.824219 C 57.503906 356.160156 56.277344 355.460938 55.0625 354.734375 C 53.851562 354.007812 52.65625 353.253906 51.480469 352.46875 C 50.304688 351.683594 49.152344 350.867188 48.015625 350.027344 C 46.878906 349.183594 45.765625 348.316406 44.671875 347.417969 C 43.578125 346.519531 42.507812 345.597656 41.460938 344.648438 C 40.414062 343.699219 39.390625 342.726562 38.390625 341.726562 C 37.390625 340.726562 36.417969 339.703125 35.46875 338.65625 C 34.519531 337.605469 33.59375 336.539062 32.699219 335.445312 C 31.800781 334.351562 30.933594 333.238281 30.089844 332.101562 C 29.25 330.964844 28.433594 329.8125 27.648438 328.636719 C 26.863281 327.460938 26.109375 326.265625 25.382812 325.054688 C 24.652344 323.839844 23.957031 322.613281 23.292969 321.363281 C 22.625 320.117188 21.988281 318.855469 21.386719 317.578125 C 20.78125 316.300781 20.207031 315.007812 19.667969 313.703125 C 19.125 312.394531 18.617188 311.078125 18.140625 309.746094 C 17.664062 308.414062 17.222656 307.074219 16.8125 305.71875 C 16.402344 304.367188 16.023438 303.003906 15.679688 301.632812 C 15.335938 300.261719 15.027344 298.882812 14.75 297.496094 C 14.476562 296.109375 14.234375 294.71875 14.027344 293.320312 C 13.820312 291.921875 13.644531 290.519531 13.507812 289.113281 C 13.367188 287.707031 13.265625 286.296875 13.195312 284.882812 C 13.125 283.472656 13.089844 282.058594 13.089844 280.644531 L 13.089844 104.597656 C 13.089844 103.183594 13.125 101.769531 13.195312 100.359375 C 13.265625 98.945312 13.367188 97.539062 13.507812 96.128906 C 13.644531 94.722656 13.820312 93.320312 14.027344 91.921875 C 14.234375 90.523438 14.476562 89.132812 14.75 87.746094 C 15.027344 86.359375 15.335938 84.980469 15.679688 83.609375 C 16.023438 82.238281 16.402344 80.875 16.8125 79.523438 C 17.222656 78.167969 17.664062 76.828125 18.140625 75.496094 C 18.617188 74.164062 19.125 72.847656 19.667969 71.539062 C 20.207031 70.234375 20.78125 68.941406 21.386719 67.664062 C 21.988281 66.386719 22.625 65.125 23.292969 63.878906 C 23.957031 62.632812 24.652344 61.402344 25.382812 60.1875 C 26.109375 58.976562 26.863281 57.78125 27.648438 56.605469 C 28.433594 55.429688 29.25 54.277344 30.089844 53.140625 C 30.933594 52.003906 31.800781 50.890625 32.699219 49.796875 C 33.59375 48.707031 34.519531 47.636719 35.46875 46.585938 C 36.417969 45.539062 37.390625 44.515625 38.390625 43.515625 C 39.390625 42.515625 40.414062 41.542969 41.460938 40.59375 C 42.507812 39.644531 43.578125 38.722656 44.671875 37.824219 C 45.765625 36.925781 46.878906 36.058594 48.015625 35.214844 C 49.152344 34.375 50.304688 33.558594 51.480469 32.773438 C 52.65625 31.988281 53.851562 31.234375 55.0625 30.507812 C 56.277344 29.78125 57.503906 29.082031 58.753906 28.417969 C 60 27.75 61.261719 27.113281 62.539062 26.511719 C 63.816406 25.90625 65.109375 25.332031 66.414062 24.792969 C 67.722656 24.25 69.039062 23.742188 70.371094 23.265625 C 71.703125 22.789062 73.042969 22.347656 74.398438 21.9375 C 75.75 21.527344 77.113281 21.148438 78.484375 20.804688 C 79.855469 20.460938 81.234375 20.152344 82.621094 19.875 C 84.007812 19.601562 85.398438 19.359375 86.796875 19.152344 C 88.195312 18.945312 89.597656 18.773438 91.003906 18.632812 C 92.410156 18.496094 93.820312 18.390625 95.234375 18.320312 C 96.644531 18.25 98.058594 18.21875 99.472656 18.21875 Z M 99.472656 18.21875 " fill-opacity="1" fill-rule="nonzero"/></g><g clip-path="url(#4cdc938894)"><path fill="#ffffff" d="M 241.824219 151.808594 C 241.824219 162.953125 241.984375 174.097656 241.792969 185.234375 C 241.277344 214.789062 219.199219 237.230469 191.011719 237.035156 C 162.550781 236.835938 140.828125 214.453125 140.625 184.890625 C 140.472656 162.609375 140.441406 140.320312 140.613281 118.042969 C 140.847656 87.636719 162.417969 65.347656 191.355469 65.316406 C 219.949219 65.289062 241.5 87.921875 241.804688 118.386719 C 241.914062 129.53125 241.824219 140.664062 241.824219 151.808594 Z M 162.519531 134.996094 C 162.519531 140.878906 162.488281 146.757812 162.519531 152.640625 C 162.5625 158.734375 165.429688 163.90625 171.566406 162.824219 C 175.035156 162.214844 179.886719 156.902344 180.210938 153.359375 C 181.296875 141.382812 181.296875 129.199219 180.210938 117.222656 C 179.886719 113.722656 174.527344 110.683594 171.476562 107.4375 C 168.5 110.746094 163.9375 113.621094 162.90625 117.457031 C 161.425781 122.941406 162.53125 129.117188 162.519531 134.996094 Z M 162.519531 134.996094 " fill-opacity="1" fill-rule="nonzero"/></g><g clip-path="url(#bf77649cf8)"><path fill="#ffffff" d="M 256.121094 297.667969 L 256.121094 314.316406 L 126.339844 314.316406 L 126.339844 297.859375 L 182.753906 297.859375 C 182.753906 288.527344 183.191406 279.996094 182.410156 271.574219 C 182.238281 269.75 177.839844 267.492188 175.074219 266.867188 C 140.339844 259.011719 115.933594 233.867188 109.710938 198.980469 C 109.023438 195.089844 109.042969 191.074219 108.679688 186.449219 C 112.050781 186.246094 114.746094 185.953125 117.433594 185.953125 C 119.84375 185.953125 122.265625 186.246094 124.546875 186.398438 C 133.675781 229.585938 155.8125 250.996094 191.152344 251.1875 C 225.867188 251.378906 247.578125 230.398438 257.824219 186.449219 L 272.910156 186.449219 C 275.585938 214.3125 255.847656 246.328125 227.578125 259.667969 C 220.65625 262.9375 212.824219 264.226562 205.753906 267.222656 C 203.191406 268.304688 200.171875 271.59375 199.898438 274.144531 C 199.105469 281.421875 199.625 288.851562 199.625 297.65625 L 256.128906 297.65625 Z M 256.121094 297.667969 " fill-opacity="1" fill-rule="nonzero"/></g><g clip-path="url(#755095b0e1)"><path fill="#ffffff" d="M 61.777344 177.519531 C 56.496094 179.21875 51.847656 180.71875 46.234375 182.53125 C 34.390625 143.875 35.148438 106.179688 47.207031 67.554688 C 52.808594 69.40625 57.644531 71.015625 62.363281 72.574219 C 55.953125 114.042969 55.757812 149.027344 61.777344 177.53125 Z M 61.777344 177.519531 " fill-opacity="1" fill-rule="nonzero"/></g><g clip-path="url(#67fa99bd76)"><path fill="#ffffff" d="M 318.789062 74.507812 C 324.339844 72.707031 328.96875 71.199219 334.785156 69.316406 C 346.609375 107.890625 345.851562 145.503906 333.84375 184.28125 C 328.625 182.613281 324.046875 181.132812 318.046875 179.210938 C 328.28125 144.714844 329.710938 110.109375 318.789062 74.5 Z M 318.789062 74.507812 " fill-opacity="1" fill-rule="nonzero"/></g><path fill="#ffffff" d="M 292.152344 89.175781 C 296.183594 87.851562 300.78125 86.339844 306.527344 84.449219 C 315.707031 113.4375 315.058594 141.515625 305.871094 170.503906 C 300.378906 168.652344 295.59375 167.042969 291.378906 165.625 C 293.09375 152.164062 295.808594 139.726562 295.960938 127.246094 C 296.101562 115.046875 293.628906 102.832031 292.152344 89.175781 Z M 292.152344 89.175781 " fill-opacity="1" fill-rule="nonzero"/><path fill="#ffffff" d="M 90.378906 162.195312 C 84.835938 164.039062 80.226562 165.566406 74.605469 167.4375 C 65.152344 138.519531 66.074219 110.441406 75.109375 81.433594 C 80.390625 83.164062 84.949219 84.660156 90.683594 86.535156 C 83.8125 111.414062 82.34375 136.292969 90.390625 162.195312 Z M 90.378906 162.195312 " fill-opacity="1" fill-rule="nonzero"/><path fill="#ffffff" d="M 116.613281 99.652344 L 116.613281 147.742188 C 113.003906 148.9375 108.160156 150.523438 102.667969 152.335938 C 96.335938 133.144531 96.894531 114.835938 102.984375 95.300781 C 108.132812 96.949219 112.945312 98.488281 116.613281 99.660156 Z M 116.613281 99.652344 " fill-opacity="1" fill-rule="nonzero"/><path fill="#ffffff" d="M 278.15625 156.636719 C 272.464844 154.726562 267.882812 153.195312 264.417969 152.023438 L 264.417969 104.117188 C 267.882812 102.980469 272.71875 101.414062 278.332031 99.582031 C 284.804688 118.722656 283.933594 136.972656 278.15625 156.636719 Z M 278.15625 156.636719 " fill-opacity="1" fill-rule="nonzero"/></svg>