<svg xmlns="http://www.w3.org/2000/svg" xmlns:xlink="http://www.w3.org/1999/xlink" width="500" zoomAndPan="magnify" viewBox="0 0 375 374.999991" height="500" preserveAspectRatio="xMidYMid meet" version="1.0"><defs><g/><clipPath id="b099a0a73a"><path d="M 13.089844 18.21875 L 361.839844 18.21875 L 361.839844 366.96875 L 13.089844 366.96875 Z M 13.089844 18.21875 " clip-rule="nonzero"/></clipPath><clipPath id="f0517973a1"><path d="M 42 59.730469 L 344.953125 59.730469 L 344.953125 337.230469 L 42 337.230469 Z M 42 59.730469 " clip-rule="nonzero"/></clipPath></defs><g clip-path="url(#b099a0a73a)"><path fill="#1b4ed6" d="M 99.472656 18.21875 L 275.519531 18.21875 C 276.933594 18.21875 278.347656 18.25 279.757812 18.320312 C 281.171875 18.390625 282.578125 18.496094 283.988281 18.632812 C 285.394531 18.773438 286.796875 18.945312 288.195312 19.152344 C 289.59375 19.359375 290.984375 19.601562 292.371094 19.875 C 293.757812 20.152344 295.136719 20.460938 296.507812 20.804688 C 297.878906 21.148438 299.242188 21.527344 300.59375 21.9375 C 301.949219 22.347656 303.289062 22.789062 304.621094 23.265625 C 305.953125 23.742188 307.269531 24.25 308.574219 24.792969 C 309.882812 25.332031 311.175781 25.90625 312.453125 26.511719 C 313.730469 27.113281 314.992188 27.75 316.238281 28.417969 C 317.484375 29.082031 318.714844 29.78125 319.929688 30.507812 C 321.140625 31.234375 322.335938 31.988281 323.511719 32.773438 C 324.683594 33.558594 325.839844 34.375 326.976562 35.214844 C 328.113281 36.058594 329.226562 36.925781 330.320312 37.824219 C 331.410156 38.722656 332.480469 39.644531 333.527344 40.59375 C 334.578125 41.542969 335.601562 42.519531 336.601562 43.515625 C 337.597656 44.515625 338.574219 45.539062 339.523438 46.585938 C 340.472656 47.636719 341.394531 48.707031 342.292969 49.796875 C 343.1875 50.890625 344.058594 52.003906 344.902344 53.140625 C 345.742188 54.277344 346.558594 55.429688 347.34375 56.605469 C 348.128906 57.78125 348.882812 58.976562 349.609375 60.1875 C 350.335938 61.402344 351.035156 62.632812 351.699219 63.878906 C 352.367188 65.125 353.003906 66.386719 353.605469 67.664062 C 354.210938 68.941406 354.785156 70.234375 355.324219 71.539062 C 355.867188 72.847656 356.375 74.164062 356.851562 75.496094 C 357.328125 76.828125 357.769531 78.167969 358.179688 79.523438 C 358.589844 80.875 358.96875 82.238281 359.3125 83.609375 C 359.65625 84.980469 359.964844 86.359375 360.238281 87.746094 C 360.515625 89.132812 360.757812 90.523438 360.964844 91.921875 C 361.171875 93.320312 361.34375 94.722656 361.484375 96.128906 C 361.621094 97.539062 361.726562 98.945312 361.796875 100.359375 C 361.867188 101.769531 361.898438 103.183594 361.898438 104.597656 L 361.898438 280.644531 C 361.898438 282.058594 361.867188 283.472656 361.796875 284.882812 C 361.726562 286.296875 361.621094 287.707031 361.484375 289.113281 C 361.34375 290.519531 361.171875 291.921875 360.964844 293.320312 C 360.757812 294.71875 360.515625 296.109375 360.242188 297.496094 C 359.964844 298.882812 359.65625 300.261719 359.3125 301.632812 C 358.96875 303.003906 358.589844 304.367188 358.179688 305.71875 C 357.769531 307.074219 357.328125 308.414062 356.851562 309.746094 C 356.375 311.078125 355.867188 312.394531 355.324219 313.703125 C 354.785156 315.007812 354.210938 316.300781 353.605469 317.578125 C 353.003906 318.855469 352.367188 320.117188 351.699219 321.363281 C 351.035156 322.613281 350.335938 323.839844 349.609375 325.054688 C 348.882812 326.265625 348.128906 327.460938 347.34375 328.636719 C 346.558594 329.8125 345.742188 330.964844 344.902344 332.101562 C 344.058594 333.238281 343.1875 334.351562 342.292969 335.445312 C 341.394531 336.539062 340.472656 337.605469 339.523438 338.65625 C 338.574219 339.703125 337.597656 340.726562 336.601562 341.726562 C 335.601562 342.726562 334.578125 343.699219 333.527344 344.648438 C 332.480469 345.597656 331.410156 346.519531 330.320312 347.417969 C 329.226562 348.316406 328.113281 349.183594 326.976562 350.027344 C 325.839844 350.867188 324.683594 351.683594 323.511719 352.46875 C 322.335938 353.253906 321.140625 354.007812 319.929688 354.734375 C 318.714844 355.460938 317.484375 356.160156 316.238281 356.824219 C 314.992188 357.492188 313.730469 358.128906 312.453125 358.730469 C 311.175781 359.335938 309.882812 359.910156 308.574219 360.449219 C 307.269531 360.992188 305.953125 361.5 304.621094 361.976562 C 303.289062 362.453125 301.949219 362.894531 300.59375 363.304688 C 299.242188 363.714844 297.878906 364.09375 296.507812 364.4375 C 295.136719 364.78125 293.757812 365.089844 292.371094 365.367188 C 290.984375 365.640625 289.59375 365.882812 288.195312 366.089844 C 286.796875 366.296875 285.394531 366.472656 283.988281 366.609375 C 282.578125 366.75 281.171875 366.851562 279.757812 366.921875 C 278.347656 366.992188 276.933594 367.027344 275.519531 367.027344 L 99.472656 367.027344 C 98.058594 367.027344 96.644531 366.992188 95.234375 366.921875 C 93.820312 366.851562 92.410156 366.75 91.003906 366.609375 C 89.597656 366.472656 88.195312 366.296875 86.796875 366.089844 C 85.398438 365.882812 84.007812 365.640625 82.621094 365.367188 C 81.234375 365.089844 79.855469 364.78125 78.484375 364.4375 C 77.113281 364.09375 75.75 363.714844 74.398438 363.304688 C 73.042969 362.894531 71.703125 362.453125 70.371094 361.976562 C 69.039062 361.5 67.722656 360.992188 66.414062 360.449219 C 65.109375 359.910156 63.816406 359.335938 62.539062 358.730469 C 61.261719 358.128906 60 357.492188 58.753906 356.824219 C 57.503906 356.160156 56.277344 355.460938 55.0625 354.734375 C 53.851562 354.007812 52.65625 353.253906 51.480469 352.46875 C 50.304688 351.683594 49.152344 350.867188 48.015625 350.027344 C 46.878906 349.183594 45.765625 348.316406 44.671875 347.417969 C 43.578125 346.519531 42.507812 345.597656 41.460938 344.648438 C 40.414062 343.699219 39.390625 342.726562 38.390625 341.726562 C 37.390625 340.726562 36.417969 339.703125 35.46875 338.65625 C 34.519531 337.605469 33.59375 336.539062 32.699219 335.445312 C 31.800781 334.351562 30.933594 333.238281 30.089844 332.101562 C 29.25 330.964844 28.433594 329.8125 27.648438 328.636719 C 26.863281 327.460938 26.109375 326.265625 25.382812 325.054688 C 24.652344 323.839844 23.957031 322.613281 23.292969 321.363281 C 22.625 320.117188 21.988281 318.855469 21.386719 317.578125 C 20.78125 316.300781 20.207031 315.007812 19.667969 313.703125 C 19.125 312.394531 18.617188 311.078125 18.140625 309.746094 C 17.664062 308.414062 17.222656 307.074219 16.8125 305.71875 C 16.402344 304.367188 16.023438 303.003906 15.679688 301.632812 C 15.335938 300.261719 15.027344 298.882812 14.75 297.496094 C 14.476562 296.109375 14.234375 294.71875 14.027344 293.320312 C 13.820312 291.921875 13.644531 290.519531 13.507812 289.113281 C 13.367188 287.707031 13.265625 286.296875 13.195312 284.882812 C 13.125 283.472656 13.089844 282.058594 13.089844 280.644531 L 13.089844 104.597656 C 13.089844 103.183594 13.125 101.769531 13.195312 100.359375 C 13.265625 98.945312 13.367188 97.539062 13.507812 96.128906 C 13.644531 94.722656 13.820312 93.320312 14.027344 91.921875 C 14.234375 90.523438 14.476562 89.132812 14.75 87.746094 C 15.027344 86.359375 15.335938 84.980469 15.679688 83.609375 C 16.023438 82.238281 16.402344 80.875 16.8125 79.523438 C 17.222656 78.167969 17.664062 76.828125 18.140625 75.496094 C 18.617188 74.164062 19.125 72.847656 19.667969 71.539062 C 20.207031 70.234375 20.78125 68.941406 21.386719 67.664062 C 21.988281 66.386719 22.625 65.125 23.292969 63.878906 C 23.957031 62.632812 24.652344 61.402344 25.382812 60.1875 C 26.109375 58.976562 26.863281 57.78125 27.648438 56.605469 C 28.433594 55.429688 29.25 54.277344 30.089844 53.140625 C 30.933594 52.003906 31.800781 50.890625 32.699219 49.796875 C 33.59375 48.707031 34.519531 47.636719 35.46875 46.585938 C 36.417969 45.539062 37.390625 44.515625 38.390625 43.515625 C 39.390625 42.515625 40.414062 41.542969 41.460938 40.59375 C 42.507812 39.644531 43.578125 38.722656 44.671875 37.824219 C 45.765625 36.925781 46.878906 36.058594 48.015625 35.214844 C 49.152344 34.375 50.304688 33.558594 51.480469 32.773438 C 52.65625 31.988281 53.851562 31.234375 55.0625 30.507812 C 56.277344 29.78125 57.503906 29.082031 58.753906 28.417969 C 60 27.75 61.261719 27.113281 62.539062 26.511719 C 63.816406 25.90625 65.109375 25.332031 66.414062 24.792969 C 67.722656 24.25 69.039062 23.742188 70.371094 23.265625 C 71.703125 22.789062 73.042969 22.347656 74.398438 21.9375 C 75.75 21.527344 77.113281 21.148438 78.484375 20.804688 C 79.855469 20.460938 81.234375 20.152344 82.621094 19.875 C 84.007812 19.601562 85.398438 19.359375 86.796875 19.152344 C 88.195312 18.945312 89.597656 18.773438 91.003906 18.632812 C 92.410156 18.496094 93.820312 18.390625 95.234375 18.320312 C 96.644531 18.25 98.058594 18.21875 99.472656 18.21875 Z M 99.472656 18.21875 " fill-opacity="1" fill-rule="nonzero"/></g><g clip-path="url(#f0517973a1)"><path fill="#ffffff" d="M 300.84375 261.738281 C 297.058594 261.738281 294.53125 264.261719 294.53125 268.050781 L 294.53125 305.925781 C 294.53125 316.027344 285.695312 324.863281 275.59375 324.863281 L 73.589844 324.863281 C 63.488281 324.863281 54.652344 316.027344 54.652344 305.925781 L 54.652344 122.859375 L 294.53125 122.859375 L 294.53125 167.046875 C 294.53125 170.835938 297.058594 173.359375 300.84375 173.359375 C 304.632812 173.359375 307.15625 170.835938 307.15625 167.046875 L 307.15625 91.296875 C 307.15625 73.621094 293.269531 59.730469 275.59375 59.730469 L 73.589844 59.730469 C 55.914062 59.730469 42.023438 73.621094 42.023438 91.296875 L 42.023438 305.925781 C 42.023438 323.601562 55.914062 337.488281 73.589844 337.488281 L 275.59375 337.488281 C 293.269531 337.488281 307.15625 323.601562 307.15625 305.925781 L 307.15625 268.050781 C 307.15625 264.261719 304.632812 261.738281 300.84375 261.738281 Z M 124.089844 84.980469 C 127.878906 84.980469 130.402344 87.507812 130.402344 91.296875 C 130.402344 95.082031 127.878906 97.609375 124.089844 97.609375 C 120.300781 97.609375 117.777344 95.082031 117.777344 91.296875 C 117.777344 87.507812 120.300781 84.980469 124.089844 84.980469 Z M 98.839844 84.980469 C 102.625 84.980469 105.152344 87.507812 105.152344 91.296875 C 105.152344 95.082031 102.625 97.609375 98.839844 97.609375 C 95.050781 97.609375 92.527344 95.082031 92.527344 91.296875 C 92.527344 87.507812 95.050781 84.980469 98.839844 84.980469 Z M 73.589844 84.980469 C 77.375 84.980469 79.902344 87.507812 79.902344 91.296875 C 79.902344 95.082031 77.375 97.609375 73.589844 97.609375 C 69.800781 97.609375 67.277344 95.082031 67.277344 91.296875 C 67.277344 87.507812 69.800781 84.980469 73.589844 84.980469 Z M 326.09375 185.984375 L 313.46875 185.984375 C 309.683594 185.984375 307.15625 188.511719 307.15625 192.296875 L 307.15625 242.800781 C 307.15625 246.585938 309.683594 249.113281 313.46875 249.113281 C 317.257812 249.113281 319.78125 246.585938 319.78125 242.800781 L 319.78125 223.859375 L 326.09375 223.859375 C 336.195312 223.859375 345.035156 215.023438 345.035156 204.921875 C 345.035156 194.824219 336.195312 185.984375 326.09375 185.984375 Z M 326.09375 211.234375 L 319.78125 211.234375 L 319.78125 198.609375 L 326.09375 198.609375 C 329.882812 198.609375 332.410156 201.136719 332.410156 204.921875 C 332.410156 208.710938 329.882812 211.234375 326.09375 211.234375 Z M 262.96875 185.984375 C 259.179688 185.984375 256.65625 188.511719 256.65625 192.296875 L 256.65625 242.800781 C 256.65625 246.585938 259.179688 249.113281 262.96875 249.113281 C 266.757812 249.113281 269.28125 246.585938 269.28125 242.800781 L 269.28125 223.859375 L 275.59375 223.859375 C 285.695312 223.859375 294.53125 215.023438 294.53125 204.921875 C 294.53125 194.824219 285.695312 185.984375 275.59375 185.984375 Z M 281.90625 204.921875 C 281.90625 208.710938 279.382812 211.234375 275.59375 211.234375 L 269.28125 211.234375 L 269.28125 198.609375 L 275.59375 198.609375 C 279.382812 198.609375 281.90625 201.136719 281.90625 204.921875 Z M 212.46875 189.773438 L 193.53125 240.273438 C 192.265625 244.0625 193.53125 246.585938 197.316406 247.847656 C 201.105469 249.113281 203.628906 247.847656 204.890625 244.0625 L 208.679688 235.222656 L 228.878906 235.222656 L 232.667969 244.0625 C 233.929688 246.585938 236.453125 247.847656 238.980469 247.847656 C 240.242188 247.847656 240.242188 247.847656 241.503906 247.847656 C 245.292969 246.585938 246.554688 242.800781 245.292969 240.273438 L 226.355469 189.773438 C 222.566406 184.722656 214.992188 184.722656 212.46875 189.773438 Z M 213.730469 223.859375 L 218.78125 209.972656 L 223.832031 223.859375 Z M 213.730469 223.859375 " fill-opacity="1" fill-rule="nonzero"/></g><g fill="#ffffff" fill-opacity="1"><g transform="translate(64.188084, 167.813281)"><g><path d="M 11.734375 0 L 7.5 0 L 7.5 -8.40625 L 0.109375 -21.421875 L 4.640625 -21.421875 L 9.546875 -13 L 9.90625 -13 L 14.703125 -21.421875 L 19.140625 -21.421875 L 11.734375 -8.40625 Z M 11.734375 0 "/></g></g></g><g fill="#ffffff" fill-opacity="1"><g transform="translate(83.429, 167.813281)"><g><path d="M 11.6875 0.3125 C 9.71875 0.3125 7.984375 -0.0859375 6.484375 -0.890625 C 4.984375 -1.691406 3.804688 -2.914062 2.953125 -4.5625 C 2.109375 -6.207031 1.6875 -8.257812 1.6875 -10.71875 C 1.6875 -13.164062 2.109375 -15.210938 2.953125 -16.859375 C 3.804688 -18.503906 4.984375 -19.726562 6.484375 -20.53125 C 7.984375 -21.332031 9.71875 -21.734375 11.6875 -21.734375 C 13.644531 -21.734375 15.367188 -21.332031 16.859375 -20.53125 C 18.359375 -19.738281 19.53125 -18.515625 20.375 -16.859375 C 21.21875 -15.210938 21.640625 -13.164062 21.640625 -10.71875 C 21.640625 -8.257812 21.21875 -6.203125 20.375 -4.546875 C 19.53125 -2.898438 18.359375 -1.675781 16.859375 -0.875 C 15.367188 -0.0820312 13.644531 0.3125 11.6875 0.3125 Z M 11.6875 -3.375 C 13.5 -3.375 14.882812 -3.957031 15.84375 -5.125 C 16.800781 -6.289062 17.28125 -8.15625 17.28125 -10.71875 C 17.28125 -13.269531 16.800781 -15.132812 15.84375 -16.3125 C 14.882812 -17.488281 13.5 -18.078125 11.6875 -18.078125 C 9.851562 -18.078125 8.453125 -17.488281 7.484375 -16.3125 C 6.523438 -15.132812 6.046875 -13.269531 6.046875 -10.71875 C 6.046875 -8.15625 6.523438 -6.289062 7.484375 -5.125 C 8.453125 -3.957031 9.851562 -3.375 11.6875 -3.375 Z M 11.6875 -3.375 "/></g></g></g><g fill="#ffffff" fill-opacity="1"><g transform="translate(106.773081, 167.813281)"><g><path d="M 11.359375 0.3125 C 8.410156 0.3125 6.222656 -0.390625 4.796875 -1.796875 C 3.367188 -3.203125 2.65625 -5.28125 2.65625 -8.03125 L 2.65625 -21.421875 L 6.796875 -21.421875 L 6.796875 -8.0625 C 6.796875 -6.5 7.171875 -5.328125 7.921875 -4.546875 C 8.679688 -3.765625 9.828125 -3.375 11.359375 -3.375 C 14.398438 -3.375 15.921875 -4.9375 15.921875 -8.0625 L 15.921875 -21.421875 L 20.0625 -21.421875 L 20.0625 -8.03125 C 20.0625 -5.28125 19.347656 -3.203125 17.921875 -1.796875 C 16.492188 -0.390625 14.304688 0.3125 11.359375 0.3125 Z M 11.359375 0.3125 "/></g></g></g><g fill="#ffffff" fill-opacity="1"><g transform="translate(129.487026, 167.813281)"><g><path d="M 2.78125 0 L 2.78125 -21.421875 L 11.390625 -21.421875 C 13.609375 -21.421875 15.28125 -20.910156 16.40625 -19.890625 C 17.53125 -18.867188 18.09375 -17.460938 18.09375 -15.671875 C 18.09375 -14.367188 17.765625 -13.300781 17.109375 -12.46875 C 16.453125 -11.632812 15.46875 -11 14.15625 -10.5625 L 14.15625 -10.265625 C 14.832031 -9.960938 15.378906 -9.523438 15.796875 -8.953125 C 16.210938 -8.378906 16.601562 -7.523438 16.96875 -6.390625 L 19.109375 0 L 14.765625 0 L 12.65625 -6.40625 C 12.445312 -7.050781 12.207031 -7.550781 11.9375 -7.90625 C 11.664062 -8.257812 11.320312 -8.515625 10.90625 -8.671875 C 10.488281 -8.835938 9.953125 -8.921875 9.296875 -8.921875 L 7.015625 -8.921875 L 7.015625 0 Z M 10.875 -12.28125 C 12.925781 -12.28125 13.953125 -13.238281 13.953125 -15.15625 C 13.953125 -17.101562 12.925781 -18.078125 10.875 -18.078125 L 7.015625 -18.078125 L 7.015625 -12.28125 Z M 10.875 -12.28125 "/></g></g></g><g fill="#ffffff" fill-opacity="1"><g transform="translate(149.519267, 167.813281)"><g/></g></g><g fill="#ffffff" fill-opacity="1"><g transform="translate(156.597232, 167.813281)"><g><path d="M 11.703125 0.3125 C 9.734375 0.3125 7.992188 -0.0976562 6.484375 -0.921875 C 4.984375 -1.742188 3.804688 -2.976562 2.953125 -4.625 C 2.109375 -6.269531 1.6875 -8.300781 1.6875 -10.71875 C 1.6875 -13.125 2.109375 -15.148438 2.953125 -16.796875 C 3.804688 -18.441406 4.984375 -19.675781 6.484375 -20.5 C 7.992188 -21.320312 9.734375 -21.734375 11.703125 -21.734375 C 13.765625 -21.734375 15.515625 -21.328125 16.953125 -20.515625 C 18.398438 -19.710938 19.429688 -18.488281 20.046875 -16.84375 L 16.953125 -14.953125 L 16.59375 -14.96875 C 16.132812 -16.082031 15.507812 -16.878906 14.71875 -17.359375 C 13.9375 -17.835938 12.929688 -18.078125 11.703125 -18.078125 C 9.929688 -18.078125 8.546875 -17.488281 7.546875 -16.3125 C 6.546875 -15.132812 6.046875 -13.269531 6.046875 -10.71875 C 6.046875 -8.164062 6.546875 -6.300781 7.546875 -5.125 C 8.546875 -3.945312 9.929688 -3.359375 11.703125 -3.359375 C 14.492188 -3.359375 16.203125 -4.710938 16.828125 -7.421875 L 17.1875 -7.421875 L 20.3125 -5.796875 C 19.726562 -3.753906 18.726562 -2.222656 17.3125 -1.203125 C 15.894531 -0.191406 14.023438 0.3125 11.703125 0.3125 Z M 11.703125 0.3125 "/></g></g></g><g fill="#ffffff" fill-opacity="1"><g transform="translate(177.611295, 167.813281)"><g><path d="M 11.359375 0.3125 C 8.410156 0.3125 6.222656 -0.390625 4.796875 -1.796875 C 3.367188 -3.203125 2.65625 -5.28125 2.65625 -8.03125 L 2.65625 -21.421875 L 6.796875 -21.421875 L 6.796875 -8.0625 C 6.796875 -6.5 7.171875 -5.328125 7.921875 -4.546875 C 8.679688 -3.765625 9.828125 -3.375 11.359375 -3.375 C 14.398438 -3.375 15.921875 -4.9375 15.921875 -8.0625 L 15.921875 -21.421875 L 20.0625 -21.421875 L 20.0625 -8.03125 C 20.0625 -5.28125 19.347656 -3.203125 17.921875 -1.796875 C 16.492188 -0.390625 14.304688 0.3125 11.359375 0.3125 Z M 11.359375 0.3125 "/></g></g></g><g fill="#ffffff" fill-opacity="1"><g transform="translate(200.325241, 167.813281)"><g><path d="M 9.5 0.3125 C 8.007812 0.3125 6.6875 0.128906 5.53125 -0.234375 C 4.375 -0.609375 3.410156 -1.09375 2.640625 -1.6875 C 1.867188 -2.28125 1.273438 -2.9375 0.859375 -3.65625 L 3.1875 -6.5 L 3.5625 -6.5 C 4.207031 -5.539062 5.023438 -4.773438 6.015625 -4.203125 C 7.003906 -3.640625 8.164062 -3.359375 9.5 -3.359375 C 10.632812 -3.359375 11.488281 -3.597656 12.0625 -4.078125 C 12.632812 -4.554688 12.921875 -5.210938 12.921875 -6.046875 C 12.921875 -6.554688 12.828125 -6.984375 12.640625 -7.328125 C 12.460938 -7.671875 12.15625 -7.960938 11.71875 -8.203125 C 11.289062 -8.453125 10.710938 -8.664062 9.984375 -8.84375 L 7.21875 -9.46875 C 5.300781 -9.90625 3.867188 -10.632812 2.921875 -11.65625 C 1.984375 -12.675781 1.515625 -14.003906 1.515625 -15.640625 C 1.515625 -16.847656 1.816406 -17.910156 2.421875 -18.828125 C 3.023438 -19.742188 3.90625 -20.457031 5.0625 -20.96875 C 6.21875 -21.476562 7.601562 -21.734375 9.21875 -21.734375 C 10.875 -21.734375 12.289062 -21.515625 13.46875 -21.078125 C 14.644531 -20.648438 15.632812 -19.984375 16.4375 -19.078125 L 14.34375 -16.203125 L 13.984375 -16.203125 C 13.378906 -16.835938 12.6875 -17.3125 11.90625 -17.625 C 11.125 -17.945312 10.226562 -18.109375 9.21875 -18.109375 C 8.050781 -18.109375 7.164062 -17.90625 6.5625 -17.5 C 5.957031 -17.09375 5.65625 -16.523438 5.65625 -15.796875 C 5.65625 -15.117188 5.867188 -14.582031 6.296875 -14.1875 C 6.722656 -13.789062 7.457031 -13.476562 8.5 -13.25 L 11.3125 -12.65625 C 13.394531 -12.21875 14.90625 -11.472656 15.84375 -10.421875 C 16.78125 -9.378906 17.25 -8.007812 17.25 -6.3125 C 17.25 -4.976562 16.957031 -3.8125 16.375 -2.8125 C 15.800781 -1.820312 14.929688 -1.050781 13.765625 -0.5 C 12.609375 0.0390625 11.1875 0.3125 9.5 0.3125 Z M 9.5 0.3125 "/></g></g></g><g fill="#ffffff" fill-opacity="1"><g transform="translate(218.730864, 167.813281)"><g><path d="M 17.171875 -21.421875 L 17.171875 -17.859375 L 10.984375 -17.859375 L 10.984375 0 L 6.765625 0 L 6.765625 -17.859375 L 0.59375 -17.859375 L 0.59375 -21.421875 Z M 17.171875 -21.421875 "/></g></g></g><g fill="#ffffff" fill-opacity="1"><g transform="translate(236.491705, 167.813281)"><g><path d="M 11.6875 0.3125 C 9.71875 0.3125 7.984375 -0.0859375 6.484375 -0.890625 C 4.984375 -1.691406 3.804688 -2.914062 2.953125 -4.5625 C 2.109375 -6.207031 1.6875 -8.257812 1.6875 -10.71875 C 1.6875 -13.164062 2.109375 -15.210938 2.953125 -16.859375 C 3.804688 -18.503906 4.984375 -19.726562 6.484375 -20.53125 C 7.984375 -21.332031 9.71875 -21.734375 11.6875 -21.734375 C 13.644531 -21.734375 15.367188 -21.332031 16.859375 -20.53125 C 18.359375 -19.738281 19.53125 -18.515625 20.375 -16.859375 C 21.21875 -15.210938 21.640625 -13.164062 21.640625 -10.71875 C 21.640625 -8.257812 21.21875 -6.203125 20.375 -4.546875 C 19.53125 -2.898438 18.359375 -1.675781 16.859375 -0.875 C 15.367188 -0.0820312 13.644531 0.3125 11.6875 0.3125 Z M 11.6875 -3.375 C 13.5 -3.375 14.882812 -3.957031 15.84375 -5.125 C 16.800781 -6.289062 17.28125 -8.15625 17.28125 -10.71875 C 17.28125 -13.269531 16.800781 -15.132812 15.84375 -16.3125 C 14.882812 -17.488281 13.5 -18.078125 11.6875 -18.078125 C 9.851562 -18.078125 8.453125 -17.488281 7.484375 -16.3125 C 6.523438 -15.132812 6.046875 -13.269531 6.046875 -10.71875 C 6.046875 -8.15625 6.523438 -6.289062 7.484375 -5.125 C 8.453125 -3.957031 9.851562 -3.375 11.6875 -3.375 Z M 11.6875 -3.375 "/></g></g></g><g fill="#ffffff" fill-opacity="1"><g transform="translate(259.835785, 167.813281)"><g><path d="M 6.671875 0 L 2.78125 0 L 2.78125 -21.421875 L 8.328125 -21.421875 L 13.75 -5.671875 L 14.0625 -5.671875 L 19.453125 -21.421875 L 24.859375 -21.421875 L 24.859375 0 L 20.84375 0 L 20.84375 -14.15625 L 20.46875 -14.21875 L 15.515625 0 L 11.984375 0 L 7.03125 -14.21875 L 6.671875 -14.15625 Z M 6.671875 0 "/></g></g></g><g fill="#ffffff" fill-opacity="1"><g transform="translate(62.990163, 290.772461)"><g><path d="M 8.109375 -15.703125 C 9.234375 -15.703125 10.191406 -15.492188 10.984375 -15.078125 C 11.785156 -14.671875 12.390625 -14.097656 12.796875 -13.359375 C 13.210938 -12.617188 13.421875 -11.757812 13.421875 -10.78125 C 13.421875 -9.789062 13.210938 -8.925781 12.796875 -8.1875 C 12.390625 -7.457031 11.785156 -6.882812 10.984375 -6.46875 C 10.191406 -6.0625 9.234375 -5.859375 8.109375 -5.859375 L 5.140625 -5.859375 L 5.140625 0 L 2.046875 0 L 2.046875 -15.703125 Z M 7.703125 -8.3125 C 9.429688 -8.3125 10.296875 -9.132812 10.296875 -10.78125 C 10.296875 -12.425781 9.429688 -13.25 7.703125 -13.25 L 5.140625 -13.25 L 5.140625 -8.3125 Z M 7.703125 -8.3125 "/></g></g></g><g fill="#ffffff" fill-opacity="1"><g transform="translate(77.339176, 290.772461)"><g><path d="M 1.703125 0 L 1.703125 -11.84375 L 4.59375 -11.84375 L 4.59375 -10.09375 L 4.828125 -10.046875 C 5.109375 -10.703125 5.484375 -11.179688 5.953125 -11.484375 C 6.421875 -11.796875 6.988281 -11.953125 7.65625 -11.953125 C 8.320312 -11.953125 8.832031 -11.835938 9.1875 -11.609375 L 8.6875 -9.046875 L 8.453125 -9 C 8.265625 -9.082031 8.078125 -9.140625 7.890625 -9.171875 C 7.710938 -9.210938 7.492188 -9.234375 7.234375 -9.234375 C 6.410156 -9.234375 5.78125 -8.941406 5.34375 -8.359375 C 4.90625 -7.773438 4.6875 -6.835938 4.6875 -5.546875 L 4.6875 0 Z M 1.703125 0 "/></g></g></g><g fill="#ffffff" fill-opacity="1"><g transform="translate(86.629523, 290.772461)"><g><path d="M 3.1875 -13.265625 C 2.65625 -13.265625 2.21875 -13.425781 1.875 -13.75 C 1.539062 -14.082031 1.375 -14.503906 1.375 -15.015625 C 1.375 -15.523438 1.539062 -15.941406 1.875 -16.265625 C 2.21875 -16.597656 2.65625 -16.765625 3.1875 -16.765625 C 3.550781 -16.765625 3.867188 -16.6875 4.140625 -16.53125 C 4.421875 -16.382812 4.640625 -16.175781 4.796875 -15.90625 C 4.953125 -15.644531 5.03125 -15.347656 5.03125 -15.015625 C 5.03125 -14.679688 4.953125 -14.378906 4.796875 -14.109375 C 4.640625 -13.847656 4.421875 -13.640625 4.140625 -13.484375 C 3.867188 -13.335938 3.550781 -13.265625 3.1875 -13.265625 Z M 1.703125 0 L 1.703125 -11.84375 L 4.6875 -11.84375 L 4.6875 0 Z M 1.703125 0 "/></g></g></g><g fill="#ffffff" fill-opacity="1"><g transform="translate(93.009249, 290.772461)"><g><path d="M 8.15625 0 L 4.609375 0 L 0.21875 -11.84375 L 3.34375 -11.84375 L 6.28125 -3.40625 L 6.53125 -3.40625 L 9.484375 -11.84375 L 12.53125 -11.84375 Z M 8.15625 0 "/></g></g></g><g fill="#ffffff" fill-opacity="1"><g transform="translate(105.747221, 290.772461)"><g><path d="M 4.625 0.21875 C 3.863281 0.21875 3.203125 0.0820312 2.640625 -0.1875 C 2.085938 -0.46875 1.660156 -0.878906 1.359375 -1.421875 C 1.054688 -1.960938 0.90625 -2.613281 0.90625 -3.375 C 0.90625 -4.070312 1.054688 -4.660156 1.359375 -5.140625 C 1.660156 -5.617188 2.125 -6.007812 2.75 -6.3125 C 3.382812 -6.613281 4.207031 -6.847656 5.21875 -7.015625 C 5.925781 -7.128906 6.460938 -7.253906 6.828125 -7.390625 C 7.203125 -7.523438 7.453125 -7.675781 7.578125 -7.84375 C 7.710938 -8.019531 7.78125 -8.242188 7.78125 -8.515625 C 7.78125 -8.890625 7.644531 -9.175781 7.375 -9.375 C 7.113281 -9.570312 6.675781 -9.671875 6.0625 -9.671875 C 5.40625 -9.671875 4.773438 -9.523438 4.171875 -9.234375 C 3.578125 -8.941406 3.0625 -8.554688 2.625 -8.078125 L 2.421875 -8.078125 L 1.171875 -9.953125 C 1.773438 -10.617188 2.507812 -11.140625 3.375 -11.515625 C 4.238281 -11.890625 5.179688 -12.078125 6.203125 -12.078125 C 7.773438 -12.078125 8.910156 -11.742188 9.609375 -11.078125 C 10.316406 -10.410156 10.671875 -9.460938 10.671875 -8.234375 L 10.671875 -3.09375 C 10.671875 -2.5625 10.898438 -2.296875 11.359375 -2.296875 C 11.546875 -2.296875 11.722656 -2.328125 11.890625 -2.390625 L 12.046875 -2.359375 L 12.25 -0.28125 C 12.09375 -0.175781 11.863281 -0.0859375 11.5625 -0.015625 C 11.269531 0.0546875 10.953125 0.09375 10.609375 0.09375 C 9.898438 0.09375 9.34375 -0.0390625 8.9375 -0.3125 C 8.539062 -0.59375 8.257812 -1.019531 8.09375 -1.59375 L 7.859375 -1.625 C 7.285156 -0.394531 6.207031 0.21875 4.625 0.21875 Z M 5.5625 -2 C 6.25 -2 6.796875 -2.226562 7.203125 -2.6875 C 7.617188 -3.15625 7.828125 -3.800781 7.828125 -4.625 L 7.828125 -5.828125 L 7.625 -5.859375 C 7.445312 -5.722656 7.210938 -5.601562 6.921875 -5.5 C 6.628906 -5.40625 6.210938 -5.3125 5.671875 -5.21875 C 5.023438 -5.113281 4.5625 -4.929688 4.28125 -4.671875 C 4 -4.410156 3.859375 -4.039062 3.859375 -3.5625 C 3.859375 -3.050781 4.007812 -2.660156 4.3125 -2.390625 C 4.613281 -2.128906 5.03125 -2 5.5625 -2 Z M 5.5625 -2 "/></g></g></g><g fill="#ffffff" fill-opacity="1"><g transform="translate(118.238172, 290.772461)"><g><path d="M 8.171875 -2.828125 L 8.953125 -0.625 C 8.628906 -0.351562 8.222656 -0.144531 7.734375 0 C 7.242188 0.144531 6.691406 0.21875 6.078125 0.21875 C 4.796875 0.21875 3.820312 -0.128906 3.15625 -0.828125 C 2.488281 -1.523438 2.15625 -2.539062 2.15625 -3.875 L 2.15625 -9.5 L 0.359375 -9.5 L 0.359375 -11.859375 L 2.15625 -11.859375 L 2.15625 -14.171875 L 5.140625 -14.65625 L 5.140625 -11.859375 L 8.5 -11.859375 L 8.5 -9.5 L 5.140625 -9.5 L 5.140625 -4.078125 C 5.140625 -3.492188 5.257812 -3.066406 5.5 -2.796875 C 5.738281 -2.523438 6.09375 -2.390625 6.5625 -2.390625 C 7.09375 -2.390625 7.554688 -2.535156 7.953125 -2.828125 Z M 8.171875 -2.828125 "/></g></g></g><g fill="#ffffff" fill-opacity="1"><g transform="translate(127.442597, 290.772461)"><g><path d="M 11.703125 -5.25 L 4.09375 -5.25 C 4.175781 -4.21875 4.46875 -3.46875 4.96875 -3 C 5.46875 -2.53125 6.15625 -2.296875 7.03125 -2.296875 C 7.707031 -2.296875 8.253906 -2.421875 8.671875 -2.671875 C 9.097656 -2.929688 9.441406 -3.316406 9.703125 -3.828125 L 9.921875 -3.828125 L 11.90625 -2.5625 C 11.519531 -1.738281 10.9375 -1.066406 10.15625 -0.546875 C 9.375 -0.0351562 8.332031 0.21875 7.03125 0.21875 C 5.800781 0.21875 4.738281 -0.0078125 3.84375 -0.46875 C 2.957031 -0.9375 2.269531 -1.628906 1.78125 -2.546875 C 1.300781 -3.472656 1.0625 -4.597656 1.0625 -5.921875 C 1.0625 -7.265625 1.316406 -8.394531 1.828125 -9.3125 C 2.335938 -10.238281 3.023438 -10.929688 3.890625 -11.390625 C 4.753906 -11.847656 5.726562 -12.078125 6.8125 -12.078125 C 8.488281 -12.078125 9.769531 -11.628906 10.65625 -10.734375 C 11.550781 -9.847656 12 -8.546875 12 -6.828125 C 12 -6.203125 11.976562 -5.71875 11.9375 -5.375 Z M 9.15625 -7.171875 C 9.125 -8.078125 8.910156 -8.734375 8.515625 -9.140625 C 8.128906 -9.554688 7.5625 -9.765625 6.8125 -9.765625 C 5.3125 -9.765625 4.425781 -8.898438 4.15625 -7.171875 Z M 9.15625 -7.171875 "/></g></g></g><g fill="#ffffff" fill-opacity="1"><g transform="translate(140.320197, 290.772461)"><g/></g></g><g fill="#ffffff" fill-opacity="1"><g transform="translate(145.507758, 290.772461)"><g><path d="M 8.5625 0.21875 C 7.125 0.21875 5.851562 -0.0703125 4.75 -0.65625 C 3.65625 -1.238281 2.796875 -2.132812 2.171875 -3.34375 C 1.546875 -4.550781 1.234375 -6.054688 1.234375 -7.859375 C 1.234375 -9.648438 1.546875 -11.148438 2.171875 -12.359375 C 2.796875 -13.566406 3.65625 -14.460938 4.75 -15.046875 C 5.851562 -15.640625 7.125 -15.9375 8.5625 -15.9375 C 10 -15.9375 11.265625 -15.644531 12.359375 -15.0625 C 13.460938 -14.476562 14.320312 -13.578125 14.9375 -12.359375 C 15.550781 -11.148438 15.859375 -9.648438 15.859375 -7.859375 C 15.859375 -6.054688 15.550781 -4.550781 14.9375 -3.34375 C 14.320312 -2.132812 13.460938 -1.238281 12.359375 -0.65625 C 11.265625 -0.0703125 10 0.21875 8.5625 0.21875 Z M 8.5625 -2.46875 C 9.894531 -2.46875 10.910156 -2.894531 11.609375 -3.75 C 12.316406 -4.601562 12.671875 -5.972656 12.671875 -7.859375 C 12.671875 -9.734375 12.316406 -11.097656 11.609375 -11.953125 C 10.910156 -12.816406 9.894531 -13.25 8.5625 -13.25 C 7.21875 -13.25 6.191406 -12.816406 5.484375 -11.953125 C 4.785156 -11.097656 4.4375 -9.734375 4.4375 -7.859375 C 4.4375 -5.972656 4.785156 -4.601562 5.484375 -3.75 C 6.191406 -2.894531 7.21875 -2.46875 8.5625 -2.46875 Z M 8.5625 -2.46875 "/></g></g></g><g fill="#ffffff" fill-opacity="1"><g transform="translate(162.617029, 290.772461)"><g><path d="M 2.046875 0 L 2.046875 -15.703125 L 8.34375 -15.703125 C 9.96875 -15.703125 11.191406 -15.328125 12.015625 -14.578125 C 12.847656 -13.828125 13.265625 -12.796875 13.265625 -11.484375 C 13.265625 -10.535156 13.019531 -9.753906 12.53125 -9.140625 C 12.050781 -8.535156 11.332031 -8.070312 10.375 -7.75 L 10.375 -7.515625 C 10.875 -7.304688 11.273438 -6.988281 11.578125 -6.5625 C 11.878906 -6.144531 12.164062 -5.519531 12.4375 -4.6875 L 14.015625 0 L 10.8125 0 L 9.28125 -4.6875 C 9.125 -5.164062 8.945312 -5.535156 8.75 -5.796875 C 8.550781 -6.054688 8.300781 -6.242188 8 -6.359375 C 7.695312 -6.484375 7.300781 -6.546875 6.8125 -6.546875 L 5.140625 -6.546875 L 5.140625 0 Z M 7.96875 -9 C 9.476562 -9 10.234375 -9.703125 10.234375 -11.109375 C 10.234375 -12.535156 9.476562 -13.25 7.96875 -13.25 L 5.140625 -13.25 L 5.140625 -9 Z M 7.96875 -9 "/></g></g></g><g fill="#ffffff" fill-opacity="1"><g transform="translate(177.298997, 290.772461)"><g/></g></g><g fill="#ffffff" fill-opacity="1"><g transform="translate(182.486557, 290.772461)"><g><path d="M 4.890625 0 L 2.046875 0 L 2.046875 -15.703125 L 6.109375 -15.703125 L 10.078125 -4.15625 L 10.296875 -4.15625 L 14.25 -15.703125 L 18.21875 -15.703125 L 18.21875 0 L 15.28125 0 L 15.28125 -10.375 L 15 -10.421875 L 11.375 0 L 8.78125 0 L 5.15625 -10.421875 L 4.890625 -10.375 Z M 4.890625 0 "/></g></g></g><g fill="#ffffff" fill-opacity="1"><g transform="translate(202.75347, 290.772461)"><g><path d="M 6.890625 0.21875 C 5.722656 0.21875 4.703125 -0.015625 3.828125 -0.484375 C 2.953125 -0.960938 2.269531 -1.660156 1.78125 -2.578125 C 1.300781 -3.503906 1.0625 -4.617188 1.0625 -5.921875 C 1.0625 -7.222656 1.300781 -8.332031 1.78125 -9.25 C 2.269531 -10.175781 2.953125 -10.878906 3.828125 -11.359375 C 4.703125 -11.835938 5.722656 -12.078125 6.890625 -12.078125 C 8.046875 -12.078125 9.0625 -11.835938 9.9375 -11.359375 C 10.820312 -10.878906 11.503906 -10.175781 11.984375 -9.25 C 12.472656 -8.332031 12.71875 -7.222656 12.71875 -5.921875 C 12.71875 -4.617188 12.472656 -3.503906 11.984375 -2.578125 C 11.503906 -1.660156 10.820312 -0.960938 9.9375 -0.484375 C 9.0625 -0.015625 8.046875 0.21875 6.890625 0.21875 Z M 6.890625 -2.296875 C 8.722656 -2.296875 9.640625 -3.503906 9.640625 -5.921875 C 9.640625 -7.171875 9.40625 -8.085938 8.9375 -8.671875 C 8.46875 -9.253906 7.785156 -9.546875 6.890625 -9.546875 C 5.046875 -9.546875 4.125 -8.335938 4.125 -5.921875 C 4.125 -3.503906 5.046875 -2.296875 6.890625 -2.296875 Z M 6.890625 -2.296875 "/></g></g></g><g fill="#ffffff" fill-opacity="1"><g transform="translate(216.522508, 290.772461)"><g><path d="M 1.703125 0 L 1.703125 -11.84375 L 4.5625 -11.84375 L 4.5625 -10.109375 L 4.796875 -10.0625 C 5.523438 -11.40625 6.71875 -12.078125 8.375 -12.078125 C 9.75 -12.078125 10.753906 -11.703125 11.390625 -10.953125 C 12.035156 -10.210938 12.359375 -9.128906 12.359375 -7.703125 L 12.359375 0 L 9.375 0 L 9.375 -7.34375 C 9.375 -8.125 9.21875 -8.6875 8.90625 -9.03125 C 8.59375 -9.382812 8.085938 -9.5625 7.390625 -9.5625 C 6.535156 -9.5625 5.867188 -9.285156 5.390625 -8.734375 C 4.921875 -8.179688 4.6875 -7.316406 4.6875 -6.140625 L 4.6875 0 Z M 1.703125 0 "/></g></g></g><g fill="#ffffff" fill-opacity="1"><g transform="translate(230.39895, 290.772461)"><g><path d="M 11.703125 -5.25 L 4.09375 -5.25 C 4.175781 -4.21875 4.46875 -3.46875 4.96875 -3 C 5.46875 -2.53125 6.15625 -2.296875 7.03125 -2.296875 C 7.707031 -2.296875 8.253906 -2.421875 8.671875 -2.671875 C 9.097656 -2.929688 9.441406 -3.316406 9.703125 -3.828125 L 9.921875 -3.828125 L 11.90625 -2.5625 C 11.519531 -1.738281 10.9375 -1.066406 10.15625 -0.546875 C 9.375 -0.0351562 8.332031 0.21875 7.03125 0.21875 C 5.800781 0.21875 4.738281 -0.0078125 3.84375 -0.46875 C 2.957031 -0.9375 2.269531 -1.628906 1.78125 -2.546875 C 1.300781 -3.472656 1.0625 -4.597656 1.0625 -5.921875 C 1.0625 -7.265625 1.316406 -8.394531 1.828125 -9.3125 C 2.335938 -10.238281 3.023438 -10.929688 3.890625 -11.390625 C 4.753906 -11.847656 5.726562 -12.078125 6.8125 -12.078125 C 8.488281 -12.078125 9.769531 -11.628906 10.65625 -10.734375 C 11.550781 -9.847656 12 -8.546875 12 -6.828125 C 12 -6.203125 11.976562 -5.71875 11.9375 -5.375 Z M 9.15625 -7.171875 C 9.125 -8.078125 8.910156 -8.734375 8.515625 -9.140625 C 8.128906 -9.554688 7.5625 -9.765625 6.8125 -9.765625 C 5.3125 -9.765625 4.425781 -8.898438 4.15625 -7.171875 Z M 9.15625 -7.171875 "/></g></g></g><g fill="#ffffff" fill-opacity="1"><g transform="translate(243.27655, 290.772461)"><g><path d="M 8.171875 -2.828125 L 8.953125 -0.625 C 8.628906 -0.351562 8.222656 -0.144531 7.734375 0 C 7.242188 0.144531 6.691406 0.21875 6.078125 0.21875 C 4.796875 0.21875 3.820312 -0.128906 3.15625 -0.828125 C 2.488281 -1.523438 2.15625 -2.539062 2.15625 -3.875 L 2.15625 -9.5 L 0.359375 -9.5 L 0.359375 -11.859375 L 2.15625 -11.859375 L 2.15625 -14.171875 L 5.140625 -14.65625 L 5.140625 -11.859375 L 8.5 -11.859375 L 8.5 -9.5 L 5.140625 -9.5 L 5.140625 -4.078125 C 5.140625 -3.492188 5.257812 -3.066406 5.5 -2.796875 C 5.738281 -2.523438 6.09375 -2.390625 6.5625 -2.390625 C 7.09375 -2.390625 7.554688 -2.535156 7.953125 -2.828125 Z M 8.171875 -2.828125 "/></g></g></g><g fill="#ffffff" fill-opacity="1"><g transform="translate(252.480975, 290.772461)"><g><path d="M 3.1875 -13.265625 C 2.65625 -13.265625 2.21875 -13.425781 1.875 -13.75 C 1.539062 -14.082031 1.375 -14.503906 1.375 -15.015625 C 1.375 -15.523438 1.539062 -15.941406 1.875 -16.265625 C 2.21875 -16.597656 2.65625 -16.765625 3.1875 -16.765625 C 3.550781 -16.765625 3.867188 -16.6875 4.140625 -16.53125 C 4.421875 -16.382812 4.640625 -16.175781 4.796875 -15.90625 C 4.953125 -15.644531 5.03125 -15.347656 5.03125 -15.015625 C 5.03125 -14.679688 4.953125 -14.378906 4.796875 -14.109375 C 4.640625 -13.847656 4.421875 -13.640625 4.140625 -13.484375 C 3.867188 -13.335938 3.550781 -13.265625 3.1875 -13.265625 Z M 1.703125 0 L 1.703125 -11.84375 L 4.6875 -11.84375 L 4.6875 0 Z M 1.703125 0 "/></g></g></g><g fill="#ffffff" fill-opacity="1"><g transform="translate(258.860701, 290.772461)"><g><path d="M 9.953125 0 L 0.625 0 L 0.625 -2.453125 L 6.359375 -9.265625 L 6.296875 -9.5 L 0.890625 -9.5 L 0.890625 -11.859375 L 9.859375 -11.859375 L 9.859375 -9.40625 L 4.125 -2.59375 L 4.203125 -2.359375 L 9.953125 -2.359375 Z M 9.953125 0 "/></g></g></g><g fill="#ffffff" fill-opacity="1"><g transform="translate(269.429136, 290.772461)"><g><path d="M 11.703125 -5.25 L 4.09375 -5.25 C 4.175781 -4.21875 4.46875 -3.46875 4.96875 -3 C 5.46875 -2.53125 6.15625 -2.296875 7.03125 -2.296875 C 7.707031 -2.296875 8.253906 -2.421875 8.671875 -2.671875 C 9.097656 -2.929688 9.441406 -3.316406 9.703125 -3.828125 L 9.921875 -3.828125 L 11.90625 -2.5625 C 11.519531 -1.738281 10.9375 -1.066406 10.15625 -0.546875 C 9.375 -0.0351562 8.332031 0.21875 7.03125 0.21875 C 5.800781 0.21875 4.738281 -0.0078125 3.84375 -0.46875 C 2.957031 -0.9375 2.269531 -1.628906 1.78125 -2.546875 C 1.300781 -3.472656 1.0625 -4.597656 1.0625 -5.921875 C 1.0625 -7.265625 1.316406 -8.394531 1.828125 -9.3125 C 2.335938 -10.238281 3.023438 -10.929688 3.890625 -11.390625 C 4.753906 -11.847656 5.726562 -12.078125 6.8125 -12.078125 C 8.488281 -12.078125 9.769531 -11.628906 10.65625 -10.734375 C 11.550781 -9.847656 12 -8.546875 12 -6.828125 C 12 -6.203125 11.976562 -5.71875 11.9375 -5.375 Z M 9.15625 -7.171875 C 9.125 -8.078125 8.910156 -8.734375 8.515625 -9.140625 C 8.128906 -9.554688 7.5625 -9.765625 6.8125 -9.765625 C 5.3125 -9.765625 4.425781 -8.898438 4.15625 -7.171875 Z M 9.15625 -7.171875 "/></g></g></g><g fill="#ffffff" fill-opacity="1"><g transform="translate(282.318273, 290.772461)"><g/></g></g></svg>